SplineFontDB: 3.2
FontName: Tecnica-55Line
FullName: Tecnica 55 Line
FamilyName: Tecnica
Weight: Regular
Copyright: Copyright (c) 2024 by Davide Piscitelli (https://github.com/Davide-Piscitelli/Tecnica-Typeface.git).
Version: 1.100
ItalicAngle: 0
UnderlinePosition: -100
UnderlineWidth: 50
Ascent: 960
Descent: 240
InvalidEm: 0
sfntRevision: 0x00011993
LayerCount: 2
Layer: 0 0 "Sfondo" 1
Layer: 1 0 "Fore" 0
XUID: [1021 377 1849096109 9047309]
StyleMap: 0x0040
FSType: 0
OS2Version: 4
OS2_WeightWidthSlopeOnly: 0
OS2_UseTypoMetrics: 1
CreationTime: 1742815385
ModificationTime: 1742813350
PfmFamily: 81
TTFWeight: 400
TTFWidth: 5
LineGap: 140
VLineGap: 0
Panose: 0 0 5 0 0 0 0 0 0 0
OS2TypoAscent: 1000
OS2TypoAOffset: 0
OS2TypoDescent: -300
OS2TypoDOffset: 0
OS2TypoLinegap: 140
OS2WinAscent: 1140
OS2WinAOffset: 0
OS2WinDescent: 300
OS2WinDOffset: 0
HheadAscent: 1000
HheadAOffset: 0
HheadDescent: -300
HheadDOffset: 0
OS2SubXSize: 780
OS2SubYSize: 720
OS2SubXOff: 0
OS2SubYOff: 90
OS2SupXSize: 780
OS2SupYSize: 720
OS2SupXOff: 0
OS2SupYOff: 420
OS2StrikeYSize: 50
OS2StrikeYPos: 330
OS2CapHeight: 700
OS2XHeight: 550
OS2FamilyClass: 2058
OS2Vendor: 'DAPI'
OS2CodePages: 20000093.00000000
OS2UnicodeRanges: 00000007.00000001.00000000.00000000
Lookup: 1 0 0 "'aalt' Accedi a tutte le alternative lookup 0" { "'aalt' Accedi a tutte le alternative lookup 0 subtable"  } ['aalt' ('DFLT' <'dflt' > 'grek' <'dflt' > 'latn' <'dflt' > ) ]
Lookup: 1 0 0 "'locl' Forme localizzate in Latino lookup 1" { "'locl' Forme localizzate in Latino lookup 1 subtable"  } ['locl' ('latn' <'ROM ' > ) ]
Lookup: 1 0 0 "'locl' Forme localizzate in Latino lookup 2" { "'locl' Forme localizzate in Latino lookup 2 subtable"  } ['locl' ('latn' <'MOL ' > ) ]
Lookup: 1 0 0 "'locl' Forme localizzate in Latino lookup 3" { "'locl' Forme localizzate in Latino lookup 3 subtable"  } ['locl' ('latn' <'KAZ ' > ) ]

StartChar: .notdef
Encoding: 65536 -1 0
Width: 600
GlyphClass: 1
Flags: MW
HStem: 0 100<86 500 100 500> 150 100<86 500 100 500> 300 100<86 500 100 500> 450 100<86 500 100 500> 600 100<86 500 100 500>
VStem: 50 500<36 64 186 214 336 364 486 514 636 664>
LayerCount: 2
Fore
SplineSet
50 650 m 0
 50 678 72 700 100 700 c 2
 500 700 l 2
 528 700 550 678 550 650 c 0
 550 622 528 600 500 600 c 2
 100 600 l 2
 72 600 50 622 50 650 c 0
50 500 m 0
 50 528 72 550 100 550 c 2
 500 550 l 2
 528 550 550 528 550 500 c 0
 550 472 528 450 500 450 c 2
 100 450 l 2
 72 450 50 472 50 500 c 0
50 350 m 0
 50 378 72 400 100 400 c 2
 500 400 l 2
 528 400 550 378 550 350 c 0
 550 322 528 300 500 300 c 2
 100 300 l 2
 72 300 50 322 50 350 c 0
50 200 m 0
 50 228 72 250 100 250 c 2
 500 250 l 2
 528 250 550 228 550 200 c 0
 550 172 528 150 500 150 c 2
 100 150 l 2
 72 150 50 172 50 200 c 0
50 50 m 0
 50 78 72 100 100 100 c 2
 500 100 l 2
 528 100 550 78 550 50 c 0
 550 22 528 0 500 0 c 2
 100 0 l 2
 72 0 50 22 50 50 c 0
EndSplineSet
EndChar

StartChar: A
Encoding: 65 65 1
Width: 600
GlyphClass: 1
Flags: MW
HStem: 0 100<86 114 486 514> 150 100<86 114 486 514> 300 100<86 500 100 500> 450 100<86 114 486 514> 600 100<186 400 200 400>
VStem: 50 100<36 64 186 214 486 514> 450 100<36 64 186 214 486 514>
LayerCount: 2
Fore
SplineSet
150 650 m 0
 150 678 172 700 200 700 c 2
 400 700 l 2
 428 700 450 678 450 650 c 0
 450 622 428 600 400 600 c 2
 200 600 l 2
 172 600 150 622 150 650 c 0
100 450 m 0
 72 450 50 472 50 500 c 0
 50 528 72 550 100 550 c 0
 128 550 150 528 150 500 c 0
 150 472 128 450 100 450 c 0
500 450 m 0
 472 450 450 472 450 500 c 0
 450 528 472 550 500 550 c 0
 528 550 550 528 550 500 c 0
 550 472 528 450 500 450 c 0
50 350 m 0
 50 378 72 400 100 400 c 2
 500 400 l 2
 528 400 550 378 550 350 c 0
 550 322 528 300 500 300 c 2
 100 300 l 2
 72 300 50 322 50 350 c 0
100 150 m 0
 72 150 50 172 50 200 c 0
 50 228 72 250 100 250 c 0
 128 250 150 228 150 200 c 0
 150 172 128 150 100 150 c 0
500 150 m 0
 472 150 450 172 450 200 c 0
 450 228 472 250 500 250 c 0
 528 250 550 228 550 200 c 0
 550 172 528 150 500 150 c 0
100 0 m 0
 72 0 50 22 50 50 c 0
 50 78 72 100 100 100 c 0
 128 100 150 78 150 50 c 0
 150 22 128 0 100 0 c 0
500 0 m 0
 472 0 450 22 450 50 c 0
 450 78 472 100 500 100 c 0
 528 100 550 78 550 50 c 0
 550 22 528 0 500 0 c 0
EndSplineSet
EndChar

StartChar: Aacute
Encoding: 193 193 2
Width: 600
GlyphClass: 1
Flags: MW
HStem: 0 100<86 114 486 514> 150 100<86 114 486 514> 300 100<86 500 100 500> 450 100<86 114 486 514> 600 100<186 400 200 400> 750 100<286 314> 900 100<386 414>
VStem: 50 100<36 64 186 214 486 514> 250 100<786 814> 350 100<936 964> 450 100<36 64 186 214 486 514>
LayerCount: 2
Fore
SplineSet
400 900 m 0x0240
 372 900 350 922 350 950 c 0
 350 978 372 1000 400 1000 c 0
 428 1000 450 978 450 950 c 0
 450 922 428 900 400 900 c 0x0240
300 750 m 0x0c80
 272 750 250 772 250 800 c 0
 250 828 272 850 300 850 c 0
 328 850 350 828 350 800 c 0
 350 772 328 750 300 750 c 0x0c80
150 650 m 0
 150 678 172 700 200 700 c 2
 400 700 l 2
 428 700 450 678 450 650 c 0
 450 622 428 600 400 600 c 2x0840
 200 600 l 2
 172 600 150 622 150 650 c 0
100 450 m 0xf120
 72 450 50 472 50 500 c 0
 50 528 72 550 100 550 c 0
 128 550 150 528 150 500 c 0
 150 472 128 450 100 450 c 0xf120
500 450 m 0
 472 450 450 472 450 500 c 0
 450 528 472 550 500 550 c 0
 528 550 550 528 550 500 c 0
 550 472 528 450 500 450 c 0
50 350 m 0
 50 378 72 400 100 400 c 2
 500 400 l 2
 528 400 550 378 550 350 c 0
 550 322 528 300 500 300 c 2
 100 300 l 2
 72 300 50 322 50 350 c 0
100 150 m 0
 72 150 50 172 50 200 c 0
 50 228 72 250 100 250 c 0
 128 250 150 228 150 200 c 0
 150 172 128 150 100 150 c 0
500 150 m 0
 472 150 450 172 450 200 c 0
 450 228 472 250 500 250 c 0
 528 250 550 228 550 200 c 0
 550 172 528 150 500 150 c 0
100 0 m 0
 72 0 50 22 50 50 c 0
 50 78 72 100 100 100 c 0
 128 100 150 78 150 50 c 0
 150 22 128 0 100 0 c 0
500 0 m 0
 472 0 450 22 450 50 c 0
 450 78 472 100 500 100 c 0
 528 100 550 78 550 50 c 0
 550 22 528 0 500 0 c 0
EndSplineSet
EndChar

StartChar: Abreve
Encoding: 258 258 3
Width: 600
GlyphClass: 1
Flags: MW
HStem: 0 100<86 114 486 514> 150 100<86 114 486 514> 300 100<86 500 100 500> 450 100<86 114 486 514> 600 100<186 400 200 400> 750 100<186 400 200 400> 900 100<186 214 386 414>
VStem: 50 100<36 64 186 214 486 514> 150 100<936 964> 350 100<936 964> 450 100<36 64 186 214 486 514>
LayerCount: 2
Fore
SplineSet
200 900 m 0x0ec0
 172 900 150 922 150 950 c 0
 150 978 172 1000 200 1000 c 0
 228 1000 250 978 250 950 c 0
 250 922 228 900 200 900 c 0x0ec0
400 900 m 0
 372 900 350 922 350 950 c 0
 350 978 372 1000 400 1000 c 0
 428 1000 450 978 450 950 c 0
 450 922 428 900 400 900 c 0
150 800 m 0
 150 828 172 850 200 850 c 2
 400 850 l 2
 428 850 450 828 450 800 c 0
 450 772 428 750 400 750 c 2
 200 750 l 2
 172 750 150 772 150 800 c 0
150 650 m 0
 150 678 172 700 200 700 c 2
 400 700 l 2
 428 700 450 678 450 650 c 0
 450 622 428 600 400 600 c 2
 200 600 l 2
 172 600 150 622 150 650 c 0
100 450 m 0xf120
 72 450 50 472 50 500 c 0
 50 528 72 550 100 550 c 0
 128 550 150 528 150 500 c 0
 150 472 128 450 100 450 c 0xf120
500 450 m 0
 472 450 450 472 450 500 c 0
 450 528 472 550 500 550 c 0
 528 550 550 528 550 500 c 0
 550 472 528 450 500 450 c 0
50 350 m 0
 50 378 72 400 100 400 c 2
 500 400 l 2
 528 400 550 378 550 350 c 0
 550 322 528 300 500 300 c 2
 100 300 l 2
 72 300 50 322 50 350 c 0
100 150 m 0
 72 150 50 172 50 200 c 0
 50 228 72 250 100 250 c 0
 128 250 150 228 150 200 c 0
 150 172 128 150 100 150 c 0
500 150 m 0
 472 150 450 172 450 200 c 0
 450 228 472 250 500 250 c 0
 528 250 550 228 550 200 c 0
 550 172 528 150 500 150 c 0
100 0 m 0
 72 0 50 22 50 50 c 0
 50 78 72 100 100 100 c 0
 128 100 150 78 150 50 c 0
 150 22 128 0 100 0 c 0
500 0 m 0
 472 0 450 22 450 50 c 0
 450 78 472 100 500 100 c 0
 528 100 550 78 550 50 c 0
 550 22 528 0 500 0 c 0
EndSplineSet
EndChar

StartChar: Acircumflex
Encoding: 194 194 4
Width: 600
GlyphClass: 1
Flags: MW
HStem: 0 100<86 114 486 514> 150 100<86 114 486 514> 300 100<86 500 100 500> 450 100<86 114 486 514> 600 100<186 400 200 400> 750 100<186 214 386 414> 900 100<286 314>
VStem: 50 100<36 64 186 214 486 514> 150 100<786 814> 250 100<786 814 936 964> 350 100<786 814> 450 100<36 64 186 214 486 514>
LayerCount: 2
Fore
SplineSet
300 900 m 0xff50
 272 900 250 922 250 950 c 0
 250 978 272 1000 300 1000 c 0
 328 1000 350 978 350 950 c 0
 350 922 328 900 300 900 c 0xff50
200 750 m 0x0ca0
 172 750 150 772 150 800 c 0
 150 828 172 850 200 850 c 0
 228 850 250 828 250 800 c 0
 250 772 228 750 200 750 c 0x0ca0
400 750 m 0
 372 750 350 772 350 800 c 0
 350 828 372 850 400 850 c 0
 428 850 450 828 450 800 c 0
 450 772 428 750 400 750 c 0
150 650 m 0
 150 678 172 700 200 700 c 2
 400 700 l 2
 428 700 450 678 450 650 c 0
 450 622 428 600 400 600 c 2
 200 600 l 2
 172 600 150 622 150 650 c 0
100 450 m 0xf110
 72 450 50 472 50 500 c 0
 50 528 72 550 100 550 c 0
 128 550 150 528 150 500 c 0
 150 472 128 450 100 450 c 0xf110
500 450 m 0
 472 450 450 472 450 500 c 0
 450 528 472 550 500 550 c 0
 528 550 550 528 550 500 c 0
 550 472 528 450 500 450 c 0
50 350 m 0
 50 378 72 400 100 400 c 2
 500 400 l 2
 528 400 550 378 550 350 c 0
 550 322 528 300 500 300 c 2
 100 300 l 2
 72 300 50 322 50 350 c 0
100 150 m 0
 72 150 50 172 50 200 c 0
 50 228 72 250 100 250 c 0
 128 250 150 228 150 200 c 0
 150 172 128 150 100 150 c 0
500 150 m 0
 472 150 450 172 450 200 c 0
 450 228 472 250 500 250 c 0
 528 250 550 228 550 200 c 0
 550 172 528 150 500 150 c 0
100 0 m 0
 72 0 50 22 50 50 c 0
 50 78 72 100 100 100 c 0
 128 100 150 78 150 50 c 0
 150 22 128 0 100 0 c 0
500 0 m 0
 472 0 450 22 450 50 c 0
 450 78 472 100 500 100 c 0
 528 100 550 78 550 50 c 0
 550 22 528 0 500 0 c 0
EndSplineSet
EndChar

StartChar: Adieresis
Encoding: 196 196 5
Width: 600
GlyphClass: 1
Flags: MW
HStem: 0 100<86 114 486 514> 150 100<86 114 486 514> 300 100<86 500 100 500> 450 100<86 114 486 514> 600 100<186 400 200 400> 900 100<186 214 386 414>
VStem: 50 100<36 64 186 214 486 514> 150 100<936 964> 350 100<936 964> 450 100<36 64 186 214 486 514>
LayerCount: 2
Fore
SplineSet
200 900 m 0x0d80
 172 900 150 922 150 950 c 0
 150 978 172 1000 200 1000 c 0
 228 1000 250 978 250 950 c 0
 250 922 228 900 200 900 c 0x0d80
400 900 m 0
 372 900 350 922 350 950 c 0
 350 978 372 1000 400 1000 c 0
 428 1000 450 978 450 950 c 0
 450 922 428 900 400 900 c 0
150 650 m 0
 150 678 172 700 200 700 c 2
 400 700 l 2
 428 700 450 678 450 650 c 0
 450 622 428 600 400 600 c 2
 200 600 l 2
 172 600 150 622 150 650 c 0
100 450 m 0xf240
 72 450 50 472 50 500 c 0
 50 528 72 550 100 550 c 0
 128 550 150 528 150 500 c 0
 150 472 128 450 100 450 c 0xf240
500 450 m 0
 472 450 450 472 450 500 c 0
 450 528 472 550 500 550 c 0
 528 550 550 528 550 500 c 0
 550 472 528 450 500 450 c 0
50 350 m 0
 50 378 72 400 100 400 c 2
 500 400 l 2
 528 400 550 378 550 350 c 0
 550 322 528 300 500 300 c 2
 100 300 l 2
 72 300 50 322 50 350 c 0
100 150 m 0
 72 150 50 172 50 200 c 0
 50 228 72 250 100 250 c 0
 128 250 150 228 150 200 c 0
 150 172 128 150 100 150 c 0
500 150 m 0
 472 150 450 172 450 200 c 0
 450 228 472 250 500 250 c 0
 528 250 550 228 550 200 c 0
 550 172 528 150 500 150 c 0
100 0 m 0
 72 0 50 22 50 50 c 0
 50 78 72 100 100 100 c 0
 128 100 150 78 150 50 c 0
 150 22 128 0 100 0 c 0
500 0 m 0
 472 0 450 22 450 50 c 0
 450 78 472 100 500 100 c 0
 528 100 550 78 550 50 c 0
 550 22 528 0 500 0 c 0
EndSplineSet
EndChar

StartChar: Agrave
Encoding: 192 192 6
Width: 600
GlyphClass: 1
Flags: MW
HStem: 0 100<86 114 486 514> 150 100<86 114 486 514> 300 100<86 500 100 500> 450 100<86 114 486 514> 600 100<186 400 200 400> 750 100<286 314> 900 100<186 214>
VStem: 50 100<36 64 186 214 486 514> 150 100<936 964> 250 100<786 814> 450 100<36 64 186 214 486 514>
LayerCount: 2
Fore
SplineSet
200 900 m 0x0280
 172 900 150 922 150 950 c 0
 150 978 172 1000 200 1000 c 0
 228 1000 250 978 250 950 c 0
 250 922 228 900 200 900 c 0x0280
300 750 m 0x0440
 272 750 250 772 250 800 c 0
 250 828 272 850 300 850 c 0
 328 850 350 828 350 800 c 0
 350 772 328 750 300 750 c 0x0440
150 650 m 0x0880
 150 678 172 700 200 700 c 2
 400 700 l 2
 428 700 450 678 450 650 c 0
 450 622 428 600 400 600 c 2
 200 600 l 2
 172 600 150 622 150 650 c 0x0880
100 450 m 0xf120
 72 450 50 472 50 500 c 0
 50 528 72 550 100 550 c 0
 128 550 150 528 150 500 c 0
 150 472 128 450 100 450 c 0xf120
500 450 m 0
 472 450 450 472 450 500 c 0
 450 528 472 550 500 550 c 0
 528 550 550 528 550 500 c 0
 550 472 528 450 500 450 c 0
50 350 m 0
 50 378 72 400 100 400 c 2
 500 400 l 2
 528 400 550 378 550 350 c 0
 550 322 528 300 500 300 c 2
 100 300 l 2
 72 300 50 322 50 350 c 0
100 150 m 0
 72 150 50 172 50 200 c 0
 50 228 72 250 100 250 c 0
 128 250 150 228 150 200 c 0
 150 172 128 150 100 150 c 0
500 150 m 0
 472 150 450 172 450 200 c 0
 450 228 472 250 500 250 c 0
 528 250 550 228 550 200 c 0
 550 172 528 150 500 150 c 0
100 0 m 0
 72 0 50 22 50 50 c 0
 50 78 72 100 100 100 c 0
 128 100 150 78 150 50 c 0
 150 22 128 0 100 0 c 0
500 0 m 0
 472 0 450 22 450 50 c 0
 450 78 472 100 500 100 c 0
 528 100 550 78 550 50 c 0
 550 22 528 0 500 0 c 0
EndSplineSet
EndChar

StartChar: Amacron
Encoding: 256 256 7
Width: 600
GlyphClass: 1
Flags: MW
HStem: 0 100<86 114 486 514> 150 100<86 114 486 514> 300 100<86 500 100 500> 450 100<86 114 486 514> 600 100<186 400 200 400> 900 100<186 400 200 400>
VStem: 50 100<36 64 186 214 486 514> 450 100<36 64 186 214 486 514>
LayerCount: 2
Fore
SplineSet
150 950 m 0
 150 978 172 1000 200 1000 c 2
 400 1000 l 2
 428 1000 450 978 450 950 c 0
 450 922 428 900 400 900 c 2
 200 900 l 2
 172 900 150 922 150 950 c 0
150 650 m 0
 150 678 172 700 200 700 c 2
 400 700 l 2
 428 700 450 678 450 650 c 0
 450 622 428 600 400 600 c 2
 200 600 l 2
 172 600 150 622 150 650 c 0
100 450 m 0
 72 450 50 472 50 500 c 0
 50 528 72 550 100 550 c 0
 128 550 150 528 150 500 c 0
 150 472 128 450 100 450 c 0
500 450 m 0
 472 450 450 472 450 500 c 0
 450 528 472 550 500 550 c 0
 528 550 550 528 550 500 c 0
 550 472 528 450 500 450 c 0
50 350 m 0
 50 378 72 400 100 400 c 2
 500 400 l 2
 528 400 550 378 550 350 c 0
 550 322 528 300 500 300 c 2
 100 300 l 2
 72 300 50 322 50 350 c 0
100 150 m 0
 72 150 50 172 50 200 c 0
 50 228 72 250 100 250 c 0
 128 250 150 228 150 200 c 0
 150 172 128 150 100 150 c 0
500 150 m 0
 472 150 450 172 450 200 c 0
 450 228 472 250 500 250 c 0
 528 250 550 228 550 200 c 0
 550 172 528 150 500 150 c 0
100 0 m 0
 72 0 50 22 50 50 c 0
 50 78 72 100 100 100 c 0
 128 100 150 78 150 50 c 0
 150 22 128 0 100 0 c 0
500 0 m 0
 472 0 450 22 450 50 c 0
 450 78 472 100 500 100 c 0
 528 100 550 78 550 50 c 0
 550 22 528 0 500 0 c 0
EndSplineSet
EndChar

StartChar: Aogonek
Encoding: 260 260 8
Width: 600
GlyphClass: 1
Flags: MW
HStem: -300 100<386 500 400 500> -150 100<386 414> 0 100<86 114 486 514> 150 100<86 114 486 514> 300 100<86 500 100 500> 450 100<86 114 486 514> 600 100<186 400 200 400>
VStem: 50 100<36 64 186 214 486 514> 350 100<-114 -86> 450 100<36 64 186 214 486 514>
LayerCount: 2
Fore
SplineSet
150 650 m 0xff40
 150 678 172 700 200 700 c 2
 400 700 l 2
 428 700 450 678 450 650 c 0
 450 622 428 600 400 600 c 2x0280
 200 600 l 2
 172 600 150 622 150 650 c 0xff40
100 450 m 0
 72 450 50 472 50 500 c 0
 50 528 72 550 100 550 c 0
 128 550 150 528 150 500 c 0
 150 472 128 450 100 450 c 0
500 450 m 0
 472 450 450 472 450 500 c 0
 450 528 472 550 500 550 c 0
 528 550 550 528 550 500 c 0
 550 472 528 450 500 450 c 0
50 350 m 0
 50 378 72 400 100 400 c 2
 500 400 l 2
 528 400 550 378 550 350 c 0
 550 322 528 300 500 300 c 2
 100 300 l 2
 72 300 50 322 50 350 c 0
100 150 m 0
 72 150 50 172 50 200 c 0
 50 228 72 250 100 250 c 0
 128 250 150 228 150 200 c 0
 150 172 128 150 100 150 c 0
500 150 m 0
 472 150 450 172 450 200 c 0
 450 228 472 250 500 250 c 0
 528 250 550 228 550 200 c 0
 550 172 528 150 500 150 c 0
100 0 m 0
 72 0 50 22 50 50 c 0
 50 78 72 100 100 100 c 0
 128 100 150 78 150 50 c 0
 150 22 128 0 100 0 c 0
500 0 m 0
 472 0 450 22 450 50 c 0
 450 78 472 100 500 100 c 0
 528 100 550 78 550 50 c 0
 550 22 528 0 500 0 c 0
400 -150 m 0xc080
 372 -150 350 -128 350 -100 c 0
 350 -72 372 -50 400 -50 c 0
 428 -50 450 -72 450 -100 c 0
 450 -128 428 -150 400 -150 c 0xc080
350 -250 m 0
 350 -222 372 -200 400 -200 c 2x8080
 500 -200 l 2
 528 -200 550 -222 550 -250 c 0
 550 -278 528 -300 500 -300 c 2x8040
 400 -300 l 2
 372 -300 350 -278 350 -250 c 0
EndSplineSet
EndChar

StartChar: Aring
Encoding: 197 197 9
Width: 600
GlyphClass: 1
Flags: MW
HStem: 0 100<86 114 486 514> 150 100<86 114 486 514> 300 100<86 500 100 500> 450 100<86 114 486 514> 600 100<186 400 200 400> 750 100<186 300 200 300> 900 100<186 300 200 300>
VStem: 50 100<36 64 186 214 486 514> 150 200<636 814 786 814 936 964> 450 100<36 64 186 214 486 514>
LayerCount: 2
Fore
SplineSet
150 950 m 0x0e80
 150 978 172 1000 200 1000 c 2
 300 1000 l 2
 328 1000 350 978 350 950 c 0
 350 922 328 900 300 900 c 2
 200 900 l 2
 172 900 150 922 150 950 c 0x0e80
150 800 m 0
 150 828 172 850 200 850 c 2
 300 850 l 2
 328 850 350 828 350 800 c 0
 350 772 328 750 300 750 c 2
 200 750 l 2
 172 750 150 772 150 800 c 0
150 650 m 0
 150 678 172 700 200 700 c 2
 400 700 l 2
 428 700 450 678 450 650 c 0
 450 622 428 600 400 600 c 2
 200 600 l 2
 172 600 150 622 150 650 c 0
100 450 m 0xf140
 72 450 50 472 50 500 c 0
 50 528 72 550 100 550 c 0
 128 550 150 528 150 500 c 0
 150 472 128 450 100 450 c 0xf140
500 450 m 0
 472 450 450 472 450 500 c 0
 450 528 472 550 500 550 c 0
 528 550 550 528 550 500 c 0
 550 472 528 450 500 450 c 0
50 350 m 0
 50 378 72 400 100 400 c 2
 500 400 l 2
 528 400 550 378 550 350 c 0
 550 322 528 300 500 300 c 2
 100 300 l 2
 72 300 50 322 50 350 c 0
100 150 m 0
 72 150 50 172 50 200 c 0
 50 228 72 250 100 250 c 0
 128 250 150 228 150 200 c 0
 150 172 128 150 100 150 c 0
500 150 m 0
 472 150 450 172 450 200 c 0
 450 228 472 250 500 250 c 0
 528 250 550 228 550 200 c 0
 550 172 528 150 500 150 c 0
100 0 m 0
 72 0 50 22 50 50 c 0
 50 78 72 100 100 100 c 0
 128 100 150 78 150 50 c 0
 150 22 128 0 100 0 c 0
500 0 m 0
 472 0 450 22 450 50 c 0
 450 78 472 100 500 100 c 0
 528 100 550 78 550 50 c 0
 550 22 528 0 500 0 c 0
EndSplineSet
EndChar

StartChar: Atilde
Encoding: 195 195 10
Width: 600
GlyphClass: 1
Flags: MW
HStem: 0 100<86 114 486 514> 150 100<86 114 486 514> 300 100<86 500 100 500> 450 100<86 114 486 514> 600 100<186 400 200 400> 750 100<286 400 300 400> 900 100<186 300 200 300>
VStem: 50 100<36 64 186 214 486 514> 450 100<36 64 186 214 486 514>
LayerCount: 2
Fore
SplineSet
150 950 m 0
 150 978 172 1000 200 1000 c 2
 300 1000 l 2
 328 1000 350 978 350 950 c 0
 350 922 328 900 300 900 c 2
 200 900 l 2
 172 900 150 922 150 950 c 0
250 800 m 0
 250 828 272 850 300 850 c 2
 400 850 l 2
 428 850 450 828 450 800 c 0
 450 772 428 750 400 750 c 2
 300 750 l 2
 272 750 250 772 250 800 c 0
150 650 m 0
 150 678 172 700 200 700 c 2
 400 700 l 2
 428 700 450 678 450 650 c 0
 450 622 428 600 400 600 c 2
 200 600 l 2
 172 600 150 622 150 650 c 0
100 450 m 0
 72 450 50 472 50 500 c 0
 50 528 72 550 100 550 c 0
 128 550 150 528 150 500 c 0
 150 472 128 450 100 450 c 0
500 450 m 0
 472 450 450 472 450 500 c 0
 450 528 472 550 500 550 c 0
 528 550 550 528 550 500 c 0
 550 472 528 450 500 450 c 0
50 350 m 0
 50 378 72 400 100 400 c 2
 500 400 l 2
 528 400 550 378 550 350 c 0
 550 322 528 300 500 300 c 2
 100 300 l 2
 72 300 50 322 50 350 c 0
100 150 m 0
 72 150 50 172 50 200 c 0
 50 228 72 250 100 250 c 0
 128 250 150 228 150 200 c 0
 150 172 128 150 100 150 c 0
500 150 m 0
 472 150 450 172 450 200 c 0
 450 228 472 250 500 250 c 0
 528 250 550 228 550 200 c 0
 550 172 528 150 500 150 c 0
100 0 m 0
 72 0 50 22 50 50 c 0
 50 78 72 100 100 100 c 0
 128 100 150 78 150 50 c 0
 150 22 128 0 100 0 c 0
500 0 m 0
 472 0 450 22 450 50 c 0
 450 78 472 100 500 100 c 0
 528 100 550 78 550 50 c 0
 550 22 528 0 500 0 c 0
EndSplineSet
EndChar

StartChar: AE
Encoding: 198 198 11
Width: 600
GlyphClass: 1
Flags: MW
HStem: 0 100<86 114 300 500> 150 100<86 114 286 314> 300 100<86 400 100 400> 450 100<86 114 286 314> 600 100<186 500 200 500>
VStem: 50 100<36 64 186 214 486 514> 250 100<186 214 486 514>
LayerCount: 2
Fore
SplineSet
150 650 m 0
 150 678 172 700 200 700 c 2
 500 700 l 2
 528 700 550 678 550 650 c 0
 550 622 528 600 500 600 c 2
 200 600 l 2
 172 600 150 622 150 650 c 0
100 450 m 0
 72 450 50 472 50 500 c 0
 50 528 72 550 100 550 c 0
 128 550 150 528 150 500 c 0
 150 472 128 450 100 450 c 0
300 450 m 0
 272 450 250 472 250 500 c 0
 250 528 272 550 300 550 c 0
 328 550 350 528 350 500 c 0
 350 472 328 450 300 450 c 0
50 350 m 0
 50 378 72 400 100 400 c 2
 400 400 l 2
 428 400 450 378 450 350 c 0
 450 322 428 300 400 300 c 2
 100 300 l 2
 72 300 50 322 50 350 c 0
100 150 m 0
 72 150 50 172 50 200 c 0
 50 228 72 250 100 250 c 0
 128 250 150 228 150 200 c 0
 150 172 128 150 100 150 c 0
300 150 m 0
 272 150 250 172 250 200 c 0
 250 228 272 250 300 250 c 0
 328 250 350 228 350 200 c 0
 350 172 328 150 300 150 c 0
100 0 m 0
 72 0 50 22 50 50 c 0
 50 78 72 100 100 100 c 0
 128 100 150 78 150 50 c 0
 150 22 128 0 100 0 c 0
250 50 m 0
 250 78 272 100 300 100 c 2
 500 100 l 2
 528 100 550 78 550 50 c 0
 550 22 528 0 500 0 c 2
 300 0 l 2
 272 0 250 22 250 50 c 0
EndSplineSet
EndChar

StartChar: B
Encoding: 66 66 12
Width: 600
GlyphClass: 1
Flags: MW
HStem: 0 100<86 400 100 400> 150 100<86 114 486 514> 300 100<86 400 100 400> 450 100<86 114 486 514> 600 100<86 400 100 400>
VStem: 50 100<186 214 486 514> 450 100<186 214 486 514>
LayerCount: 2
Fore
SplineSet
50 650 m 0
 50 678 72 700 100 700 c 2
 400 700 l 2
 428 700 450 678 450 650 c 0
 450 622 428 600 400 600 c 2
 100 600 l 2
 72 600 50 622 50 650 c 0
100 450 m 0
 72 450 50 472 50 500 c 0
 50 528 72 550 100 550 c 0
 128 550 150 528 150 500 c 0
 150 472 128 450 100 450 c 0
500 450 m 0
 472 450 450 472 450 500 c 0
 450 528 472 550 500 550 c 0
 528 550 550 528 550 500 c 0
 550 472 528 450 500 450 c 0
50 350 m 0
 50 378 72 400 100 400 c 2
 400 400 l 2
 428 400 450 378 450 350 c 0
 450 322 428 300 400 300 c 2
 100 300 l 2
 72 300 50 322 50 350 c 0
100 150 m 0
 72 150 50 172 50 200 c 0
 50 228 72 250 100 250 c 0
 128 250 150 228 150 200 c 0
 150 172 128 150 100 150 c 0
500 150 m 0
 472 150 450 172 450 200 c 0
 450 228 472 250 500 250 c 0
 528 250 550 228 550 200 c 0
 550 172 528 150 500 150 c 0
50 50 m 0
 50 78 72 100 100 100 c 2
 400 100 l 2
 428 100 450 78 450 50 c 0
 450 22 428 0 400 0 c 2
 100 0 l 2
 72 0 50 22 50 50 c 0
EndSplineSet
EndChar

StartChar: C
Encoding: 67 67 13
Width: 600
GlyphClass: 1
Flags: MW
HStem: 0 100<186 400 200 400> 150 100<86 114 486 514> 300 100<86 114> 450 100<86 114 486 514> 600 100<186 400 200 400>
VStem: 50 100<186 214 336 364 486 514> 450 100<186 214 486 514>
LayerCount: 2
Fore
SplineSet
150 650 m 0
 150 678 172 700 200 700 c 2
 400 700 l 2
 428 700 450 678 450 650 c 0
 450 622 428 600 400 600 c 2
 200 600 l 2
 172 600 150 622 150 650 c 0
100 450 m 0
 72 450 50 472 50 500 c 0
 50 528 72 550 100 550 c 0
 128 550 150 528 150 500 c 0
 150 472 128 450 100 450 c 0
500 450 m 0
 472 450 450 472 450 500 c 0
 450 528 472 550 500 550 c 0
 528 550 550 528 550 500 c 0
 550 472 528 450 500 450 c 0
100 300 m 0
 72 300 50 322 50 350 c 0
 50 378 72 400 100 400 c 0
 128 400 150 378 150 350 c 0
 150 322 128 300 100 300 c 0
100 150 m 0
 72 150 50 172 50 200 c 0
 50 228 72 250 100 250 c 0
 128 250 150 228 150 200 c 0
 150 172 128 150 100 150 c 0
500 150 m 0
 472 150 450 172 450 200 c 0
 450 228 472 250 500 250 c 0
 528 250 550 228 550 200 c 0
 550 172 528 150 500 150 c 0
150 50 m 0
 150 78 172 100 200 100 c 2
 400 100 l 2
 428 100 450 78 450 50 c 0
 450 22 428 0 400 0 c 2
 200 0 l 2
 172 0 150 22 150 50 c 0
EndSplineSet
EndChar

StartChar: Cacute
Encoding: 262 262 14
Width: 600
GlyphClass: 1
Flags: MW
HStem: 0 100<186 400 200 400> 150 100<86 114 486 514> 300 100<86 114> 450 100<86 114 486 514> 600 100<186 400 200 400> 750 100<286 314> 900 100<386 414>
VStem: 50 100<186 214 336 364 486 514> 250 100<786 814> 350 100<936 964> 450 100<186 214 486 514>
LayerCount: 2
Fore
SplineSet
400 900 m 0x0240
 372 900 350 922 350 950 c 0
 350 978 372 1000 400 1000 c 0
 428 1000 450 978 450 950 c 0
 450 922 428 900 400 900 c 0x0240
300 750 m 0x0c80
 272 750 250 772 250 800 c 0
 250 828 272 850 300 850 c 0
 328 850 350 828 350 800 c 0
 350 772 328 750 300 750 c 0x0c80
150 650 m 0
 150 678 172 700 200 700 c 2
 400 700 l 2
 428 700 450 678 450 650 c 0
 450 622 428 600 400 600 c 2x0840
 200 600 l 2
 172 600 150 622 150 650 c 0
100 450 m 0xf120
 72 450 50 472 50 500 c 0
 50 528 72 550 100 550 c 0
 128 550 150 528 150 500 c 0
 150 472 128 450 100 450 c 0xf120
500 450 m 0
 472 450 450 472 450 500 c 0
 450 528 472 550 500 550 c 0
 528 550 550 528 550 500 c 0
 550 472 528 450 500 450 c 0
100 300 m 0
 72 300 50 322 50 350 c 0
 50 378 72 400 100 400 c 0
 128 400 150 378 150 350 c 0
 150 322 128 300 100 300 c 0
100 150 m 0
 72 150 50 172 50 200 c 0
 50 228 72 250 100 250 c 0
 128 250 150 228 150 200 c 0
 150 172 128 150 100 150 c 0
500 150 m 0
 472 150 450 172 450 200 c 0
 450 228 472 250 500 250 c 0
 528 250 550 228 550 200 c 0
 550 172 528 150 500 150 c 0
150 50 m 0
 150 78 172 100 200 100 c 2
 400 100 l 2
 428 100 450 78 450 50 c 0
 450 22 428 0 400 0 c 2x8040
 200 0 l 2
 172 0 150 22 150 50 c 0
EndSplineSet
EndChar

StartChar: Ccaron
Encoding: 268 268 15
Width: 600
GlyphClass: 1
Flags: MW
HStem: 0 100<186 400 200 400> 150 100<86 114 486 514> 300 100<86 114> 450 100<86 114 486 514> 600 100<186 400 200 400> 750 100<286 314> 900 100<186 214 386 414>
VStem: 50 100<186 214 336 364 486 514> 150 100<936 964> 250 100<786 814 936 964> 350 100<936 964> 450 100<186 214 486 514>
LayerCount: 2
Fore
SplineSet
200 900 m 0x02a0
 172 900 150 922 150 950 c 0
 150 978 172 1000 200 1000 c 0
 228 1000 250 978 250 950 c 0
 250 922 228 900 200 900 c 0x02a0
400 900 m 0
 372 900 350 922 350 950 c 0
 350 978 372 1000 400 1000 c 0
 428 1000 450 978 450 950 c 0
 450 922 428 900 400 900 c 0
300 750 m 0x0440
 272 750 250 772 250 800 c 0
 250 828 272 850 300 850 c 0
 328 850 350 828 350 800 c 0
 350 772 328 750 300 750 c 0x0440
150 650 m 0x08a0
 150 678 172 700 200 700 c 2
 400 700 l 2
 428 700 450 678 450 650 c 0
 450 622 428 600 400 600 c 2
 200 600 l 2
 172 600 150 622 150 650 c 0x08a0
100 450 m 0x7110
 72 450 50 472 50 500 c 0
 50 528 72 550 100 550 c 0
 128 550 150 528 150 500 c 0
 150 472 128 450 100 450 c 0x7110
500 450 m 0
 472 450 450 472 450 500 c 0
 450 528 472 550 500 550 c 0
 528 550 550 528 550 500 c 0
 550 472 528 450 500 450 c 0
100 300 m 0
 72 300 50 322 50 350 c 0
 50 378 72 400 100 400 c 0
 128 400 150 378 150 350 c 0
 150 322 128 300 100 300 c 0
100 150 m 0
 72 150 50 172 50 200 c 0
 50 228 72 250 100 250 c 0
 128 250 150 228 150 200 c 0
 150 172 128 150 100 150 c 0
500 150 m 0
 472 150 450 172 450 200 c 0
 450 228 472 250 500 250 c 0
 528 250 550 228 550 200 c 0
 550 172 528 150 500 150 c 0
150 50 m 0x80a0
 150 78 172 100 200 100 c 2
 400 100 l 2
 428 100 450 78 450 50 c 0
 450 22 428 0 400 0 c 2
 200 0 l 2
 172 0 150 22 150 50 c 0x80a0
EndSplineSet
EndChar

StartChar: Ccedilla
Encoding: 199 199 16
Width: 600
GlyphClass: 1
Flags: MW
HStem: -300 100<186 300 200 300> -150 100<286 314> 0 100<186 400 200 400> 150 100<86 114 486 514> 300 100<86 114> 450 100<86 114 486 514> 600 100<186 400 200 400>
VStem: 50 100<186 214 336 364 486 514> 250 100<-114 -86> 450 100<186 214 486 514>
LayerCount: 2
Fore
SplineSet
150 650 m 0
 150 678 172 700 200 700 c 2
 400 700 l 2
 428 700 450 678 450 650 c 0
 450 622 428 600 400 600 c 2
 200 600 l 2
 172 600 150 622 150 650 c 0
100 450 m 0
 72 450 50 472 50 500 c 0
 50 528 72 550 100 550 c 0
 128 550 150 528 150 500 c 0
 150 472 128 450 100 450 c 0
500 450 m 0
 472 450 450 472 450 500 c 0
 450 528 472 550 500 550 c 0
 528 550 550 528 550 500 c 0
 550 472 528 450 500 450 c 0
100 300 m 0
 72 300 50 322 50 350 c 0
 50 378 72 400 100 400 c 0
 128 400 150 378 150 350 c 0
 150 322 128 300 100 300 c 0
100 150 m 0
 72 150 50 172 50 200 c 0
 50 228 72 250 100 250 c 0
 128 250 150 228 150 200 c 0
 150 172 128 150 100 150 c 0
500 150 m 0
 472 150 450 172 450 200 c 0
 450 228 472 250 500 250 c 0
 528 250 550 228 550 200 c 0
 550 172 528 150 500 150 c 0
150 50 m 0
 150 78 172 100 200 100 c 2
 400 100 l 2
 428 100 450 78 450 50 c 0
 450 22 428 0 400 0 c 2
 200 0 l 2
 172 0 150 22 150 50 c 0
300 -150 m 0
 272 -150 250 -128 250 -100 c 0
 250 -72 272 -50 300 -50 c 0
 328 -50 350 -72 350 -100 c 0
 350 -128 328 -150 300 -150 c 0
150 -250 m 0
 150 -222 172 -200 200 -200 c 2
 300 -200 l 2
 328 -200 350 -222 350 -250 c 0
 350 -278 328 -300 300 -300 c 2
 200 -300 l 2
 172 -300 150 -278 150 -250 c 0
EndSplineSet
EndChar

StartChar: Cdotaccent
Encoding: 266 266 17
Width: 600
GlyphClass: 1
Flags: MW
HStem: 0 100<186 400 200 400> 150 100<86 114 486 514> 300 100<86 114> 450 100<86 114 486 514> 600 100<186 400 200 400> 900 100<286 314>
VStem: 50 100<186 214 336 364 486 514> 250 100<936 964> 450 100<186 214 486 514>
LayerCount: 2
Fore
SplineSet
300 900 m 0
 272 900 250 922 250 950 c 0
 250 978 272 1000 300 1000 c 0
 328 1000 350 978 350 950 c 0
 350 922 328 900 300 900 c 0
150 650 m 0
 150 678 172 700 200 700 c 2
 400 700 l 2
 428 700 450 678 450 650 c 0
 450 622 428 600 400 600 c 2
 200 600 l 2
 172 600 150 622 150 650 c 0
100 450 m 0
 72 450 50 472 50 500 c 0
 50 528 72 550 100 550 c 0
 128 550 150 528 150 500 c 0
 150 472 128 450 100 450 c 0
500 450 m 0
 472 450 450 472 450 500 c 0
 450 528 472 550 500 550 c 0
 528 550 550 528 550 500 c 0
 550 472 528 450 500 450 c 0
100 300 m 0
 72 300 50 322 50 350 c 0
 50 378 72 400 100 400 c 0
 128 400 150 378 150 350 c 0
 150 322 128 300 100 300 c 0
100 150 m 0
 72 150 50 172 50 200 c 0
 50 228 72 250 100 250 c 0
 128 250 150 228 150 200 c 0
 150 172 128 150 100 150 c 0
500 150 m 0
 472 150 450 172 450 200 c 0
 450 228 472 250 500 250 c 0
 528 250 550 228 550 200 c 0
 550 172 528 150 500 150 c 0
150 50 m 0
 150 78 172 100 200 100 c 2
 400 100 l 2
 428 100 450 78 450 50 c 0
 450 22 428 0 400 0 c 2
 200 0 l 2
 172 0 150 22 150 50 c 0
EndSplineSet
EndChar

StartChar: D
Encoding: 68 68 18
Width: 600
GlyphClass: 1
Flags: MW
HStem: 0 100<86 400 100 400> 150 100<86 114 486 514> 300 100<86 114 486 514> 450 100<86 114 486 514> 600 100<86 400 100 400>
VStem: 50 100<186 214 336 364 486 514> 450 100<186 214 336 364 486 514>
LayerCount: 2
Fore
SplineSet
50 650 m 0
 50 678 72 700 100 700 c 2
 400 700 l 2
 428 700 450 678 450 650 c 0
 450 622 428 600 400 600 c 2
 100 600 l 2
 72 600 50 622 50 650 c 0
100 450 m 0
 72 450 50 472 50 500 c 0
 50 528 72 550 100 550 c 0
 128 550 150 528 150 500 c 0
 150 472 128 450 100 450 c 0
500 450 m 0
 472 450 450 472 450 500 c 0
 450 528 472 550 500 550 c 0
 528 550 550 528 550 500 c 0
 550 472 528 450 500 450 c 0
100 300 m 0
 72 300 50 322 50 350 c 0
 50 378 72 400 100 400 c 0
 128 400 150 378 150 350 c 0
 150 322 128 300 100 300 c 0
500 300 m 0
 472 300 450 322 450 350 c 0
 450 378 472 400 500 400 c 0
 528 400 550 378 550 350 c 0
 550 322 528 300 500 300 c 0
100 150 m 0
 72 150 50 172 50 200 c 0
 50 228 72 250 100 250 c 0
 128 250 150 228 150 200 c 0
 150 172 128 150 100 150 c 0
500 150 m 0
 472 150 450 172 450 200 c 0
 450 228 472 250 500 250 c 0
 528 250 550 228 550 200 c 0
 550 172 528 150 500 150 c 0
50 50 m 0
 50 78 72 100 100 100 c 2
 400 100 l 2
 428 100 450 78 450 50 c 0
 450 22 428 0 400 0 c 2
 100 0 l 2
 72 0 50 22 50 50 c 0
EndSplineSet
EndChar

StartChar: Eth
Encoding: 208 208 19
Width: 600
GlyphClass: 1
Flags: MW
HStem: 0 100<186 400 200 400> 150 100<186 214 486 514> 300 100<86 300 100 300 486 514> 450 100<186 214 486 514> 600 100<186 400 200 400>
VStem: 150 100<186 214 486 514> 450 100<186 214 336 364 486 514>
LayerCount: 2
Fore
SplineSet
150 650 m 0
 150 678 172 700 200 700 c 2
 400 700 l 2
 428 700 450 678 450 650 c 0
 450 622 428 600 400 600 c 2
 200 600 l 2
 172 600 150 622 150 650 c 0
200 450 m 0
 172 450 150 472 150 500 c 0
 150 528 172 550 200 550 c 0
 228 550 250 528 250 500 c 0
 250 472 228 450 200 450 c 0
500 450 m 0
 472 450 450 472 450 500 c 0
 450 528 472 550 500 550 c 0
 528 550 550 528 550 500 c 0
 550 472 528 450 500 450 c 0
50 350 m 0
 50 378 72 400 100 400 c 2
 300 400 l 2
 328 400 350 378 350 350 c 0
 350 322 328 300 300 300 c 2
 100 300 l 2
 72 300 50 322 50 350 c 0
500 300 m 0
 472 300 450 322 450 350 c 0
 450 378 472 400 500 400 c 0
 528 400 550 378 550 350 c 0
 550 322 528 300 500 300 c 0
200 150 m 0
 172 150 150 172 150 200 c 0
 150 228 172 250 200 250 c 0
 228 250 250 228 250 200 c 0
 250 172 228 150 200 150 c 0
500 150 m 0
 472 150 450 172 450 200 c 0
 450 228 472 250 500 250 c 0
 528 250 550 228 550 200 c 0
 550 172 528 150 500 150 c 0
150 50 m 0
 150 78 172 100 200 100 c 2
 400 100 l 2
 428 100 450 78 450 50 c 0
 450 22 428 0 400 0 c 2
 200 0 l 2
 172 0 150 22 150 50 c 0
EndSplineSet
EndChar

StartChar: Dcaron
Encoding: 270 270 20
Width: 600
GlyphClass: 1
Flags: MW
HStem: 0 100<86 400 100 400> 150 100<86 114 486 514> 300 100<86 114 486 514> 450 100<86 114 486 514> 600 100<86 400 100 400> 750 100<286 314> 900 100<186 214 386 414>
VStem: 50 100<186 214 336 364 486 514> 150 100<936 964> 250 100<786 814 936 964> 350 100<936 964> 450 100<186 214 336 364 486 514>
LayerCount: 2
Fore
SplineSet
200 900 m 0x02a0
 172 900 150 922 150 950 c 0
 150 978 172 1000 200 1000 c 0
 228 1000 250 978 250 950 c 0
 250 922 228 900 200 900 c 0x02a0
400 900 m 0
 372 900 350 922 350 950 c 0
 350 978 372 1000 400 1000 c 0
 428 1000 450 978 450 950 c 0
 450 922 428 900 400 900 c 0
300 750 m 0x0d40
 272 750 250 772 250 800 c 0
 250 828 272 850 300 850 c 0
 328 850 350 828 350 800 c 0
 350 772 328 750 300 750 c 0x0d40
50 650 m 0
 50 678 72 700 100 700 c 2
 400 700 l 2
 428 700 450 678 450 650 c 0
 450 622 428 600 400 600 c 2x0920
 100 600 l 2
 72 600 50 622 50 650 c 0
100 450 m 0xf110
 72 450 50 472 50 500 c 0
 50 528 72 550 100 550 c 0
 128 550 150 528 150 500 c 0
 150 472 128 450 100 450 c 0xf110
500 450 m 0
 472 450 450 472 450 500 c 0
 450 528 472 550 500 550 c 0
 528 550 550 528 550 500 c 0
 550 472 528 450 500 450 c 0
100 300 m 0
 72 300 50 322 50 350 c 0
 50 378 72 400 100 400 c 0
 128 400 150 378 150 350 c 0
 150 322 128 300 100 300 c 0
500 300 m 0
 472 300 450 322 450 350 c 0
 450 378 472 400 500 400 c 0
 528 400 550 378 550 350 c 0
 550 322 528 300 500 300 c 0
100 150 m 0
 72 150 50 172 50 200 c 0
 50 228 72 250 100 250 c 0
 128 250 150 228 150 200 c 0
 150 172 128 150 100 150 c 0
500 150 m 0
 472 150 450 172 450 200 c 0
 450 228 472 250 500 250 c 0
 528 250 550 228 550 200 c 0
 550 172 528 150 500 150 c 0
50 50 m 0
 50 78 72 100 100 100 c 2
 400 100 l 2
 428 100 450 78 450 50 c 0
 450 22 428 0 400 0 c 2x8120
 100 0 l 2
 72 0 50 22 50 50 c 0
EndSplineSet
EndChar

StartChar: Dcroat
Encoding: 272 272 21
Width: 600
GlyphClass: 1
Flags: MW
HStem: 0 100<186 400 200 400> 150 100<186 214 486 514> 300 100<86 300 100 300 486 514> 450 100<186 214 486 514> 600 100<186 400 200 400>
VStem: 150 100<186 214 486 514> 450 100<186 214 336 364 486 514>
LayerCount: 2
Fore
SplineSet
150 650 m 0
 150 678 172 700 200 700 c 2
 400 700 l 2
 428 700 450 678 450 650 c 0
 450 622 428 600 400 600 c 2
 200 600 l 2
 172 600 150 622 150 650 c 0
200 450 m 0
 172 450 150 472 150 500 c 0
 150 528 172 550 200 550 c 0
 228 550 250 528 250 500 c 0
 250 472 228 450 200 450 c 0
500 450 m 0
 472 450 450 472 450 500 c 0
 450 528 472 550 500 550 c 0
 528 550 550 528 550 500 c 0
 550 472 528 450 500 450 c 0
50 350 m 0
 50 378 72 400 100 400 c 2
 300 400 l 2
 328 400 350 378 350 350 c 0
 350 322 328 300 300 300 c 2
 100 300 l 2
 72 300 50 322 50 350 c 0
500 300 m 0
 472 300 450 322 450 350 c 0
 450 378 472 400 500 400 c 0
 528 400 550 378 550 350 c 0
 550 322 528 300 500 300 c 0
200 150 m 0
 172 150 150 172 150 200 c 0
 150 228 172 250 200 250 c 0
 228 250 250 228 250 200 c 0
 250 172 228 150 200 150 c 0
500 150 m 0
 472 150 450 172 450 200 c 0
 450 228 472 250 500 250 c 0
 528 250 550 228 550 200 c 0
 550 172 528 150 500 150 c 0
150 50 m 0
 150 78 172 100 200 100 c 2
 400 100 l 2
 428 100 450 78 450 50 c 0
 450 22 428 0 400 0 c 2
 200 0 l 2
 172 0 150 22 150 50 c 0
EndSplineSet
EndChar

StartChar: E
Encoding: 69 69 22
Width: 600
GlyphClass: 1
Flags: MW
HStem: 0 100<86 500 100 500> 150 100<86 114> 300 100<86 400 100 400> 450 100<86 114> 600 100<86 500 100 500>
VStem: 50 100<186 214 486 514>
LayerCount: 2
Fore
SplineSet
50 650 m 0
 50 678 72 700 100 700 c 2
 500 700 l 2
 528 700 550 678 550 650 c 0
 550 622 528 600 500 600 c 2
 100 600 l 2
 72 600 50 622 50 650 c 0
100 450 m 0
 72 450 50 472 50 500 c 0
 50 528 72 550 100 550 c 0
 128 550 150 528 150 500 c 0
 150 472 128 450 100 450 c 0
50 350 m 0
 50 378 72 400 100 400 c 2
 400 400 l 2
 428 400 450 378 450 350 c 0
 450 322 428 300 400 300 c 2
 100 300 l 2
 72 300 50 322 50 350 c 0
100 150 m 0
 72 150 50 172 50 200 c 0
 50 228 72 250 100 250 c 0
 128 250 150 228 150 200 c 0
 150 172 128 150 100 150 c 0
50 50 m 0
 50 78 72 100 100 100 c 2
 500 100 l 2
 528 100 550 78 550 50 c 0
 550 22 528 0 500 0 c 2
 100 0 l 2
 72 0 50 22 50 50 c 0
EndSplineSet
EndChar

StartChar: Eacute
Encoding: 201 201 23
Width: 600
GlyphClass: 1
Flags: MW
HStem: 0 100<86 500 100 500> 150 100<86 114> 300 100<86 400 100 400> 450 100<86 114> 600 100<86 500 100 500> 750 100<286 314> 900 100<386 414>
VStem: 50 100<186 214 486 514> 250 100<786 814> 350 100<936 964>
LayerCount: 2
Fore
SplineSet
400 900 m 0xff40
 372 900 350 922 350 950 c 0
 350 978 372 1000 400 1000 c 0
 428 1000 450 978 450 950 c 0
 450 922 428 900 400 900 c 0xff40
300 750 m 0x3d80
 272 750 250 772 250 800 c 0
 250 828 272 850 300 850 c 0
 328 850 350 828 350 800 c 0
 350 772 328 750 300 750 c 0x3d80
50 650 m 0
 50 678 72 700 100 700 c 2
 500 700 l 2
 528 700 550 678 550 650 c 0
 550 622 528 600 500 600 c 2
 100 600 l 2
 72 600 50 622 50 650 c 0
100 450 m 0
 72 450 50 472 50 500 c 0
 50 528 72 550 100 550 c 0
 128 550 150 528 150 500 c 0
 150 472 128 450 100 450 c 0
50 350 m 0
 50 378 72 400 100 400 c 2
 400 400 l 2
 428 400 450 378 450 350 c 0
 450 322 428 300 400 300 c 2x2140
 100 300 l 2
 72 300 50 322 50 350 c 0
100 150 m 0xc1
 72 150 50 172 50 200 c 0
 50 228 72 250 100 250 c 0
 128 250 150 228 150 200 c 0
 150 172 128 150 100 150 c 0xc1
50 50 m 0
 50 78 72 100 100 100 c 2
 500 100 l 2
 528 100 550 78 550 50 c 0
 550 22 528 0 500 0 c 2
 100 0 l 2
 72 0 50 22 50 50 c 0
EndSplineSet
EndChar

StartChar: Ecaron
Encoding: 282 282 24
Width: 600
GlyphClass: 1
Flags: MW
HStem: 0 100<86 500 100 500> 150 100<86 114> 300 100<86 400 100 400> 450 100<86 114> 600 100<86 500 100 500> 750 100<286 314> 900 100<186 214 386 414>
VStem: 50 100<186 214 486 514> 150 100<936 964> 250 100<786 814 936 964> 350 100<936 964>
LayerCount: 2
Fore
SplineSet
200 900 m 0x02a0
 172 900 150 922 150 950 c 0
 150 978 172 1000 200 1000 c 0
 228 1000 250 978 250 950 c 0
 250 922 228 900 200 900 c 0x02a0
400 900 m 0
 372 900 350 922 350 950 c 0
 350 978 372 1000 400 1000 c 0
 428 1000 450 978 450 950 c 0
 450 922 428 900 400 900 c 0
300 750 m 0x3d40
 272 750 250 772 250 800 c 0
 250 828 272 850 300 850 c 0
 328 850 350 828 350 800 c 0
 350 772 328 750 300 750 c 0x3d40
50 650 m 0
 50 678 72 700 100 700 c 2
 500 700 l 2
 528 700 550 678 550 650 c 0
 550 622 528 600 500 600 c 2
 100 600 l 2
 72 600 50 622 50 650 c 0
100 450 m 0
 72 450 50 472 50 500 c 0
 50 528 72 550 100 550 c 0
 128 550 150 528 150 500 c 0
 150 472 128 450 100 450 c 0
50 350 m 0
 50 378 72 400 100 400 c 2
 400 400 l 2
 428 400 450 378 450 350 c 0
 450 322 428 300 400 300 c 2x2120
 100 300 l 2
 72 300 50 322 50 350 c 0
100 150 m 0xc1
 72 150 50 172 50 200 c 0
 50 228 72 250 100 250 c 0
 128 250 150 228 150 200 c 0
 150 172 128 150 100 150 c 0xc1
50 50 m 0
 50 78 72 100 100 100 c 2
 500 100 l 2
 528 100 550 78 550 50 c 0
 550 22 528 0 500 0 c 2
 100 0 l 2
 72 0 50 22 50 50 c 0
EndSplineSet
EndChar

StartChar: Ecircumflex
Encoding: 202 202 25
Width: 600
GlyphClass: 1
Flags: MW
HStem: 0 100<86 500 100 500> 150 100<86 114> 300 100<86 400 100 400> 450 100<86 114> 600 100<86 500 100 500> 750 100<186 214 386 414> 900 100<286 314>
VStem: 50 100<186 214 486 514> 150 100<786 814> 250 100<786 814 936 964> 350 100<786 814>
LayerCount: 2
Fore
SplineSet
300 900 m 0x0240
 272 900 250 922 250 950 c 0
 250 978 272 1000 300 1000 c 0
 328 1000 350 978 350 950 c 0
 350 922 328 900 300 900 c 0x0240
200 750 m 0x04a0
 172 750 150 772 150 800 c 0
 150 828 172 850 200 850 c 0
 228 850 250 828 250 800 c 0
 250 772 228 750 200 750 c 0x04a0
400 750 m 0
 372 750 350 772 350 800 c 0
 350 828 372 850 400 850 c 0
 428 850 450 828 450 800 c 0
 450 772 428 750 400 750 c 0
50 650 m 0xf920
 50 678 72 700 100 700 c 2
 500 700 l 2
 528 700 550 678 550 650 c 0
 550 622 528 600 500 600 c 2
 100 600 l 2
 72 600 50 622 50 650 c 0xf920
100 450 m 0
 72 450 50 472 50 500 c 0
 50 528 72 550 100 550 c 0
 128 550 150 528 150 500 c 0
 150 472 128 450 100 450 c 0
50 350 m 0
 50 378 72 400 100 400 c 2
 400 400 l 2
 428 400 450 378 450 350 c 0
 450 322 428 300 400 300 c 2
 100 300 l 2
 72 300 50 322 50 350 c 0
100 150 m 0
 72 150 50 172 50 200 c 0
 50 228 72 250 100 250 c 0
 128 250 150 228 150 200 c 0
 150 172 128 150 100 150 c 0
50 50 m 0
 50 78 72 100 100 100 c 2
 500 100 l 2
 528 100 550 78 550 50 c 0
 550 22 528 0 500 0 c 2
 100 0 l 2
 72 0 50 22 50 50 c 0
EndSplineSet
EndChar

StartChar: Edieresis
Encoding: 203 203 26
Width: 600
GlyphClass: 1
Flags: MW
HStem: 0 100<86 500 100 500> 150 100<86 114> 300 100<86 400 100 400> 450 100<86 114> 600 100<86 500 100 500> 900 100<186 214 386 414>
VStem: 50 100<186 214 486 514> 150 100<936 964> 350 100<936 964>
LayerCount: 2
Fore
SplineSet
200 900 m 0x0580
 172 900 150 922 150 950 c 0
 150 978 172 1000 200 1000 c 0
 228 1000 250 978 250 950 c 0
 250 922 228 900 200 900 c 0x0580
400 900 m 0
 372 900 350 922 350 950 c 0
 350 978 372 1000 400 1000 c 0
 428 1000 450 978 450 950 c 0
 450 922 428 900 400 900 c 0
50 650 m 0xfa80
 50 678 72 700 100 700 c 2
 500 700 l 2
 528 700 550 678 550 650 c 0
 550 622 528 600 500 600 c 2
 100 600 l 2
 72 600 50 622 50 650 c 0xfa80
100 450 m 0
 72 450 50 472 50 500 c 0
 50 528 72 550 100 550 c 0
 128 550 150 528 150 500 c 0
 150 472 128 450 100 450 c 0
50 350 m 0
 50 378 72 400 100 400 c 2
 400 400 l 2
 428 400 450 378 450 350 c 0
 450 322 428 300 400 300 c 2
 100 300 l 2
 72 300 50 322 50 350 c 0
100 150 m 0
 72 150 50 172 50 200 c 0
 50 228 72 250 100 250 c 0
 128 250 150 228 150 200 c 0
 150 172 128 150 100 150 c 0
50 50 m 0
 50 78 72 100 100 100 c 2
 500 100 l 2
 528 100 550 78 550 50 c 0
 550 22 528 0 500 0 c 2
 100 0 l 2
 72 0 50 22 50 50 c 0
EndSplineSet
EndChar

StartChar: Edotaccent
Encoding: 278 278 27
Width: 600
GlyphClass: 1
Flags: MW
HStem: 0 100<86 500 100 500> 150 100<86 114> 300 100<86 400 100 400> 450 100<86 114> 600 100<86 500 100 500> 900 100<286 314>
VStem: 50 100<186 214 486 514> 250 100<936 964>
LayerCount: 2
Fore
SplineSet
300 900 m 0
 272 900 250 922 250 950 c 0
 250 978 272 1000 300 1000 c 0
 328 1000 350 978 350 950 c 0
 350 922 328 900 300 900 c 0
50 650 m 0
 50 678 72 700 100 700 c 2
 500 700 l 2
 528 700 550 678 550 650 c 0
 550 622 528 600 500 600 c 2
 100 600 l 2
 72 600 50 622 50 650 c 0
100 450 m 0
 72 450 50 472 50 500 c 0
 50 528 72 550 100 550 c 0
 128 550 150 528 150 500 c 0
 150 472 128 450 100 450 c 0
50 350 m 0
 50 378 72 400 100 400 c 2
 400 400 l 2
 428 400 450 378 450 350 c 0
 450 322 428 300 400 300 c 2
 100 300 l 2
 72 300 50 322 50 350 c 0
100 150 m 0
 72 150 50 172 50 200 c 0
 50 228 72 250 100 250 c 0
 128 250 150 228 150 200 c 0
 150 172 128 150 100 150 c 0
50 50 m 0
 50 78 72 100 100 100 c 2
 500 100 l 2
 528 100 550 78 550 50 c 0
 550 22 528 0 500 0 c 2
 100 0 l 2
 72 0 50 22 50 50 c 0
EndSplineSet
EndChar

StartChar: Egrave
Encoding: 200 200 28
Width: 600
GlyphClass: 1
Flags: MW
HStem: 0 100<86 500 100 500> 150 100<86 114> 300 100<86 400 100 400> 450 100<86 114> 600 100<86 500 100 500> 750 100<286 314> 900 100<186 214>
VStem: 50 100<186 214 486 514> 150 100<936 964> 250 100<786 814>
LayerCount: 2
Fore
SplineSet
200 900 m 0x0280
 172 900 150 922 150 950 c 0
 150 978 172 1000 200 1000 c 0
 228 1000 250 978 250 950 c 0
 250 922 228 900 200 900 c 0x0280
300 750 m 0xfd40
 272 750 250 772 250 800 c 0
 250 828 272 850 300 850 c 0
 328 850 350 828 350 800 c 0
 350 772 328 750 300 750 c 0xfd40
50 650 m 0
 50 678 72 700 100 700 c 2
 500 700 l 2
 528 700 550 678 550 650 c 0
 550 622 528 600 500 600 c 2
 100 600 l 2
 72 600 50 622 50 650 c 0
100 450 m 0
 72 450 50 472 50 500 c 0
 50 528 72 550 100 550 c 0
 128 550 150 528 150 500 c 0
 150 472 128 450 100 450 c 0
50 350 m 0
 50 378 72 400 100 400 c 2
 400 400 l 2
 428 400 450 378 450 350 c 0
 450 322 428 300 400 300 c 2
 100 300 l 2
 72 300 50 322 50 350 c 0
100 150 m 0
 72 150 50 172 50 200 c 0
 50 228 72 250 100 250 c 0
 128 250 150 228 150 200 c 0
 150 172 128 150 100 150 c 0
50 50 m 0
 50 78 72 100 100 100 c 2
 500 100 l 2
 528 100 550 78 550 50 c 0
 550 22 528 0 500 0 c 2
 100 0 l 2
 72 0 50 22 50 50 c 0
EndSplineSet
EndChar

StartChar: Emacron
Encoding: 274 274 29
Width: 600
GlyphClass: 1
Flags: MW
HStem: 0 100<86 500 100 500> 150 100<86 114> 300 100<86 400 100 400> 450 100<86 114> 600 100<86 500 100 500> 900 100<186 400 200 400>
VStem: 50 100<186 214 486 514>
LayerCount: 2
Fore
SplineSet
400 900 m 2
 200 900 l 2
 172 900 150 922 150 950 c 0
 150 978 172 1000 200 1000 c 2
 400 1000 l 2
 428 1000 450 978 450 950 c 0
 450 922 428 900 400 900 c 2
500 600 m 2
 100 600 l 2
 72 600 50 622 50 650 c 0
 50 678 72 700 100 700 c 2
 500 700 l 2
 528 700 550 678 550 650 c 0
 550 622 528 600 500 600 c 2
100 450 m 0
 72 450 50 472 50 500 c 0
 50 528 72 550 100 550 c 0
 128 550 150 528 150 500 c 0
 150 472 128 450 100 450 c 0
400 300 m 2
 100 300 l 2
 72 300 50 322 50 350 c 0
 50 378 72 400 100 400 c 2
 400 400 l 2
 428 400 450 378 450 350 c 0
 450 322 428 300 400 300 c 2
100 150 m 0
 72 150 50 172 50 200 c 0
 50 228 72 250 100 250 c 0
 128 250 150 228 150 200 c 0
 150 172 128 150 100 150 c 0
100 100 m 2
 500 100 l 2
 528 100 550 78 550 50 c 0
 550 22 528 0 500 0 c 2
 100 0 l 2
 72 0 50 22 50 50 c 0
 50 78 72 100 100 100 c 2
EndSplineSet
EndChar

StartChar: Eogonek
Encoding: 280 280 30
Width: 600
GlyphClass: 1
Flags: MW
HStem: -300 100<386 500 400 500> -150 100<386 414> 0 100<86 500 100 500> 150 100<86 114> 300 100<86 400 100 400> 450 100<86 114> 600 100<86 500 100 500>
VStem: 50 100<186 214 486 514> 350 100<-114 -86>
LayerCount: 2
Fore
SplineSet
50 650 m 0
 50 678 72 700 100 700 c 2
 500 700 l 2
 528 700 550 678 550 650 c 0
 550 622 528 600 500 600 c 2
 100 600 l 2
 72 600 50 622 50 650 c 0
100 450 m 0
 72 450 50 472 50 500 c 0
 50 528 72 550 100 550 c 0
 128 550 150 528 150 500 c 0
 150 472 128 450 100 450 c 0
50 350 m 0
 50 378 72 400 100 400 c 2
 400 400 l 2
 428 400 450 378 450 350 c 0
 450 322 428 300 400 300 c 2
 100 300 l 2
 72 300 50 322 50 350 c 0
100 150 m 0
 72 150 50 172 50 200 c 0
 50 228 72 250 100 250 c 0
 128 250 150 228 150 200 c 0
 150 172 128 150 100 150 c 0
50 50 m 0
 50 78 72 100 100 100 c 2
 500 100 l 2
 528 100 550 78 550 50 c 0
 550 22 528 0 500 0 c 2
 100 0 l 2
 72 0 50 22 50 50 c 0
400 -150 m 0
 372 -150 350 -128 350 -100 c 0
 350 -72 372 -50 400 -50 c 0
 428 -50 450 -72 450 -100 c 0
 450 -128 428 -150 400 -150 c 0
350 -250 m 0
 350 -222 372 -200 400 -200 c 2
 500 -200 l 2
 528 -200 550 -222 550 -250 c 0
 550 -278 528 -300 500 -300 c 2
 400 -300 l 2
 372 -300 350 -278 350 -250 c 0
EndSplineSet
EndChar

StartChar: F
Encoding: 70 70 31
Width: 600
GlyphClass: 1
Flags: MW
HStem: 0 100<86 114> 150 100<86 114> 300 100<86 400 100 400> 450 100<86 114> 600 100<86 500 100 500>
VStem: 50 100<36 64 186 214 486 514>
LayerCount: 2
Fore
SplineSet
50 650 m 0
 50 678 72 700 100 700 c 2
 500 700 l 2
 528 700 550 678 550 650 c 0
 550 622 528 600 500 600 c 2
 100 600 l 2
 72 600 50 622 50 650 c 0
100 450 m 0
 72 450 50 472 50 500 c 0
 50 528 72 550 100 550 c 0
 128 550 150 528 150 500 c 0
 150 472 128 450 100 450 c 0
50 350 m 0
 50 378 72 400 100 400 c 2
 400 400 l 2
 428 400 450 378 450 350 c 0
 450 322 428 300 400 300 c 2
 100 300 l 2
 72 300 50 322 50 350 c 0
100 150 m 0
 72 150 50 172 50 200 c 0
 50 228 72 250 100 250 c 0
 128 250 150 228 150 200 c 0
 150 172 128 150 100 150 c 0
100 0 m 0
 72 0 50 22 50 50 c 0
 50 78 72 100 100 100 c 0
 128 100 150 78 150 50 c 0
 150 22 128 0 100 0 c 0
EndSplineSet
EndChar

StartChar: G
Encoding: 71 71 32
Width: 600
GlyphClass: 1
Flags: MW
HStem: 0 100<186 400 200 400> 150 100<86 114 486 514> 300 100<86 114 300 500> 450 100<86 114> 600 100<186 500 200 500>
VStem: 50 100<186 214 336 364 486 514> 450 100<186 214>
LayerCount: 2
Fore
SplineSet
150 650 m 0
 150 678 172 700 200 700 c 2
 500 700 l 2
 528 700 550 678 550 650 c 0
 550 622 528 600 500 600 c 2
 200 600 l 2
 172 600 150 622 150 650 c 0
100 450 m 0
 72 450 50 472 50 500 c 0
 50 528 72 550 100 550 c 0
 128 550 150 528 150 500 c 0
 150 472 128 450 100 450 c 0
100 300 m 0
 72 300 50 322 50 350 c 0
 50 378 72 400 100 400 c 0
 128 400 150 378 150 350 c 0
 150 322 128 300 100 300 c 0
250 350 m 0
 250 378 272 400 300 400 c 2
 500 400 l 2
 528 400 550 378 550 350 c 0
 550 322 528 300 500 300 c 2
 300 300 l 2
 272 300 250 322 250 350 c 0
100 150 m 0
 72 150 50 172 50 200 c 0
 50 228 72 250 100 250 c 0
 128 250 150 228 150 200 c 0
 150 172 128 150 100 150 c 0
500 150 m 0
 472 150 450 172 450 200 c 0
 450 228 472 250 500 250 c 0
 528 250 550 228 550 200 c 0
 550 172 528 150 500 150 c 0
150 50 m 0
 150 78 172 100 200 100 c 2
 400 100 l 2
 428 100 450 78 450 50 c 0
 450 22 428 0 400 0 c 2
 200 0 l 2
 172 0 150 22 150 50 c 0
EndSplineSet
EndChar

StartChar: Gbreve
Encoding: 286 286 33
Width: 600
GlyphClass: 1
Flags: MW
HStem: 0 100<186 400 200 400> 150 100<86 114 486 514> 300 100<86 114 300 500> 450 100<86 114> 600 100<186 500 200 500> 750 100<186 400 200 400> 900 100<186 214 386 414>
VStem: 50 100<186 214 336 364 486 514> 150 100<336 364 936 964> 350 100<936 964> 450 100<186 214>
LayerCount: 2
Fore
SplineSet
200 900 m 0x0ec0
 172 900 150 922 150 950 c 0
 150 978 172 1000 200 1000 c 0
 228 1000 250 978 250 950 c 0
 250 922 228 900 200 900 c 0x0ec0
400 900 m 0
 372 900 350 922 350 950 c 0
 350 978 372 1000 400 1000 c 0
 428 1000 450 978 450 950 c 0
 450 922 428 900 400 900 c 0
150 800 m 0
 150 828 172 850 200 850 c 2
 400 850 l 2
 428 850 450 828 450 800 c 0
 450 772 428 750 400 750 c 2
 200 750 l 2
 172 750 150 772 150 800 c 0
150 650 m 0
 150 678 172 700 200 700 c 2
 500 700 l 2
 528 700 550 678 550 650 c 0
 550 622 528 600 500 600 c 2x08a0
 200 600 l 2
 172 600 150 622 150 650 c 0
100 450 m 0x7120
 72 450 50 472 50 500 c 0
 50 528 72 550 100 550 c 0
 128 550 150 528 150 500 c 0
 150 472 128 450 100 450 c 0x7120
100 300 m 0
 72 300 50 322 50 350 c 0
 50 378 72 400 100 400 c 0
 128 400 150 378 150 350 c 0
 150 322 128 300 100 300 c 0
250 350 m 0
 250 378 272 400 300 400 c 2
 500 400 l 2
 528 400 550 378 550 350 c 0
 550 322 528 300 500 300 c 2
 300 300 l 2
 272 300 250 322 250 350 c 0
100 150 m 0
 72 150 50 172 50 200 c 0
 50 228 72 250 100 250 c 0
 128 250 150 228 150 200 c 0
 150 172 128 150 100 150 c 0
500 150 m 0
 472 150 450 172 450 200 c 0
 450 228 472 250 500 250 c 0
 528 250 550 228 550 200 c 0
 550 172 528 150 500 150 c 0
150 50 m 0x80c0
 150 78 172 100 200 100 c 2
 400 100 l 2
 428 100 450 78 450 50 c 0
 450 22 428 0 400 0 c 2
 200 0 l 2
 172 0 150 22 150 50 c 0x80c0
EndSplineSet
EndChar

StartChar: uni0122
Encoding: 290 290 34
Width: 600
GlyphClass: 1
Flags: MW
HStem: -300 100<186 214> -150 100<286 314> 0 100<186 400 200 400> 150 100<86 114 486 514> 300 100<86 114 300 500> 450 100<86 114> 600 100<186 500 200 500>
VStem: 50 100<186 214 336 364 486 514> 150 100<-264 -236 336 364> 250 100<-114 -86> 450 100<186 214>
LayerCount: 2
Fore
SplineSet
150 650 m 0x02a0
 150 678 172 700 200 700 c 2
 500 700 l 2
 528 700 550 678 550 650 c 0
 550 622 528 600 500 600 c 2
 200 600 l 2
 172 600 150 622 150 650 c 0x02a0
100 450 m 0x1d60
 72 450 50 472 50 500 c 0
 50 528 72 550 100 550 c 0
 128 550 150 528 150 500 c 0
 150 472 128 450 100 450 c 0x1d60
100 300 m 0
 72 300 50 322 50 350 c 0
 50 378 72 400 100 400 c 0
 128 400 150 378 150 350 c 0
 150 322 128 300 100 300 c 0
250 350 m 0
 250 378 272 400 300 400 c 2
 500 400 l 2
 528 400 550 378 550 350 c 0
 550 322 528 300 500 300 c 2
 300 300 l 2
 272 300 250 322 250 350 c 0
100 150 m 0
 72 150 50 172 50 200 c 0
 50 228 72 250 100 250 c 0
 128 250 150 228 150 200 c 0
 150 172 128 150 100 150 c 0
500 150 m 0
 472 150 450 172 450 200 c 0
 450 228 472 250 500 250 c 0
 528 250 550 228 550 200 c 0
 550 172 528 150 500 150 c 0
150 50 m 0x2080
 150 78 172 100 200 100 c 2
 400 100 l 2
 428 100 450 78 450 50 c 0
 450 22 428 0 400 0 c 2
 200 0 l 2
 172 0 150 22 150 50 c 0x2080
300 -150 m 0x4040
 272 -150 250 -128 250 -100 c 0
 250 -72 272 -50 300 -50 c 0
 328 -50 350 -72 350 -100 c 0
 350 -128 328 -150 300 -150 c 0x4040
200 -300 m 0x8080
 172 -300 150 -278 150 -250 c 0
 150 -222 172 -200 200 -200 c 0
 228 -200 250 -222 250 -250 c 0
 250 -278 228 -300 200 -300 c 0x8080
EndSplineSet
EndChar

StartChar: Gdotaccent
Encoding: 288 288 35
Width: 600
GlyphClass: 1
Flags: MW
HStem: 0 100<186 400 200 400> 150 100<86 114 486 514> 300 100<86 114 300 500> 450 100<86 114> 600 100<186 500 200 500> 900 100<286 314>
VStem: 50 100<186 214 336 364 486 514> 250 100<936 964> 450 100<186 214>
LayerCount: 2
Fore
SplineSet
300 900 m 0
 272 900 250 922 250 950 c 0
 250 978 272 1000 300 1000 c 0
 328 1000 350 978 350 950 c 0
 350 922 328 900 300 900 c 0
150 650 m 0
 150 678 172 700 200 700 c 2
 500 700 l 2
 528 700 550 678 550 650 c 0
 550 622 528 600 500 600 c 2
 200 600 l 2
 172 600 150 622 150 650 c 0
100 450 m 0
 72 450 50 472 50 500 c 0
 50 528 72 550 100 550 c 0
 128 550 150 528 150 500 c 0
 150 472 128 450 100 450 c 0
100 300 m 0
 72 300 50 322 50 350 c 0
 50 378 72 400 100 400 c 0
 128 400 150 378 150 350 c 0
 150 322 128 300 100 300 c 0
250 350 m 0
 250 378 272 400 300 400 c 2
 500 400 l 2
 528 400 550 378 550 350 c 0
 550 322 528 300 500 300 c 2
 300 300 l 2
 272 300 250 322 250 350 c 0
100 150 m 0
 72 150 50 172 50 200 c 0
 50 228 72 250 100 250 c 0
 128 250 150 228 150 200 c 0
 150 172 128 150 100 150 c 0
500 150 m 0
 472 150 450 172 450 200 c 0
 450 228 472 250 500 250 c 0
 528 250 550 228 550 200 c 0
 550 172 528 150 500 150 c 0
150 50 m 0
 150 78 172 100 200 100 c 2
 400 100 l 2
 428 100 450 78 450 50 c 0
 450 22 428 0 400 0 c 2
 200 0 l 2
 172 0 150 22 150 50 c 0
EndSplineSet
EndChar

StartChar: H
Encoding: 72 72 36
Width: 600
GlyphClass: 1
Flags: MW
HStem: 0 100<86 114 486 514> 150 100<86 114 486 514> 300 100<86 500 100 500> 450 100<86 114 486 514> 600 100<86 114 486 514>
VStem: 50 100<36 64 186 214 486 514 636 664> 450 100<36 64 186 214 486 514 636 664>
LayerCount: 2
Fore
SplineSet
100 600 m 0
 72 600 50 622 50 650 c 0
 50 678 72 700 100 700 c 0
 128 700 150 678 150 650 c 0
 150 622 128 600 100 600 c 0
500 600 m 0
 472 600 450 622 450 650 c 0
 450 678 472 700 500 700 c 0
 528 700 550 678 550 650 c 0
 550 622 528 600 500 600 c 0
100 450 m 0
 72 450 50 472 50 500 c 0
 50 528 72 550 100 550 c 0
 128 550 150 528 150 500 c 0
 150 472 128 450 100 450 c 0
500 450 m 0
 472 450 450 472 450 500 c 0
 450 528 472 550 500 550 c 0
 528 550 550 528 550 500 c 0
 550 472 528 450 500 450 c 0
50 350 m 0
 50 378 72 400 100 400 c 2
 500 400 l 2
 528 400 550 378 550 350 c 0
 550 322 528 300 500 300 c 2
 100 300 l 2
 72 300 50 322 50 350 c 0
100 150 m 0
 72 150 50 172 50 200 c 0
 50 228 72 250 100 250 c 0
 128 250 150 228 150 200 c 0
 150 172 128 150 100 150 c 0
500 150 m 0
 472 150 450 172 450 200 c 0
 450 228 472 250 500 250 c 0
 528 250 550 228 550 200 c 0
 550 172 528 150 500 150 c 0
100 0 m 0
 72 0 50 22 50 50 c 0
 50 78 72 100 100 100 c 0
 128 100 150 78 150 50 c 0
 150 22 128 0 100 0 c 0
500 0 m 0
 472 0 450 22 450 50 c 0
 450 78 472 100 500 100 c 0
 528 100 550 78 550 50 c 0
 550 22 528 0 500 0 c 0
EndSplineSet
EndChar

StartChar: Hbar
Encoding: 294 294 37
Width: 600
GlyphClass: 1
Flags: MW
HStem: 0 100<186 214 386 414> 150 100<186 214 386 414> 300 100<186 400 200 400> 450 100<86 500 100 500> 600 100<186 214 386 414>
VStem: 150 100<36 64 186 214 636 664> 350 100<36 64 186 214 636 664>
LayerCount: 2
Fore
SplineSet
200 600 m 0
 172 600 150 622 150 650 c 0
 150 678 172 700 200 700 c 0
 228 700 250 678 250 650 c 0
 250 622 228 600 200 600 c 0
400 600 m 0
 372 600 350 622 350 650 c 0
 350 678 372 700 400 700 c 0
 428 700 450 678 450 650 c 0
 450 622 428 600 400 600 c 0
50 500 m 0
 50 528 72 550 100 550 c 2
 500 550 l 2
 528 550 550 528 550 500 c 0
 550 472 528 450 500 450 c 2
 100 450 l 2
 72 450 50 472 50 500 c 0
150 350 m 0
 150 378 172 400 200 400 c 2
 400 400 l 2
 428 400 450 378 450 350 c 0
 450 322 428 300 400 300 c 2
 200 300 l 2
 172 300 150 322 150 350 c 0
200 150 m 0
 172 150 150 172 150 200 c 0
 150 228 172 250 200 250 c 0
 228 250 250 228 250 200 c 0
 250 172 228 150 200 150 c 0
400 150 m 0
 372 150 350 172 350 200 c 0
 350 228 372 250 400 250 c 0
 428 250 450 228 450 200 c 0
 450 172 428 150 400 150 c 0
200 0 m 0
 172 0 150 22 150 50 c 0
 150 78 172 100 200 100 c 0
 228 100 250 78 250 50 c 0
 250 22 228 0 200 0 c 0
400 0 m 0
 372 0 350 22 350 50 c 0
 350 78 372 100 400 100 c 0
 428 100 450 78 450 50 c 0
 450 22 428 0 400 0 c 0
EndSplineSet
EndChar

StartChar: I
Encoding: 73 73 38
Width: 400
GlyphClass: 1
Flags: MW
HStem: 0 100<86 300 100 300> 150 100<186 214> 300 100<186 214> 450 100<186 214> 600 100<86 300 100 300>
VStem: 150 100<186 214 336 364 486 514>
LayerCount: 2
Fore
SplineSet
50 650 m 0
 50 678 72 700 100 700 c 2
 300 700 l 2
 328 700 350 678 350 650 c 0
 350 622 328 600 300 600 c 2
 100 600 l 2
 72 600 50 622 50 650 c 0
200 450 m 0
 172 450 150 472 150 500 c 0
 150 528 172 550 200 550 c 0
 228 550 250 528 250 500 c 0
 250 472 228 450 200 450 c 0
200 300 m 0
 172 300 150 322 150 350 c 0
 150 378 172 400 200 400 c 0
 228 400 250 378 250 350 c 0
 250 322 228 300 200 300 c 0
200 150 m 0
 172 150 150 172 150 200 c 0
 150 228 172 250 200 250 c 0
 228 250 250 228 250 200 c 0
 250 172 228 150 200 150 c 0
50 50 m 0
 50 78 72 100 100 100 c 2
 300 100 l 2
 328 100 350 78 350 50 c 0
 350 22 328 0 300 0 c 2
 100 0 l 2
 72 0 50 22 50 50 c 0
EndSplineSet
EndChar

StartChar: Iacute
Encoding: 205 205 39
Width: 400
GlyphClass: 1
Flags: MW
HStem: 0 100<86 300 100 300> 150 100<186 214> 300 100<186 214> 450 100<186 214> 600 100<86 300 100 300> 750 100<186 214> 900 100<286 314>
VStem: 150 100<186 214 336 364 486 514 786 814> 250 100<936 964>
LayerCount: 2
Fore
SplineSet
300 900 m 0x0280
 272 900 250 922 250 950 c 0
 250 978 272 1000 300 1000 c 0
 328 1000 350 978 350 950 c 0
 350 922 328 900 300 900 c 0x0280
200 750 m 0x0d
 172 750 150 772 150 800 c 0
 150 828 172 850 200 850 c 0
 228 850 250 828 250 800 c 0
 250 772 228 750 200 750 c 0x0d
50 650 m 0
 50 678 72 700 100 700 c 2
 300 700 l 2
 328 700 350 678 350 650 c 0
 350 622 328 600 300 600 c 2x0880
 100 600 l 2
 72 600 50 622 50 650 c 0
200 450 m 0xf1
 172 450 150 472 150 500 c 0
 150 528 172 550 200 550 c 0
 228 550 250 528 250 500 c 0
 250 472 228 450 200 450 c 0xf1
200 300 m 0
 172 300 150 322 150 350 c 0
 150 378 172 400 200 400 c 0
 228 400 250 378 250 350 c 0
 250 322 228 300 200 300 c 0
200 150 m 0
 172 150 150 172 150 200 c 0
 150 228 172 250 200 250 c 0
 228 250 250 228 250 200 c 0
 250 172 228 150 200 150 c 0
50 50 m 0
 50 78 72 100 100 100 c 2
 300 100 l 2
 328 100 350 78 350 50 c 0
 350 22 328 0 300 0 c 2x8080
 100 0 l 2
 72 0 50 22 50 50 c 0
EndSplineSet
EndChar

StartChar: Icircumflex
Encoding: 206 206 40
Width: 400
GlyphClass: 1
Flags: MW
HStem: 0 100<86 300 100 300> 150 100<186 214> 300 100<186 214> 450 100<186 214> 600 100<86 300 100 300> 750 100<86 114 286 314> 900 100<186 214>
VStem: 50 100<786 814> 150 100<186 214 336 364 486 514 786 814 936 964> 250 100<786 814>
LayerCount: 2
Fore
SplineSet
200 900 m 0xfe80
 172 900 150 922 150 950 c 0
 150 978 172 1000 200 1000 c 0
 228 1000 250 978 250 950 c 0
 250 922 228 900 200 900 c 0xfe80
100 750 m 0x0d40
 72 750 50 772 50 800 c 0
 50 828 72 850 100 850 c 0
 128 850 150 828 150 800 c 0
 150 772 128 750 100 750 c 0x0d40
300 750 m 0
 272 750 250 772 250 800 c 0
 250 828 272 850 300 850 c 0
 328 850 350 828 350 800 c 0
 350 772 328 750 300 750 c 0
50 650 m 0
 50 678 72 700 100 700 c 2
 300 700 l 2
 328 700 350 678 350 650 c 0
 350 622 328 600 300 600 c 2
 100 600 l 2
 72 600 50 622 50 650 c 0
200 450 m 0x7080
 172 450 150 472 150 500 c 0
 150 528 172 550 200 550 c 0
 228 550 250 528 250 500 c 0
 250 472 228 450 200 450 c 0x7080
200 300 m 0
 172 300 150 322 150 350 c 0
 150 378 172 400 200 400 c 0
 228 400 250 378 250 350 c 0
 250 322 228 300 200 300 c 0
200 150 m 0
 172 150 150 172 150 200 c 0
 150 228 172 250 200 250 c 0
 228 250 250 228 250 200 c 0
 250 172 228 150 200 150 c 0
50 50 m 0x8140
 50 78 72 100 100 100 c 2
 300 100 l 2
 328 100 350 78 350 50 c 0
 350 22 328 0 300 0 c 2
 100 0 l 2
 72 0 50 22 50 50 c 0x8140
EndSplineSet
EndChar

StartChar: Idieresis
Encoding: 207 207 41
Width: 400
GlyphClass: 1
Flags: MW
HStem: 0 100<86 300 100 300> 150 100<186 214> 300 100<186 214> 450 100<186 214> 600 100<86 300 100 300> 900 100<86 114 286 314>
VStem: 50 100<936 964> 150 100<186 214 336 364 486 514 936 964> 250 100<936 964>
LayerCount: 2
Fore
SplineSet
100 900 m 0x0e80
 72 900 50 922 50 950 c 0
 50 978 72 1000 100 1000 c 0
 128 1000 150 978 150 950 c 0
 150 922 128 900 100 900 c 0x0e80
300 900 m 0
 272 900 250 922 250 950 c 0
 250 978 272 1000 300 1000 c 0
 328 1000 350 978 350 950 c 0
 350 922 328 900 300 900 c 0
50 650 m 0
 50 678 72 700 100 700 c 2
 300 700 l 2
 328 700 350 678 350 650 c 0
 350 622 328 600 300 600 c 2
 100 600 l 2
 72 600 50 622 50 650 c 0
200 450 m 0x71
 172 450 150 472 150 500 c 0
 150 528 172 550 200 550 c 0
 228 550 250 528 250 500 c 0
 250 472 228 450 200 450 c 0x71
200 300 m 0
 172 300 150 322 150 350 c 0
 150 378 172 400 200 400 c 0
 228 400 250 378 250 350 c 0
 250 322 228 300 200 300 c 0
200 150 m 0
 172 150 150 172 150 200 c 0
 150 228 172 250 200 250 c 0
 228 250 250 228 250 200 c 0
 250 172 228 150 200 150 c 0
50 50 m 0x8280
 50 78 72 100 100 100 c 2
 300 100 l 2
 328 100 350 78 350 50 c 0
 350 22 328 0 300 0 c 2
 100 0 l 2
 72 0 50 22 50 50 c 0x8280
EndSplineSet
EndChar

StartChar: Idotaccent
Encoding: 304 304 42
Width: 400
GlyphClass: 1
Flags: MW
HStem: 0 100<86 300 100 300> 150 100<186 214> 300 100<186 214> 450 100<186 214> 600 100<86 300 100 300> 900 100<186 214>
VStem: 150 100<186 214 336 364 486 514 936 964>
LayerCount: 2
Fore
SplineSet
200 900 m 0
 172 900 150 922 150 950 c 0
 150 978 172 1000 200 1000 c 0
 228 1000 250 978 250 950 c 0
 250 922 228 900 200 900 c 0
50 650 m 0
 50 678 72 700 100 700 c 2
 300 700 l 2
 328 700 350 678 350 650 c 0
 350 622 328 600 300 600 c 2
 100 600 l 2
 72 600 50 622 50 650 c 0
200 450 m 0
 172 450 150 472 150 500 c 0
 150 528 172 550 200 550 c 0
 228 550 250 528 250 500 c 0
 250 472 228 450 200 450 c 0
200 300 m 0
 172 300 150 322 150 350 c 0
 150 378 172 400 200 400 c 0
 228 400 250 378 250 350 c 0
 250 322 228 300 200 300 c 0
200 150 m 0
 172 150 150 172 150 200 c 0
 150 228 172 250 200 250 c 0
 228 250 250 228 250 200 c 0
 250 172 228 150 200 150 c 0
50 50 m 0
 50 78 72 100 100 100 c 2
 300 100 l 2
 328 100 350 78 350 50 c 0
 350 22 328 0 300 0 c 2
 100 0 l 2
 72 0 50 22 50 50 c 0
EndSplineSet
EndChar

StartChar: Igrave
Encoding: 204 204 43
Width: 400
GlyphClass: 1
Flags: MW
HStem: 0 100<86 300 100 300> 150 100<186 214> 300 100<186 214> 450 100<186 214> 600 100<86 300 100 300> 750 100<186 214> 900 100<86 114>
VStem: 50 100<936 964> 150 100<186 214 336 364 486 514 786 814>
LayerCount: 2
Fore
SplineSet
100 900 m 0x03
 72 900 50 922 50 950 c 0
 50 978 72 1000 100 1000 c 0
 128 1000 150 978 150 950 c 0
 150 922 128 900 100 900 c 0x03
200 750 m 0x0480
 172 750 150 772 150 800 c 0
 150 828 172 850 200 850 c 0
 228 850 250 828 250 800 c 0
 250 772 228 750 200 750 c 0x0480
50 650 m 0x09
 50 678 72 700 100 700 c 2
 300 700 l 2
 328 700 350 678 350 650 c 0
 350 622 328 600 300 600 c 2
 100 600 l 2
 72 600 50 622 50 650 c 0x09
200 450 m 0x7080
 172 450 150 472 150 500 c 0
 150 528 172 550 200 550 c 0
 228 550 250 528 250 500 c 0
 250 472 228 450 200 450 c 0x7080
200 300 m 0
 172 300 150 322 150 350 c 0
 150 378 172 400 200 400 c 0
 228 400 250 378 250 350 c 0
 250 322 228 300 200 300 c 0
200 150 m 0
 172 150 150 172 150 200 c 0
 150 228 172 250 200 250 c 0
 228 250 250 228 250 200 c 0
 250 172 228 150 200 150 c 0
50 50 m 0x81
 50 78 72 100 100 100 c 2
 300 100 l 2
 328 100 350 78 350 50 c 0
 350 22 328 0 300 0 c 2
 100 0 l 2
 72 0 50 22 50 50 c 0x81
EndSplineSet
EndChar

StartChar: Imacron
Encoding: 298 298 44
Width: 400
GlyphClass: 1
Flags: MW
HStem: 0 100<86 300 100 300> 150 100<186 214> 300 100<186 214> 450 100<186 214> 600 100<86 300 100 300> 900 100<86 300 100 300>
VStem: 150 100<186 214 336 364 486 514>
LayerCount: 2
Fore
SplineSet
50 950 m 0
 50 978 72 1000 100 1000 c 2
 300 1000 l 2
 328 1000 350 978 350 950 c 0
 350 922 328 900 300 900 c 2
 100 900 l 2
 72 900 50 922 50 950 c 0
50 650 m 0
 50 678 72 700 100 700 c 2
 300 700 l 2
 328 700 350 678 350 650 c 0
 350 622 328 600 300 600 c 2
 100 600 l 2
 72 600 50 622 50 650 c 0
200 450 m 0
 172 450 150 472 150 500 c 0
 150 528 172 550 200 550 c 0
 228 550 250 528 250 500 c 0
 250 472 228 450 200 450 c 0
200 300 m 0
 172 300 150 322 150 350 c 0
 150 378 172 400 200 400 c 0
 228 400 250 378 250 350 c 0
 250 322 228 300 200 300 c 0
200 150 m 0
 172 150 150 172 150 200 c 0
 150 228 172 250 200 250 c 0
 228 250 250 228 250 200 c 0
 250 172 228 150 200 150 c 0
50 50 m 0
 50 78 72 100 100 100 c 2
 300 100 l 2
 328 100 350 78 350 50 c 0
 350 22 328 0 300 0 c 2
 100 0 l 2
 72 0 50 22 50 50 c 0
EndSplineSet
EndChar

StartChar: Iogonek
Encoding: 302 302 45
Width: 400
GlyphClass: 1
Flags: MW
HStem: -300 100<186 300 200 300> -150 100<186 214> 0 100<86 300 100 300> 150 100<186 214> 300 100<186 214> 450 100<186 214> 600 100<86 300 100 300>
VStem: 150 100<-114 -86 186 214 336 364 486 514>
LayerCount: 2
Fore
SplineSet
50 650 m 0
 50 678 72 700 100 700 c 2
 300 700 l 2
 328 700 350 678 350 650 c 0
 350 622 328 600 300 600 c 2
 100 600 l 2
 72 600 50 622 50 650 c 0
200 450 m 0
 172 450 150 472 150 500 c 0
 150 528 172 550 200 550 c 0
 228 550 250 528 250 500 c 0
 250 472 228 450 200 450 c 0
200 300 m 0
 172 300 150 322 150 350 c 0
 150 378 172 400 200 400 c 0
 228 400 250 378 250 350 c 0
 250 322 228 300 200 300 c 0
200 150 m 0
 172 150 150 172 150 200 c 0
 150 228 172 250 200 250 c 0
 228 250 250 228 250 200 c 0
 250 172 228 150 200 150 c 0
50 50 m 0
 50 78 72 100 100 100 c 2
 300 100 l 2
 328 100 350 78 350 50 c 0
 350 22 328 0 300 0 c 2
 100 0 l 2
 72 0 50 22 50 50 c 0
200 -150 m 0
 172 -150 150 -128 150 -100 c 0
 150 -72 172 -50 200 -50 c 0
 228 -50 250 -72 250 -100 c 0
 250 -128 228 -150 200 -150 c 0
150 -250 m 0
 150 -222 172 -200 200 -200 c 2
 300 -200 l 2
 328 -200 350 -222 350 -250 c 0
 350 -278 328 -300 300 -300 c 2
 200 -300 l 2
 172 -300 150 -278 150 -250 c 0
EndSplineSet
EndChar

StartChar: J
Encoding: 74 74 46
Width: 600
GlyphClass: 1
Flags: MW
HStem: 0 100<186 400 200 400> 150 100<86 114 486 514> 300 100<486 514> 450 100<486 514> 600 100<486 514>
VStem: 50 100<186 214> 450 100<186 214 336 364 486 514 636 664>
LayerCount: 2
Fore
SplineSet
500 600 m 0
 472 600 450 622 450 650 c 0
 450 678 472 700 500 700 c 0
 528 700 550 678 550 650 c 0
 550 622 528 600 500 600 c 0
500 450 m 0
 472 450 450 472 450 500 c 0
 450 528 472 550 500 550 c 0
 528 550 550 528 550 500 c 0
 550 472 528 450 500 450 c 0
500 300 m 0
 472 300 450 322 450 350 c 0
 450 378 472 400 500 400 c 0
 528 400 550 378 550 350 c 0
 550 322 528 300 500 300 c 0
100 150 m 0
 72 150 50 172 50 200 c 0
 50 228 72 250 100 250 c 0
 128 250 150 228 150 200 c 0
 150 172 128 150 100 150 c 0
500 150 m 0
 472 150 450 172 450 200 c 0
 450 228 472 250 500 250 c 0
 528 250 550 228 550 200 c 0
 550 172 528 150 500 150 c 0
150 50 m 0
 150 78 172 100 200 100 c 2
 400 100 l 2
 428 100 450 78 450 50 c 0
 450 22 428 0 400 0 c 2
 200 0 l 2
 172 0 150 22 150 50 c 0
EndSplineSet
EndChar

StartChar: K
Encoding: 75 75 47
Width: 600
GlyphClass: 1
Flags: MW
HStem: 0 100<86 114 486 514> 150 100<86 200 100 200 386 414> 300 100<86 114 286 314> 450 100<86 114 386 414> 600 100<86 114 486 514>
VStem: 50 100<36 64 336 364 486 514 636 664> 250 100<186 214 336 364> 350 100<186 214 486 514> 450 100<36 64 636 664>
LayerCount: 2
Fore
SplineSet
100 600 m 0xfd
 72 600 50 622 50 650 c 0
 50 678 72 700 100 700 c 0
 128 700 150 678 150 650 c 0
 150 622 128 600 100 600 c 0xfd
500 600 m 0x1c80
 472 600 450 622 450 650 c 0
 450 678 472 700 500 700 c 0
 528 700 550 678 550 650 c 0
 550 622 528 600 500 600 c 0x1c80
100 450 m 0
 72 450 50 472 50 500 c 0
 50 528 72 550 100 550 c 0
 128 550 150 528 150 500 c 0
 150 472 128 450 100 450 c 0
400 450 m 0x35
 372 450 350 472 350 500 c 0
 350 528 372 550 400 550 c 0
 428 550 450 528 450 500 c 0
 450 472 428 450 400 450 c 0x35
100 300 m 0
 72 300 50 322 50 350 c 0
 50 378 72 400 100 400 c 0
 128 400 150 378 150 350 c 0
 150 322 128 300 100 300 c 0
300 300 m 0x66
 272 300 250 322 250 350 c 0
 250 378 272 400 300 400 c 0
 328 400 350 378 350 350 c 0
 350 322 328 300 300 300 c 0x66
50 200 m 0
 50 228 72 250 100 250 c 2
 200 250 l 2
 228 250 250 228 250 200 c 0
 250 172 228 150 200 150 c 2
 100 150 l 2
 72 150 50 172 50 200 c 0
400 150 m 0xc5
 372 150 350 172 350 200 c 0
 350 228 372 250 400 250 c 0
 428 250 450 228 450 200 c 0
 450 172 428 150 400 150 c 0xc5
100 0 m 0
 72 0 50 22 50 50 c 0
 50 78 72 100 100 100 c 0
 128 100 150 78 150 50 c 0
 150 22 128 0 100 0 c 0
500 0 m 0x8080
 472 0 450 22 450 50 c 0
 450 78 472 100 500 100 c 0
 528 100 550 78 550 50 c 0
 550 22 528 0 500 0 c 0x8080
EndSplineSet
EndChar

StartChar: uni0136
Encoding: 310 310 48
Width: 600
GlyphClass: 1
Flags: MW
HStem: -300 100<186 214> -150 100<286 314> 0 100<86 114 486 514> 150 100<86 200 100 200 386 414> 300 100<86 114 286 314> 450 100<86 114 386 414> 600 100<86 114 486 514>
VStem: 50 100<36 64 336 364 486 514 636 664> 150 100<-264 -236 336 364> 250 100<-114 -86 186 214 336 364> 350 100<186 214 486 514> 450 100<36 64 636 664>
LayerCount: 2
Fore
SplineSet
100 600 m 0xff50
 72 600 50 622 50 650 c 0
 50 678 72 700 100 700 c 0
 128 700 150 678 150 650 c 0
 150 622 128 600 100 600 c 0xff50
500 600 m 0
 472 600 450 622 450 650 c 0
 450 678 472 700 500 700 c 0
 528 700 550 678 550 650 c 0
 550 622 528 600 500 600 c 0
100 450 m 0
 72 450 50 472 50 500 c 0
 50 528 72 550 100 550 c 0
 128 550 150 528 150 500 c 0
 150 472 128 450 100 450 c 0
400 450 m 0x0d20
 372 450 350 472 350 500 c 0
 350 528 372 550 400 550 c 0
 428 550 450 528 450 500 c 0
 450 472 428 450 400 450 c 0x0d20
100 300 m 0
 72 300 50 322 50 350 c 0
 50 378 72 400 100 400 c 0
 128 400 150 378 150 350 c 0
 150 322 128 300 100 300 c 0
300 300 m 0x1940
 272 300 250 322 250 350 c 0
 250 378 272 400 300 400 c 0
 328 400 350 378 350 350 c 0
 350 322 328 300 300 300 c 0x1940
50 200 m 0
 50 228 72 250 100 250 c 2x11
 200 250 l 2
 228 250 250 228 250 200 c 0
 250 172 228 150 200 150 c 2x1080
 100 150 l 2
 72 150 50 172 50 200 c 0
400 150 m 0x3120
 372 150 350 172 350 200 c 0
 350 228 372 250 400 250 c 0
 428 250 450 228 450 200 c 0
 450 172 428 150 400 150 c 0x3120
100 0 m 0
 72 0 50 22 50 50 c 0
 50 78 72 100 100 100 c 0
 128 100 150 78 150 50 c 0
 150 22 128 0 100 0 c 0
500 0 m 0x6050
 472 0 450 22 450 50 c 0
 450 78 472 100 500 100 c 0
 528 100 550 78 550 50 c 0
 550 22 528 0 500 0 c 0x6050
300 -150 m 0
 272 -150 250 -128 250 -100 c 0
 250 -72 272 -50 300 -50 c 0
 328 -50 350 -72 350 -100 c 0
 350 -128 328 -150 300 -150 c 0
200 -300 m 0x8080
 172 -300 150 -278 150 -250 c 0
 150 -222 172 -200 200 -200 c 0
 228 -200 250 -222 250 -250 c 0
 250 -278 228 -300 200 -300 c 0x8080
EndSplineSet
EndChar

StartChar: L
Encoding: 76 76 49
Width: 600
GlyphClass: 1
Flags: MW
HStem: 0 100<86 500 100 500> 150 100<86 114> 300 100<86 114> 450 100<86 114> 600 100<86 114>
VStem: 50 100<186 214 336 364 486 514 636 664>
LayerCount: 2
Fore
SplineSet
100 600 m 0
 72 600 50 622 50 650 c 0
 50 678 72 700 100 700 c 0
 128 700 150 678 150 650 c 0
 150 622 128 600 100 600 c 0
100 450 m 0
 72 450 50 472 50 500 c 0
 50 528 72 550 100 550 c 0
 128 550 150 528 150 500 c 0
 150 472 128 450 100 450 c 0
100 300 m 0
 72 300 50 322 50 350 c 0
 50 378 72 400 100 400 c 0
 128 400 150 378 150 350 c 0
 150 322 128 300 100 300 c 0
100 150 m 0
 72 150 50 172 50 200 c 0
 50 228 72 250 100 250 c 0
 128 250 150 228 150 200 c 0
 150 172 128 150 100 150 c 0
50 50 m 0
 50 78 72 100 100 100 c 2
 500 100 l 2
 528 100 550 78 550 50 c 0
 550 22 528 0 500 0 c 2
 100 0 l 2
 72 0 50 22 50 50 c 0
EndSplineSet
EndChar

StartChar: Lacute
Encoding: 313 313 50
Width: 600
GlyphClass: 1
Flags: MW
HStem: 0 100<86 500 100 500> 150 100<86 114> 300 100<86 114> 450 100<86 114> 600 100<86 114> 750 100<286 314> 900 100<386 414>
VStem: 50 100<186 214 336 364 486 514 636 664> 250 100<786 814> 350 100<936 964>
LayerCount: 2
Fore
SplineSet
400 900 m 0x0240
 372 900 350 922 350 950 c 0
 350 978 372 1000 400 1000 c 0
 428 1000 450 978 450 950 c 0
 450 922 428 900 400 900 c 0x0240
300 750 m 0xfd80
 272 750 250 772 250 800 c 0
 250 828 272 850 300 850 c 0
 328 850 350 828 350 800 c 0
 350 772 328 750 300 750 c 0xfd80
100 600 m 0
 72 600 50 622 50 650 c 0
 50 678 72 700 100 700 c 0
 128 700 150 678 150 650 c 0
 150 622 128 600 100 600 c 0
100 450 m 0
 72 450 50 472 50 500 c 0
 50 528 72 550 100 550 c 0
 128 550 150 528 150 500 c 0
 150 472 128 450 100 450 c 0
100 300 m 0
 72 300 50 322 50 350 c 0
 50 378 72 400 100 400 c 0
 128 400 150 378 150 350 c 0
 150 322 128 300 100 300 c 0
100 150 m 0
 72 150 50 172 50 200 c 0
 50 228 72 250 100 250 c 0
 128 250 150 228 150 200 c 0
 150 172 128 150 100 150 c 0
50 50 m 0
 50 78 72 100 100 100 c 2
 500 100 l 2
 528 100 550 78 550 50 c 0
 550 22 528 0 500 0 c 2
 100 0 l 2
 72 0 50 22 50 50 c 0
EndSplineSet
EndChar

StartChar: Lcaron
Encoding: 317 317 51
Width: 600
GlyphClass: 1
Flags: MW
HStem: 0 100<86 500 100 500> 150 100<86 114> 300 100<86 114> 450 100<86 114> 600 100<86 114 286 314> 750 100<286 314>
VStem: 50 100<186 214 336 364 486 514 636 664> 250 100<636 664 786 814>
LayerCount: 2
Fore
SplineSet
300 750 m 0
 272 750 250 772 250 800 c 0
 250 828 272 850 300 850 c 0
 328 850 350 828 350 800 c 0
 350 772 328 750 300 750 c 0
100 600 m 0
 72 600 50 622 50 650 c 0
 50 678 72 700 100 700 c 0
 128 700 150 678 150 650 c 0
 150 622 128 600 100 600 c 0
300 600 m 0
 272 600 250 622 250 650 c 0
 250 678 272 700 300 700 c 0
 328 700 350 678 350 650 c 0
 350 622 328 600 300 600 c 0
100 450 m 0
 72 450 50 472 50 500 c 0
 50 528 72 550 100 550 c 0
 128 550 150 528 150 500 c 0
 150 472 128 450 100 450 c 0
100 300 m 0
 72 300 50 322 50 350 c 0
 50 378 72 400 100 400 c 0
 128 400 150 378 150 350 c 0
 150 322 128 300 100 300 c 0
100 150 m 0
 72 150 50 172 50 200 c 0
 50 228 72 250 100 250 c 0
 128 250 150 228 150 200 c 0
 150 172 128 150 100 150 c 0
50 50 m 0
 50 78 72 100 100 100 c 2
 500 100 l 2
 528 100 550 78 550 50 c 0
 550 22 528 0 500 0 c 2
 100 0 l 2
 72 0 50 22 50 50 c 0
EndSplineSet
EndChar

StartChar: uni013B
Encoding: 315 315 52
Width: 600
GlyphClass: 1
Flags: MW
HStem: -300 100<186 214> -150 100<286 314> 0 100<86 500 100 500> 150 100<86 114> 300 100<86 114> 450 100<86 114> 600 100<86 114>
VStem: 50 100<186 214 336 364 486 514 636 664> 150 100<-264 -236> 250 100<-114 -86>
LayerCount: 2
Fore
SplineSet
100 600 m 0xff40
 72 600 50 622 50 650 c 0
 50 678 72 700 100 700 c 0
 128 700 150 678 150 650 c 0
 150 622 128 600 100 600 c 0xff40
100 450 m 0
 72 450 50 472 50 500 c 0
 50 528 72 550 100 550 c 0
 128 550 150 528 150 500 c 0
 150 472 128 450 100 450 c 0
100 300 m 0
 72 300 50 322 50 350 c 0
 50 378 72 400 100 400 c 0
 128 400 150 378 150 350 c 0
 150 322 128 300 100 300 c 0
100 150 m 0
 72 150 50 172 50 200 c 0
 50 228 72 250 100 250 c 0
 128 250 150 228 150 200 c 0
 150 172 128 150 100 150 c 0
50 50 m 0
 50 78 72 100 100 100 c 2
 500 100 l 2
 528 100 550 78 550 50 c 0
 550 22 528 0 500 0 c 2
 100 0 l 2
 72 0 50 22 50 50 c 0
300 -150 m 0
 272 -150 250 -128 250 -100 c 0
 250 -72 272 -50 300 -50 c 0
 328 -50 350 -72 350 -100 c 0
 350 -128 328 -150 300 -150 c 0
200 -300 m 0x8080
 172 -300 150 -278 150 -250 c 0
 150 -222 172 -200 200 -200 c 0
 228 -200 250 -222 250 -250 c 0
 250 -278 228 -300 200 -300 c 0x8080
EndSplineSet
EndChar

StartChar: Lslash
Encoding: 321 321 53
Width: 600
GlyphClass: 1
Flags: MW
HStem: 0 100<186 500 200 500> 150 100<86 200 100 200> 300 100<186 214> 450 100<186 300 200 300> 600 100<186 214 386 414>
VStem: 150 100<336 364 636 664> 350 100<636 664>
LayerCount: 2
Fore
SplineSet
200 600 m 0
 172 600 150 622 150 650 c 0
 150 678 172 700 200 700 c 0
 228 700 250 678 250 650 c 0
 250 622 228 600 200 600 c 0
400 600 m 0
 372 600 350 622 350 650 c 0
 350 678 372 700 400 700 c 0
 428 700 450 678 450 650 c 0
 450 622 428 600 400 600 c 0
150 500 m 0
 150 528 172 550 200 550 c 2
 300 550 l 2
 328 550 350 528 350 500 c 0
 350 472 328 450 300 450 c 2
 200 450 l 2
 172 450 150 472 150 500 c 0
200 300 m 0
 172 300 150 322 150 350 c 0
 150 378 172 400 200 400 c 0
 228 400 250 378 250 350 c 0
 250 322 228 300 200 300 c 0
50 200 m 0
 50 228 72 250 100 250 c 2
 200 250 l 2
 228 250 250 228 250 200 c 0
 250 172 228 150 200 150 c 2
 100 150 l 2
 72 150 50 172 50 200 c 0
150 50 m 0
 150 78 172 100 200 100 c 2
 500 100 l 2
 528 100 550 78 550 50 c 0
 550 22 528 0 500 0 c 2
 200 0 l 2
 172 0 150 22 150 50 c 0
EndSplineSet
EndChar

StartChar: M
Encoding: 77 77 54
Width: 600
GlyphClass: 1
Flags: MW
HStem: 0 100<86 114 486 514> 150 100<86 114 486 514> 300 100<86 114 286 314 486 514> 450 100<86 200 100 200 400 500> 600 100<86 114 486 514>
VStem: 50 100<36 64 186 214 336 364 636 664> 250 100<336 364 486 514> 450 100<36 64 186 214 336 364 636 664>
LayerCount: 2
Fore
SplineSet
100 600 m 0
 72 600 50 622 50 650 c 0
 50 678 72 700 100 700 c 0
 128 700 150 678 150 650 c 0
 150 622 128 600 100 600 c 0
500 600 m 0
 472 600 450 622 450 650 c 0
 450 678 472 700 500 700 c 0
 528 700 550 678 550 650 c 0
 550 622 528 600 500 600 c 0
50 500 m 0
 50 528 72 550 100 550 c 2
 200 550 l 2
 228 550 250 528 250 500 c 0
 250 472 228 450 200 450 c 2
 100 450 l 2
 72 450 50 472 50 500 c 0
350 500 m 0
 350 528 372 550 400 550 c 2
 500 550 l 2
 528 550 550 528 550 500 c 0
 550 472 528 450 500 450 c 2
 400 450 l 2
 372 450 350 472 350 500 c 0
100 300 m 0
 72 300 50 322 50 350 c 0
 50 378 72 400 100 400 c 0
 128 400 150 378 150 350 c 0
 150 322 128 300 100 300 c 0
300 300 m 0
 272 300 250 322 250 350 c 0
 250 378 272 400 300 400 c 0
 328 400 350 378 350 350 c 0
 350 322 328 300 300 300 c 0
500 300 m 0
 472 300 450 322 450 350 c 0
 450 378 472 400 500 400 c 0
 528 400 550 378 550 350 c 0
 550 322 528 300 500 300 c 0
100 150 m 0
 72 150 50 172 50 200 c 0
 50 228 72 250 100 250 c 0
 128 250 150 228 150 200 c 0
 150 172 128 150 100 150 c 0
500 150 m 0
 472 150 450 172 450 200 c 0
 450 228 472 250 500 250 c 0
 528 250 550 228 550 200 c 0
 550 172 528 150 500 150 c 0
100 0 m 0
 72 0 50 22 50 50 c 0
 50 78 72 100 100 100 c 0
 128 100 150 78 150 50 c 0
 150 22 128 0 100 0 c 0
500 0 m 0
 472 0 450 22 450 50 c 0
 450 78 472 100 500 100 c 0
 528 100 550 78 550 50 c 0
 550 22 528 0 500 0 c 0
EndSplineSet
EndChar

StartChar: N
Encoding: 78 78 55
Width: 600
GlyphClass: 1
Flags: MW
HStem: 0 100<86 114 486 514> 150 100<86 114 400 500> 300 100<86 114 286 314 486 514> 450 100<86 200 100 200 486 514> 600 100<86 114 486 514>
VStem: 50 100<36 64 186 214 336 364 636 664> 250 100<336 364> 450 100<36 64 336 364 486 514 636 664>
LayerCount: 2
Fore
SplineSet
100 600 m 0
 72 600 50 622 50 650 c 0
 50 678 72 700 100 700 c 0
 128 700 150 678 150 650 c 0
 150 622 128 600 100 600 c 0
500 600 m 0
 472 600 450 622 450 650 c 0
 450 678 472 700 500 700 c 0
 528 700 550 678 550 650 c 0
 550 622 528 600 500 600 c 0
50 500 m 0
 50 528 72 550 100 550 c 2
 200 550 l 2
 228 550 250 528 250 500 c 0
 250 472 228 450 200 450 c 2
 100 450 l 2
 72 450 50 472 50 500 c 0
500 450 m 0
 472 450 450 472 450 500 c 0
 450 528 472 550 500 550 c 0
 528 550 550 528 550 500 c 0
 550 472 528 450 500 450 c 0
100 300 m 0
 72 300 50 322 50 350 c 0
 50 378 72 400 100 400 c 0
 128 400 150 378 150 350 c 0
 150 322 128 300 100 300 c 0
300 300 m 0
 272 300 250 322 250 350 c 0
 250 378 272 400 300 400 c 0
 328 400 350 378 350 350 c 0
 350 322 328 300 300 300 c 0
500 300 m 0
 472 300 450 322 450 350 c 0
 450 378 472 400 500 400 c 0
 528 400 550 378 550 350 c 0
 550 322 528 300 500 300 c 0
100 150 m 0
 72 150 50 172 50 200 c 0
 50 228 72 250 100 250 c 0
 128 250 150 228 150 200 c 0
 150 172 128 150 100 150 c 0
350 200 m 0
 350 228 372 250 400 250 c 2
 500 250 l 2
 528 250 550 228 550 200 c 0
 550 172 528 150 500 150 c 2
 400 150 l 2
 372 150 350 172 350 200 c 0
100 0 m 0
 72 0 50 22 50 50 c 0
 50 78 72 100 100 100 c 0
 128 100 150 78 150 50 c 0
 150 22 128 0 100 0 c 0
500 0 m 0
 472 0 450 22 450 50 c 0
 450 78 472 100 500 100 c 0
 528 100 550 78 550 50 c 0
 550 22 528 0 500 0 c 0
EndSplineSet
EndChar

StartChar: Nacute
Encoding: 323 323 56
Width: 600
GlyphClass: 1
Flags: MW
HStem: 0 100<86 114 486 514> 150 100<86 114 400 500> 300 100<86 114 286 314 486 514> 450 100<86 200 100 200 486 514> 600 100<86 114 486 514> 750 100<286 314> 900 100<386 414>
VStem: 50 100<36 64 186 214 336 364 636 664> 250 100<336 364 786 814> 350 100<336 364 936 964> 450 100<36 64 336 364 486 514 636 664>
LayerCount: 2
Fore
SplineSet
400 900 m 0x0240
 372 900 350 922 350 950 c 0
 350 978 372 1000 400 1000 c 0
 428 1000 450 978 450 950 c 0
 450 922 428 900 400 900 c 0x0240
300 750 m 0x7da0
 272 750 250 772 250 800 c 0
 250 828 272 850 300 850 c 0
 328 850 350 828 350 800 c 0
 350 772 328 750 300 750 c 0x7da0
100 600 m 0
 72 600 50 622 50 650 c 0
 50 678 72 700 100 700 c 0
 128 700 150 678 150 650 c 0
 150 622 128 600 100 600 c 0
500 600 m 0
 472 600 450 622 450 650 c 0
 450 678 472 700 500 700 c 0
 528 700 550 678 550 650 c 0
 550 622 528 600 500 600 c 0
50 500 m 0
 50 528 72 550 100 550 c 2
 200 550 l 2
 228 550 250 528 250 500 c 0
 250 472 228 450 200 450 c 2
 100 450 l 2
 72 450 50 472 50 500 c 0
500 450 m 0
 472 450 450 472 450 500 c 0
 450 528 472 550 500 550 c 0
 528 550 550 528 550 500 c 0
 550 472 528 450 500 450 c 0
100 300 m 0
 72 300 50 322 50 350 c 0
 50 378 72 400 100 400 c 0
 128 400 150 378 150 350 c 0
 150 322 128 300 100 300 c 0
300 300 m 0
 272 300 250 322 250 350 c 0
 250 378 272 400 300 400 c 0
 328 400 350 378 350 350 c 0
 350 322 328 300 300 300 c 0
500 300 m 0
 472 300 450 322 450 350 c 0
 450 378 472 400 500 400 c 0
 528 400 550 378 550 350 c 0
 550 322 528 300 500 300 c 0
100 150 m 0
 72 150 50 172 50 200 c 0
 50 228 72 250 100 250 c 0
 128 250 150 228 150 200 c 0
 150 172 128 150 100 150 c 0
350 200 m 0x4040
 350 228 372 250 400 250 c 2x4040
 500 250 l 2
 528 250 550 228 550 200 c 0
 550 172 528 150 500 150 c 2x4020
 400 150 l 2
 372 150 350 172 350 200 c 0x4040
100 0 m 0x8120
 72 0 50 22 50 50 c 0
 50 78 72 100 100 100 c 0
 128 100 150 78 150 50 c 0
 150 22 128 0 100 0 c 0x8120
500 0 m 0
 472 0 450 22 450 50 c 0
 450 78 472 100 500 100 c 0
 528 100 550 78 550 50 c 0
 550 22 528 0 500 0 c 0
EndSplineSet
EndChar

StartChar: Ncaron
Encoding: 327 327 57
Width: 600
GlyphClass: 1
Flags: MW
HStem: 0 100<86 114 486 514> 150 100<86 114 400 500> 300 100<86 114 286 314 486 514> 450 100<86 200 100 200 486 514> 600 100<86 114 486 514> 750 100<286 314> 900 100<186 214 386 414>
VStem: 50 100<36 64 186 214 336 364 636 664> 150 100<336 364 936 964> 250 100<336 364 786 814 936 964> 350 100<336 364 936 964> 450 100<36 64 336 364 486 514 636 664>
LayerCount: 2
Fore
SplineSet
200 900 m 0x02a0
 172 900 150 922 150 950 c 0
 150 978 172 1000 200 1000 c 0
 228 1000 250 978 250 950 c 0
 250 922 228 900 200 900 c 0x02a0
400 900 m 0
 372 900 350 922 350 950 c 0
 350 978 372 1000 400 1000 c 0
 428 1000 450 978 450 950 c 0
 450 922 428 900 400 900 c 0
300 750 m 0x1d50
 272 750 250 772 250 800 c 0
 250 828 272 850 300 850 c 0
 328 850 350 828 350 800 c 0
 350 772 328 750 300 750 c 0x1d50
100 600 m 0
 72 600 50 622 50 650 c 0
 50 678 72 700 100 700 c 0
 128 700 150 678 150 650 c 0
 150 622 128 600 100 600 c 0
500 600 m 0
 472 600 450 622 450 650 c 0
 450 678 472 700 500 700 c 0
 528 700 550 678 550 650 c 0
 550 622 528 600 500 600 c 0
50 500 m 0
 50 528 72 550 100 550 c 2x11
 200 550 l 2
 228 550 250 528 250 500 c 0
 250 472 228 450 200 450 c 2x1080
 100 450 l 2
 72 450 50 472 50 500 c 0
500 450 m 0
 472 450 450 472 450 500 c 0
 450 528 472 550 500 550 c 0
 528 550 550 528 550 500 c 0
 550 472 528 450 500 450 c 0
100 300 m 0x6150
 72 300 50 322 50 350 c 0
 50 378 72 400 100 400 c 0
 128 400 150 378 150 350 c 0
 150 322 128 300 100 300 c 0x6150
300 300 m 0
 272 300 250 322 250 350 c 0
 250 378 272 400 300 400 c 0
 328 400 350 378 350 350 c 0
 350 322 328 300 300 300 c 0
500 300 m 0
 472 300 450 322 450 350 c 0
 450 378 472 400 500 400 c 0
 528 400 550 378 550 350 c 0
 550 322 528 300 500 300 c 0
100 150 m 0
 72 150 50 172 50 200 c 0
 50 228 72 250 100 250 c 0
 128 250 150 228 150 200 c 0
 150 172 128 150 100 150 c 0
350 200 m 0x4020
 350 228 372 250 400 250 c 2x4020
 500 250 l 2
 528 250 550 228 550 200 c 0
 550 172 528 150 500 150 c 2x4010
 400 150 l 2
 372 150 350 172 350 200 c 0x4020
100 0 m 0x8110
 72 0 50 22 50 50 c 0
 50 78 72 100 100 100 c 0
 128 100 150 78 150 50 c 0
 150 22 128 0 100 0 c 0x8110
500 0 m 0
 472 0 450 22 450 50 c 0
 450 78 472 100 500 100 c 0
 528 100 550 78 550 50 c 0
 550 22 528 0 500 0 c 0
EndSplineSet
EndChar

StartChar: uni0145
Encoding: 325 325 58
Width: 600
GlyphClass: 1
Flags: MW
HStem: -300 100<186 214> -150 100<286 314> 0 100<86 114 486 514> 150 100<86 114 400 500> 300 100<86 114 286 314 486 514> 450 100<86 200 100 200 486 514> 600 100<86 114 486 514>
VStem: 50 100<36 64 186 214 336 364 636 664> 150 100<-264 -236 336 364> 250 100<-114 -86 336 364> 450 100<36 64 336 364 486 514 636 664>
LayerCount: 2
Fore
SplineSet
100 600 m 0xff60
 72 600 50 622 50 650 c 0
 50 678 72 700 100 700 c 0
 128 700 150 678 150 650 c 0
 150 622 128 600 100 600 c 0xff60
500 600 m 0
 472 600 450 622 450 650 c 0
 450 678 472 700 500 700 c 0
 528 700 550 678 550 650 c 0
 550 622 528 600 500 600 c 0
50 500 m 0
 50 528 72 550 100 550 c 2x05
 200 550 l 2
 228 550 250 528 250 500 c 0
 250 472 228 450 200 450 c 2x0480
 100 450 l 2
 72 450 50 472 50 500 c 0
500 450 m 0
 472 450 450 472 450 500 c 0
 450 528 472 550 500 550 c 0
 528 550 550 528 550 500 c 0
 550 472 528 450 500 450 c 0
100 300 m 0
 72 300 50 322 50 350 c 0
 50 378 72 400 100 400 c 0
 128 400 150 378 150 350 c 0
 150 322 128 300 100 300 c 0
300 300 m 0
 272 300 250 322 250 350 c 0
 250 378 272 400 300 400 c 0
 328 400 350 378 350 350 c 0
 350 322 328 300 300 300 c 0
500 300 m 0
 472 300 450 322 450 350 c 0
 450 378 472 400 500 400 c 0
 528 400 550 378 550 350 c 0
 550 322 528 300 500 300 c 0
100 150 m 0
 72 150 50 172 50 200 c 0
 50 228 72 250 100 250 c 0
 128 250 150 228 150 200 c 0
 150 172 128 150 100 150 c 0
350 200 m 0
 350 228 372 250 400 250 c 2
 500 250 l 2
 528 250 550 228 550 200 c 0
 550 172 528 150 500 150 c 2
 400 150 l 2
 372 150 350 172 350 200 c 0
100 0 m 0
 72 0 50 22 50 50 c 0
 50 78 72 100 100 100 c 0
 128 100 150 78 150 50 c 0
 150 22 128 0 100 0 c 0
500 0 m 0
 472 0 450 22 450 50 c 0
 450 78 472 100 500 100 c 0
 528 100 550 78 550 50 c 0
 550 22 528 0 500 0 c 0
300 -150 m 0
 272 -150 250 -128 250 -100 c 0
 250 -72 272 -50 300 -50 c 0
 328 -50 350 -72 350 -100 c 0
 350 -128 328 -150 300 -150 c 0
200 -300 m 0x8080
 172 -300 150 -278 150 -250 c 0
 150 -222 172 -200 200 -200 c 0
 228 -200 250 -222 250 -250 c 0
 250 -278 228 -300 200 -300 c 0x8080
EndSplineSet
EndChar

StartChar: Eng
Encoding: 330 330 59
Width: 600
GlyphClass: 1
Flags: MW
HStem: -300 100<386 414> -150 100<486 514> 0 100<86 114 486 514> 150 100<86 114 400 500> 300 100<86 114 286 314 486 514> 450 100<86 200 100 200 486 514> 600 100<86 114 486 514>
VStem: 50 100<36 64 186 214 336 364 636 664> 250 100<336 364> 350 100<-264 -236 336 364> 450 100<-114 -86 36 64 336 364 486 514 636 664>
LayerCount: 2
Fore
SplineSet
100 600 m 0xffa0
 72 600 50 622 50 650 c 0
 50 678 72 700 100 700 c 0
 128 700 150 678 150 650 c 0
 150 622 128 600 100 600 c 0xffa0
500 600 m 0
 472 600 450 622 450 650 c 0
 450 678 472 700 500 700 c 0
 528 700 550 678 550 650 c 0
 550 622 528 600 500 600 c 0
50 500 m 0
 50 528 72 550 100 550 c 2
 200 550 l 2
 228 550 250 528 250 500 c 0
 250 472 228 450 200 450 c 2
 100 450 l 2
 72 450 50 472 50 500 c 0
500 450 m 0
 472 450 450 472 450 500 c 0
 450 528 472 550 500 550 c 0
 528 550 550 528 550 500 c 0
 550 472 528 450 500 450 c 0
100 300 m 0
 72 300 50 322 50 350 c 0
 50 378 72 400 100 400 c 0
 128 400 150 378 150 350 c 0
 150 322 128 300 100 300 c 0
300 300 m 0
 272 300 250 322 250 350 c 0
 250 378 272 400 300 400 c 0
 328 400 350 378 350 350 c 0
 350 322 328 300 300 300 c 0
500 300 m 0
 472 300 450 322 450 350 c 0
 450 378 472 400 500 400 c 0
 528 400 550 378 550 350 c 0
 550 322 528 300 500 300 c 0
100 150 m 0
 72 150 50 172 50 200 c 0
 50 228 72 250 100 250 c 0
 128 250 150 228 150 200 c 0
 150 172 128 150 100 150 c 0
350 200 m 0x1040
 350 228 372 250 400 250 c 2x1040
 500 250 l 2
 528 250 550 228 550 200 c 0
 550 172 528 150 500 150 c 2x1020
 400 150 l 2
 372 150 350 172 350 200 c 0x1040
100 0 m 0x6120
 72 0 50 22 50 50 c 0
 50 78 72 100 100 100 c 0
 128 100 150 78 150 50 c 0
 150 22 128 0 100 0 c 0x6120
500 0 m 0
 472 0 450 22 450 50 c 0
 450 78 472 100 500 100 c 0
 528 100 550 78 550 50 c 0
 550 22 528 0 500 0 c 0
500 -150 m 0
 472 -150 450 -128 450 -100 c 0
 450 -72 472 -50 500 -50 c 0
 528 -50 550 -72 550 -100 c 0
 550 -128 528 -150 500 -150 c 0
400 -300 m 0x8040
 372 -300 350 -278 350 -250 c 0
 350 -222 372 -200 400 -200 c 0
 428 -200 450 -222 450 -250 c 0
 450 -278 428 -300 400 -300 c 0x8040
EndSplineSet
EndChar

StartChar: Ntilde
Encoding: 209 209 60
Width: 600
GlyphClass: 1
Flags: MW
HStem: 0 100<86 114 486 514> 150 100<86 114 400 500> 300 100<86 114 286 314 486 514> 450 100<86 200 100 200 486 514> 600 100<86 114 486 514> 750 100<286 400 300 400> 900 100<186 300 200 300>
VStem: 50 100<36 64 186 214 336 364 636 664> 250 100<336 364> 450 100<36 64 336 364 486 514 636 664>
LayerCount: 2
Fore
SplineSet
150 950 m 0
 150 978 172 1000 200 1000 c 2
 300 1000 l 2
 328 1000 350 978 350 950 c 0
 350 922 328 900 300 900 c 2
 200 900 l 2
 172 900 150 922 150 950 c 0
250 800 m 0
 250 828 272 850 300 850 c 2
 400 850 l 2
 428 850 450 828 450 800 c 0
 450 772 428 750 400 750 c 2
 300 750 l 2
 272 750 250 772 250 800 c 0
100 600 m 0
 72 600 50 622 50 650 c 0
 50 678 72 700 100 700 c 0
 128 700 150 678 150 650 c 0
 150 622 128 600 100 600 c 0
500 600 m 0
 472 600 450 622 450 650 c 0
 450 678 472 700 500 700 c 0
 528 700 550 678 550 650 c 0
 550 622 528 600 500 600 c 0
50 500 m 0
 50 528 72 550 100 550 c 2
 200 550 l 2
 228 550 250 528 250 500 c 0
 250 472 228 450 200 450 c 2
 100 450 l 2
 72 450 50 472 50 500 c 0
500 450 m 0
 472 450 450 472 450 500 c 0
 450 528 472 550 500 550 c 0
 528 550 550 528 550 500 c 0
 550 472 528 450 500 450 c 0
100 300 m 0
 72 300 50 322 50 350 c 0
 50 378 72 400 100 400 c 0
 128 400 150 378 150 350 c 0
 150 322 128 300 100 300 c 0
300 300 m 0
 272 300 250 322 250 350 c 0
 250 378 272 400 300 400 c 0
 328 400 350 378 350 350 c 0
 350 322 328 300 300 300 c 0
500 300 m 0
 472 300 450 322 450 350 c 0
 450 378 472 400 500 400 c 0
 528 400 550 378 550 350 c 0
 550 322 528 300 500 300 c 0
100 150 m 0
 72 150 50 172 50 200 c 0
 50 228 72 250 100 250 c 0
 128 250 150 228 150 200 c 0
 150 172 128 150 100 150 c 0
350 200 m 0
 350 228 372 250 400 250 c 2
 500 250 l 2
 528 250 550 228 550 200 c 0
 550 172 528 150 500 150 c 2
 400 150 l 2
 372 150 350 172 350 200 c 0
100 0 m 0
 72 0 50 22 50 50 c 0
 50 78 72 100 100 100 c 0
 128 100 150 78 150 50 c 0
 150 22 128 0 100 0 c 0
500 0 m 0
 472 0 450 22 450 50 c 0
 450 78 472 100 500 100 c 0
 528 100 550 78 550 50 c 0
 550 22 528 0 500 0 c 0
EndSplineSet
EndChar

StartChar: O
Encoding: 79 79 61
Width: 600
GlyphClass: 1
Flags: MW
HStem: 0 100<186 400 200 400> 150 100<86 114 486 514> 300 100<86 114 486 514> 450 100<86 114 486 514> 600 100<186 400 200 400>
VStem: 50 100<186 214 336 364 486 514> 450 100<186 214 336 364 486 514>
LayerCount: 2
Fore
SplineSet
150 650 m 0
 150 678 172 700 200 700 c 2
 400 700 l 2
 428 700 450 678 450 650 c 0
 450 622 428 600 400 600 c 2
 200 600 l 2
 172 600 150 622 150 650 c 0
100 450 m 0
 72 450 50 472 50 500 c 0
 50 528 72 550 100 550 c 0
 128 550 150 528 150 500 c 0
 150 472 128 450 100 450 c 0
500 450 m 0
 472 450 450 472 450 500 c 0
 450 528 472 550 500 550 c 0
 528 550 550 528 550 500 c 0
 550 472 528 450 500 450 c 0
100 300 m 0
 72 300 50 322 50 350 c 0
 50 378 72 400 100 400 c 0
 128 400 150 378 150 350 c 0
 150 322 128 300 100 300 c 0
500 300 m 0
 472 300 450 322 450 350 c 0
 450 378 472 400 500 400 c 0
 528 400 550 378 550 350 c 0
 550 322 528 300 500 300 c 0
100 150 m 0
 72 150 50 172 50 200 c 0
 50 228 72 250 100 250 c 0
 128 250 150 228 150 200 c 0
 150 172 128 150 100 150 c 0
500 150 m 0
 472 150 450 172 450 200 c 0
 450 228 472 250 500 250 c 0
 528 250 550 228 550 200 c 0
 550 172 528 150 500 150 c 0
150 50 m 0
 150 78 172 100 200 100 c 2
 400 100 l 2
 428 100 450 78 450 50 c 0
 450 22 428 0 400 0 c 2
 200 0 l 2
 172 0 150 22 150 50 c 0
EndSplineSet
EndChar

StartChar: Oacute
Encoding: 211 211 62
Width: 600
GlyphClass: 1
Flags: MW
HStem: 0 100<186 400 200 400> 150 100<86 114 486 514> 300 100<86 114 486 514> 450 100<86 114 486 514> 600 100<186 400 200 400> 750 100<286 314> 900 100<386 414>
VStem: 50 100<186 214 336 364 486 514> 250 100<786 814> 350 100<936 964> 450 100<186 214 336 364 486 514>
LayerCount: 2
Fore
SplineSet
400 900 m 0x0240
 372 900 350 922 350 950 c 0
 350 978 372 1000 400 1000 c 0
 428 1000 450 978 450 950 c 0
 450 922 428 900 400 900 c 0x0240
300 750 m 0x0c80
 272 750 250 772 250 800 c 0
 250 828 272 850 300 850 c 0
 328 850 350 828 350 800 c 0
 350 772 328 750 300 750 c 0x0c80
150 650 m 0
 150 678 172 700 200 700 c 2
 400 700 l 2
 428 700 450 678 450 650 c 0
 450 622 428 600 400 600 c 2x0840
 200 600 l 2
 172 600 150 622 150 650 c 0
100 450 m 0xf120
 72 450 50 472 50 500 c 0
 50 528 72 550 100 550 c 0
 128 550 150 528 150 500 c 0
 150 472 128 450 100 450 c 0xf120
500 450 m 0
 472 450 450 472 450 500 c 0
 450 528 472 550 500 550 c 0
 528 550 550 528 550 500 c 0
 550 472 528 450 500 450 c 0
100 300 m 0
 72 300 50 322 50 350 c 0
 50 378 72 400 100 400 c 0
 128 400 150 378 150 350 c 0
 150 322 128 300 100 300 c 0
500 300 m 0
 472 300 450 322 450 350 c 0
 450 378 472 400 500 400 c 0
 528 400 550 378 550 350 c 0
 550 322 528 300 500 300 c 0
100 150 m 0
 72 150 50 172 50 200 c 0
 50 228 72 250 100 250 c 0
 128 250 150 228 150 200 c 0
 150 172 128 150 100 150 c 0
500 150 m 0
 472 150 450 172 450 200 c 0
 450 228 472 250 500 250 c 0
 528 250 550 228 550 200 c 0
 550 172 528 150 500 150 c 0
150 50 m 0
 150 78 172 100 200 100 c 2
 400 100 l 2
 428 100 450 78 450 50 c 0
 450 22 428 0 400 0 c 2x8040
 200 0 l 2
 172 0 150 22 150 50 c 0
EndSplineSet
EndChar

StartChar: Ocircumflex
Encoding: 212 212 63
Width: 600
GlyphClass: 1
Flags: MW
HStem: 0 100<186 400 200 400> 150 100<86 114 486 514> 300 100<86 114 486 514> 450 100<86 114 486 514> 600 100<186 400 200 400> 750 100<186 214 386 414> 900 100<286 314>
VStem: 50 100<186 214 336 364 486 514> 150 100<786 814> 250 100<786 814 936 964> 350 100<786 814> 450 100<186 214 336 364 486 514>
LayerCount: 2
Fore
SplineSet
300 900 m 0xff50
 272 900 250 922 250 950 c 0
 250 978 272 1000 300 1000 c 0
 328 1000 350 978 350 950 c 0
 350 922 328 900 300 900 c 0xff50
200 750 m 0x0ca0
 172 750 150 772 150 800 c 0
 150 828 172 850 200 850 c 0
 228 850 250 828 250 800 c 0
 250 772 228 750 200 750 c 0x0ca0
400 750 m 0
 372 750 350 772 350 800 c 0
 350 828 372 850 400 850 c 0
 428 850 450 828 450 800 c 0
 450 772 428 750 400 750 c 0
150 650 m 0
 150 678 172 700 200 700 c 2
 400 700 l 2
 428 700 450 678 450 650 c 0
 450 622 428 600 400 600 c 2
 200 600 l 2
 172 600 150 622 150 650 c 0
100 450 m 0x7110
 72 450 50 472 50 500 c 0
 50 528 72 550 100 550 c 0
 128 550 150 528 150 500 c 0
 150 472 128 450 100 450 c 0x7110
500 450 m 0
 472 450 450 472 450 500 c 0
 450 528 472 550 500 550 c 0
 528 550 550 528 550 500 c 0
 550 472 528 450 500 450 c 0
100 300 m 0
 72 300 50 322 50 350 c 0
 50 378 72 400 100 400 c 0
 128 400 150 378 150 350 c 0
 150 322 128 300 100 300 c 0
500 300 m 0
 472 300 450 322 450 350 c 0
 450 378 472 400 500 400 c 0
 528 400 550 378 550 350 c 0
 550 322 528 300 500 300 c 0
100 150 m 0
 72 150 50 172 50 200 c 0
 50 228 72 250 100 250 c 0
 128 250 150 228 150 200 c 0
 150 172 128 150 100 150 c 0
500 150 m 0
 472 150 450 172 450 200 c 0
 450 228 472 250 500 250 c 0
 528 250 550 228 550 200 c 0
 550 172 528 150 500 150 c 0
150 50 m 0x80a0
 150 78 172 100 200 100 c 2
 400 100 l 2
 428 100 450 78 450 50 c 0
 450 22 428 0 400 0 c 2
 200 0 l 2
 172 0 150 22 150 50 c 0x80a0
EndSplineSet
EndChar

StartChar: Odieresis
Encoding: 214 214 64
Width: 600
GlyphClass: 1
Flags: MW
HStem: 0 100<186 400 200 400> 150 100<86 114 486 514> 300 100<86 114 486 514> 450 100<86 114 486 514> 600 100<186 400 200 400> 900 100<186 214 386 414>
VStem: 50 100<186 214 336 364 486 514> 150 100<936 964> 350 100<936 964> 450 100<186 214 336 364 486 514>
LayerCount: 2
Fore
SplineSet
200 900 m 0x0d80
 172 900 150 922 150 950 c 0
 150 978 172 1000 200 1000 c 0
 228 1000 250 978 250 950 c 0
 250 922 228 900 200 900 c 0x0d80
400 900 m 0
 372 900 350 922 350 950 c 0
 350 978 372 1000 400 1000 c 0
 428 1000 450 978 450 950 c 0
 450 922 428 900 400 900 c 0
150 650 m 0
 150 678 172 700 200 700 c 2
 400 700 l 2
 428 700 450 678 450 650 c 0
 450 622 428 600 400 600 c 2
 200 600 l 2
 172 600 150 622 150 650 c 0
100 450 m 0x7240
 72 450 50 472 50 500 c 0
 50 528 72 550 100 550 c 0
 128 550 150 528 150 500 c 0
 150 472 128 450 100 450 c 0x7240
500 450 m 0
 472 450 450 472 450 500 c 0
 450 528 472 550 500 550 c 0
 528 550 550 528 550 500 c 0
 550 472 528 450 500 450 c 0
100 300 m 0
 72 300 50 322 50 350 c 0
 50 378 72 400 100 400 c 0
 128 400 150 378 150 350 c 0
 150 322 128 300 100 300 c 0
500 300 m 0
 472 300 450 322 450 350 c 0
 450 378 472 400 500 400 c 0
 528 400 550 378 550 350 c 0
 550 322 528 300 500 300 c 0
100 150 m 0
 72 150 50 172 50 200 c 0
 50 228 72 250 100 250 c 0
 128 250 150 228 150 200 c 0
 150 172 128 150 100 150 c 0
500 150 m 0
 472 150 450 172 450 200 c 0
 450 228 472 250 500 250 c 0
 528 250 550 228 550 200 c 0
 550 172 528 150 500 150 c 0
150 50 m 0x8180
 150 78 172 100 200 100 c 2
 400 100 l 2
 428 100 450 78 450 50 c 0
 450 22 428 0 400 0 c 2
 200 0 l 2
 172 0 150 22 150 50 c 0x8180
EndSplineSet
EndChar

StartChar: Ograve
Encoding: 210 210 65
Width: 600
GlyphClass: 1
Flags: MW
HStem: 0 100<186 400 200 400> 150 100<86 114 486 514> 300 100<86 114 486 514> 450 100<86 114 486 514> 600 100<186 400 200 400> 750 100<286 314> 900 100<186 214>
VStem: 50 100<186 214 336 364 486 514> 150 100<936 964> 250 100<786 814> 450 100<186 214 336 364 486 514>
LayerCount: 2
Fore
SplineSet
200 900 m 0x0280
 172 900 150 922 150 950 c 0
 150 978 172 1000 200 1000 c 0
 228 1000 250 978 250 950 c 0
 250 922 228 900 200 900 c 0x0280
300 750 m 0x0440
 272 750 250 772 250 800 c 0
 250 828 272 850 300 850 c 0
 328 850 350 828 350 800 c 0
 350 772 328 750 300 750 c 0x0440
150 650 m 0x0880
 150 678 172 700 200 700 c 2
 400 700 l 2
 428 700 450 678 450 650 c 0
 450 622 428 600 400 600 c 2
 200 600 l 2
 172 600 150 622 150 650 c 0x0880
100 450 m 0x7120
 72 450 50 472 50 500 c 0
 50 528 72 550 100 550 c 0
 128 550 150 528 150 500 c 0
 150 472 128 450 100 450 c 0x7120
500 450 m 0
 472 450 450 472 450 500 c 0
 450 528 472 550 500 550 c 0
 528 550 550 528 550 500 c 0
 550 472 528 450 500 450 c 0
100 300 m 0
 72 300 50 322 50 350 c 0
 50 378 72 400 100 400 c 0
 128 400 150 378 150 350 c 0
 150 322 128 300 100 300 c 0
500 300 m 0
 472 300 450 322 450 350 c 0
 450 378 472 400 500 400 c 0
 528 400 550 378 550 350 c 0
 550 322 528 300 500 300 c 0
100 150 m 0
 72 150 50 172 50 200 c 0
 50 228 72 250 100 250 c 0
 128 250 150 228 150 200 c 0
 150 172 128 150 100 150 c 0
500 150 m 0
 472 150 450 172 450 200 c 0
 450 228 472 250 500 250 c 0
 528 250 550 228 550 200 c 0
 550 172 528 150 500 150 c 0
150 50 m 0x8080
 150 78 172 100 200 100 c 2
 400 100 l 2
 428 100 450 78 450 50 c 0
 450 22 428 0 400 0 c 2
 200 0 l 2
 172 0 150 22 150 50 c 0x8080
EndSplineSet
EndChar

StartChar: Ohungarumlaut
Encoding: 336 336 66
Width: 600
GlyphClass: 1
Flags: MW
HStem: 0 100<186 400 200 400> 150 100<86 114 486 514> 300 100<86 114 486 514> 450 100<86 114 486 514> 600 100<186 400 200 400> 750 100<186 300 200 300> 900 100<286 400 300 400>
VStem: 50 100<186 214 336 364 486 514> 450 100<186 214 336 364 486 514>
LayerCount: 2
Fore
SplineSet
250 950 m 0
 250 978 272 1000 300 1000 c 2
 400 1000 l 2
 428 1000 450 978 450 950 c 0
 450 922 428 900 400 900 c 2
 300 900 l 2
 272 900 250 922 250 950 c 0
150 800 m 0
 150 828 172 850 200 850 c 2
 300 850 l 2
 328 850 350 828 350 800 c 0
 350 772 328 750 300 750 c 2
 200 750 l 2
 172 750 150 772 150 800 c 0
150 650 m 0
 150 678 172 700 200 700 c 2
 400 700 l 2
 428 700 450 678 450 650 c 0
 450 622 428 600 400 600 c 2
 200 600 l 2
 172 600 150 622 150 650 c 0
100 450 m 0
 72 450 50 472 50 500 c 0
 50 528 72 550 100 550 c 0
 128 550 150 528 150 500 c 0
 150 472 128 450 100 450 c 0
500 450 m 0
 472 450 450 472 450 500 c 0
 450 528 472 550 500 550 c 0
 528 550 550 528 550 500 c 0
 550 472 528 450 500 450 c 0
100 300 m 0
 72 300 50 322 50 350 c 0
 50 378 72 400 100 400 c 0
 128 400 150 378 150 350 c 0
 150 322 128 300 100 300 c 0
500 300 m 0
 472 300 450 322 450 350 c 0
 450 378 472 400 500 400 c 0
 528 400 550 378 550 350 c 0
 550 322 528 300 500 300 c 0
100 150 m 0
 72 150 50 172 50 200 c 0
 50 228 72 250 100 250 c 0
 128 250 150 228 150 200 c 0
 150 172 128 150 100 150 c 0
500 150 m 0
 472 150 450 172 450 200 c 0
 450 228 472 250 500 250 c 0
 528 250 550 228 550 200 c 0
 550 172 528 150 500 150 c 0
150 50 m 0
 150 78 172 100 200 100 c 2
 400 100 l 2
 428 100 450 78 450 50 c 0
 450 22 428 0 400 0 c 2
 200 0 l 2
 172 0 150 22 150 50 c 0
EndSplineSet
EndChar

StartChar: Omacron
Encoding: 332 332 67
Width: 600
GlyphClass: 1
Flags: MW
HStem: 0 100<186 400 200 400> 150 100<86 114 486 514> 300 100<86 114 486 514> 450 100<86 114 486 514> 600 100<186 400 200 400> 900 100<186 400 200 400>
VStem: 50 100<186 214 336 364 486 514> 450 100<186 214 336 364 486 514>
LayerCount: 2
Fore
SplineSet
150 950 m 0
 150 978 172 1000 200 1000 c 2
 400 1000 l 2
 428 1000 450 978 450 950 c 0
 450 922 428 900 400 900 c 2
 200 900 l 2
 172 900 150 922 150 950 c 0
150 650 m 0
 150 678 172 700 200 700 c 2
 400 700 l 2
 428 700 450 678 450 650 c 0
 450 622 428 600 400 600 c 2
 200 600 l 2
 172 600 150 622 150 650 c 0
100 450 m 0
 72 450 50 472 50 500 c 0
 50 528 72 550 100 550 c 0
 128 550 150 528 150 500 c 0
 150 472 128 450 100 450 c 0
500 450 m 0
 472 450 450 472 450 500 c 0
 450 528 472 550 500 550 c 0
 528 550 550 528 550 500 c 0
 550 472 528 450 500 450 c 0
100 300 m 0
 72 300 50 322 50 350 c 0
 50 378 72 400 100 400 c 0
 128 400 150 378 150 350 c 0
 150 322 128 300 100 300 c 0
500 300 m 0
 472 300 450 322 450 350 c 0
 450 378 472 400 500 400 c 0
 528 400 550 378 550 350 c 0
 550 322 528 300 500 300 c 0
100 150 m 0
 72 150 50 172 50 200 c 0
 50 228 72 250 100 250 c 0
 128 250 150 228 150 200 c 0
 150 172 128 150 100 150 c 0
500 150 m 0
 472 150 450 172 450 200 c 0
 450 228 472 250 500 250 c 0
 528 250 550 228 550 200 c 0
 550 172 528 150 500 150 c 0
150 50 m 0
 150 78 172 100 200 100 c 2
 400 100 l 2
 428 100 450 78 450 50 c 0
 450 22 428 0 400 0 c 2
 200 0 l 2
 172 0 150 22 150 50 c 0
EndSplineSet
EndChar

StartChar: Oslash
Encoding: 216 216 68
Width: 600
GlyphClass: 1
Flags: MW
HStem: 0 100<86 400 100 400> 150 100<86 200 100 200 486 514> 300 100<86 114 286 314 486 514> 450 100<86 114 400 500> 600 100<186 500 200 500>
VStem: 50 100<336 364 486 514> 250 100<336 364> 450 100<186 214 336 364>
LayerCount: 2
Fore
SplineSet
150 650 m 0
 150 678 172 700 200 700 c 2
 500 700 l 2
 528 700 550 678 550 650 c 0
 550 622 528 600 500 600 c 2
 200 600 l 2
 172 600 150 622 150 650 c 0
100 450 m 0
 72 450 50 472 50 500 c 0
 50 528 72 550 100 550 c 0
 128 550 150 528 150 500 c 0
 150 472 128 450 100 450 c 0
350 500 m 0
 350 528 372 550 400 550 c 2
 500 550 l 2
 528 550 550 528 550 500 c 0
 550 472 528 450 500 450 c 2
 400 450 l 2
 372 450 350 472 350 500 c 0
100 300 m 0
 72 300 50 322 50 350 c 0
 50 378 72 400 100 400 c 0
 128 400 150 378 150 350 c 0
 150 322 128 300 100 300 c 0
300 300 m 0
 272 300 250 322 250 350 c 0
 250 378 272 400 300 400 c 0
 328 400 350 378 350 350 c 0
 350 322 328 300 300 300 c 0
500 300 m 0
 472 300 450 322 450 350 c 0
 450 378 472 400 500 400 c 0
 528 400 550 378 550 350 c 0
 550 322 528 300 500 300 c 0
50 200 m 0
 50 228 72 250 100 250 c 2
 200 250 l 2
 228 250 250 228 250 200 c 0
 250 172 228 150 200 150 c 2
 100 150 l 2
 72 150 50 172 50 200 c 0
500 150 m 0
 472 150 450 172 450 200 c 0
 450 228 472 250 500 250 c 0
 528 250 550 228 550 200 c 0
 550 172 528 150 500 150 c 0
50 50 m 0
 50 78 72 100 100 100 c 2
 400 100 l 2
 428 100 450 78 450 50 c 0
 450 22 428 0 400 0 c 2
 100 0 l 2
 72 0 50 22 50 50 c 0
EndSplineSet
EndChar

StartChar: Otilde
Encoding: 213 213 69
Width: 600
GlyphClass: 1
Flags: MW
HStem: 0 100<186 400 200 400> 150 100<86 114 486 514> 300 100<86 114 486 514> 450 100<86 114 486 514> 600 100<186 400 200 400> 750 100<286 400 300 400> 900 100<186 300 200 300>
VStem: 50 100<186 214 336 364 486 514> 450 100<186 214 336 364 486 514>
LayerCount: 2
Fore
SplineSet
150 950 m 0
 150 978 172 1000 200 1000 c 2
 300 1000 l 2
 328 1000 350 978 350 950 c 0
 350 922 328 900 300 900 c 2
 200 900 l 2
 172 900 150 922 150 950 c 0
250 800 m 0
 250 828 272 850 300 850 c 2
 400 850 l 2
 428 850 450 828 450 800 c 0
 450 772 428 750 400 750 c 2
 300 750 l 2
 272 750 250 772 250 800 c 0
150 650 m 0
 150 678 172 700 200 700 c 2
 400 700 l 2
 428 700 450 678 450 650 c 0
 450 622 428 600 400 600 c 2
 200 600 l 2
 172 600 150 622 150 650 c 0
100 450 m 0
 72 450 50 472 50 500 c 0
 50 528 72 550 100 550 c 0
 128 550 150 528 150 500 c 0
 150 472 128 450 100 450 c 0
500 450 m 0
 472 450 450 472 450 500 c 0
 450 528 472 550 500 550 c 0
 528 550 550 528 550 500 c 0
 550 472 528 450 500 450 c 0
100 300 m 0
 72 300 50 322 50 350 c 0
 50 378 72 400 100 400 c 0
 128 400 150 378 150 350 c 0
 150 322 128 300 100 300 c 0
500 300 m 0
 472 300 450 322 450 350 c 0
 450 378 472 400 500 400 c 0
 528 400 550 378 550 350 c 0
 550 322 528 300 500 300 c 0
100 150 m 0
 72 150 50 172 50 200 c 0
 50 228 72 250 100 250 c 0
 128 250 150 228 150 200 c 0
 150 172 128 150 100 150 c 0
500 150 m 0
 472 150 450 172 450 200 c 0
 450 228 472 250 500 250 c 0
 528 250 550 228 550 200 c 0
 550 172 528 150 500 150 c 0
150 50 m 0
 150 78 172 100 200 100 c 2
 400 100 l 2
 428 100 450 78 450 50 c 0
 450 22 428 0 400 0 c 2
 200 0 l 2
 172 0 150 22 150 50 c 0
EndSplineSet
EndChar

StartChar: OE
Encoding: 338 338 70
Width: 600
GlyphClass: 1
Flags: MW
HStem: 0 100<186 500 200 500> 150 100<86 114 286 314> 300 100<86 114 300 400> 450 100<86 114 286 314> 600 100<186 500 200 500>
VStem: 50 100<186 214 336 364 486 514> 250 100<186 214 486 514>
LayerCount: 2
Fore
SplineSet
150 650 m 0
 150 678 172 700 200 700 c 2
 500 700 l 2
 528 700 550 678 550 650 c 0
 550 622 528 600 500 600 c 2
 200 600 l 2
 172 600 150 622 150 650 c 0
100 450 m 0
 72 450 50 472 50 500 c 0
 50 528 72 550 100 550 c 0
 128 550 150 528 150 500 c 0
 150 472 128 450 100 450 c 0
300 450 m 0
 272 450 250 472 250 500 c 0
 250 528 272 550 300 550 c 0
 328 550 350 528 350 500 c 0
 350 472 328 450 300 450 c 0
100 300 m 0
 72 300 50 322 50 350 c 0
 50 378 72 400 100 400 c 0
 128 400 150 378 150 350 c 0
 150 322 128 300 100 300 c 0
250 350 m 0
 250 378 272 400 300 400 c 2
 400 400 l 2
 428 400 450 378 450 350 c 0
 450 322 428 300 400 300 c 2
 300 300 l 2
 272 300 250 322 250 350 c 0
100 150 m 0
 72 150 50 172 50 200 c 0
 50 228 72 250 100 250 c 0
 128 250 150 228 150 200 c 0
 150 172 128 150 100 150 c 0
300 150 m 0
 272 150 250 172 250 200 c 0
 250 228 272 250 300 250 c 0
 328 250 350 228 350 200 c 0
 350 172 328 150 300 150 c 0
150 50 m 0
 150 78 172 100 200 100 c 2
 500 100 l 2
 528 100 550 78 550 50 c 0
 550 22 528 0 500 0 c 2
 200 0 l 2
 172 0 150 22 150 50 c 0
EndSplineSet
EndChar

StartChar: P
Encoding: 80 80 71
Width: 600
GlyphClass: 1
Flags: MW
HStem: 0 100<86 114> 150 100<86 114> 300 100<86 400 100 400> 450 100<86 114 486 514> 600 100<86 400 100 400>
VStem: 50 100<36 64 186 214 486 514> 450 100<486 514>
LayerCount: 2
Fore
SplineSet
50 650 m 0
 50 678 72 700 100 700 c 2
 400 700 l 2
 428 700 450 678 450 650 c 0
 450 622 428 600 400 600 c 2
 100 600 l 2
 72 600 50 622 50 650 c 0
100 450 m 0
 72 450 50 472 50 500 c 0
 50 528 72 550 100 550 c 0
 128 550 150 528 150 500 c 0
 150 472 128 450 100 450 c 0
500 450 m 0
 472 450 450 472 450 500 c 0
 450 528 472 550 500 550 c 0
 528 550 550 528 550 500 c 0
 550 472 528 450 500 450 c 0
50 350 m 0
 50 378 72 400 100 400 c 2
 400 400 l 2
 428 400 450 378 450 350 c 0
 450 322 428 300 400 300 c 2
 100 300 l 2
 72 300 50 322 50 350 c 0
100 150 m 0
 72 150 50 172 50 200 c 0
 50 228 72 250 100 250 c 0
 128 250 150 228 150 200 c 0
 150 172 128 150 100 150 c 0
100 0 m 0
 72 0 50 22 50 50 c 0
 50 78 72 100 100 100 c 0
 128 100 150 78 150 50 c 0
 150 22 128 0 100 0 c 0
EndSplineSet
EndChar

StartChar: Thorn
Encoding: 222 222 72
Width: 600
GlyphClass: 1
Flags: MW
HStem: 0 100<86 114> 150 100<86 400 100 400> 300 100<86 114 486 514> 450 100<86 400 100 400> 600 100<86 114>
VStem: 50 100<36 64 336 364 636 664> 450 100<336 364>
LayerCount: 2
Fore
SplineSet
100 600 m 0
 72 600 50 622 50 650 c 0
 50 678 72 700 100 700 c 0
 128 700 150 678 150 650 c 0
 150 622 128 600 100 600 c 0
50 500 m 0
 50 528 72 550 100 550 c 2
 400 550 l 2
 428 550 450 528 450 500 c 0
 450 472 428 450 400 450 c 2
 100 450 l 2
 72 450 50 472 50 500 c 0
100 300 m 0
 72 300 50 322 50 350 c 0
 50 378 72 400 100 400 c 0
 128 400 150 378 150 350 c 0
 150 322 128 300 100 300 c 0
500 300 m 0
 472 300 450 322 450 350 c 0
 450 378 472 400 500 400 c 0
 528 400 550 378 550 350 c 0
 550 322 528 300 500 300 c 0
50 200 m 0
 50 228 72 250 100 250 c 2
 400 250 l 2
 428 250 450 228 450 200 c 0
 450 172 428 150 400 150 c 2
 100 150 l 2
 72 150 50 172 50 200 c 0
100 0 m 0
 72 0 50 22 50 50 c 0
 50 78 72 100 100 100 c 0
 128 100 150 78 150 50 c 0
 150 22 128 0 100 0 c 0
EndSplineSet
EndChar

StartChar: Q
Encoding: 81 81 73
Width: 600
GlyphClass: 1
Flags: MW
HStem: 0 100<186 300 200 300 486 514> 150 100<86 114 386 414> 300 100<86 114 486 514> 450 100<86 114 486 514> 600 100<186 400 200 400>
VStem: 50 100<186 214 336 364 486 514> 350 100<36 64 186 214> 450 100<36 64 336 364 486 514>
LayerCount: 2
Fore
SplineSet
150 650 m 0xfd
 150 678 172 700 200 700 c 2
 400 700 l 2
 428 700 450 678 450 650 c 0
 450 622 428 600 400 600 c 2x0a
 200 600 l 2
 172 600 150 622 150 650 c 0xfd
100 450 m 0
 72 450 50 472 50 500 c 0
 50 528 72 550 100 550 c 0
 128 550 150 528 150 500 c 0
 150 472 128 450 100 450 c 0
500 450 m 0
 472 450 450 472 450 500 c 0
 450 528 472 550 500 550 c 0
 528 550 550 528 550 500 c 0
 550 472 528 450 500 450 c 0
100 300 m 0
 72 300 50 322 50 350 c 0
 50 378 72 400 100 400 c 0
 128 400 150 378 150 350 c 0
 150 322 128 300 100 300 c 0
500 300 m 0
 472 300 450 322 450 350 c 0
 450 378 472 400 500 400 c 0
 528 400 550 378 550 350 c 0
 550 322 528 300 500 300 c 0
100 150 m 0
 72 150 50 172 50 200 c 0
 50 228 72 250 100 250 c 0
 128 250 150 228 150 200 c 0
 150 172 128 150 100 150 c 0
400 150 m 0xc2
 372 150 350 172 350 200 c 0
 350 228 372 250 400 250 c 0
 428 250 450 228 450 200 c 0
 450 172 428 150 400 150 c 0xc2
150 50 m 0
 150 78 172 100 200 100 c 2
 300 100 l 2
 328 100 350 78 350 50 c 0
 350 22 328 0 300 0 c 2
 200 0 l 2
 172 0 150 22 150 50 c 0
500 0 m 0x81
 472 0 450 22 450 50 c 0
 450 78 472 100 500 100 c 0
 528 100 550 78 550 50 c 0
 550 22 528 0 500 0 c 0x81
EndSplineSet
EndChar

StartChar: R
Encoding: 82 82 74
Width: 600
GlyphClass: 1
Flags: MW
HStem: 0 100<86 114 486 514> 150 100<86 114 386 414> 300 100<86 400 100 400> 450 100<86 114 486 514> 600 100<86 400 100 400>
VStem: 50 100<36 64 186 214 486 514> 350 100<186 214> 450 100<36 64 486 514>
LayerCount: 2
Fore
SplineSet
50 650 m 0xfd
 50 678 72 700 100 700 c 2
 400 700 l 2
 428 700 450 678 450 650 c 0
 450 622 428 600 400 600 c 2x0e
 100 600 l 2
 72 600 50 622 50 650 c 0xfd
100 450 m 0
 72 450 50 472 50 500 c 0
 50 528 72 550 100 550 c 0
 128 550 150 528 150 500 c 0
 150 472 128 450 100 450 c 0
500 450 m 0
 472 450 450 472 450 500 c 0
 450 528 472 550 500 550 c 0
 528 550 550 528 550 500 c 0
 550 472 528 450 500 450 c 0
50 350 m 0
 50 378 72 400 100 400 c 2
 400 400 l 2
 428 400 450 378 450 350 c 0
 450 322 428 300 400 300 c 2x26
 100 300 l 2
 72 300 50 322 50 350 c 0
100 150 m 0
 72 150 50 172 50 200 c 0
 50 228 72 250 100 250 c 0
 128 250 150 228 150 200 c 0
 150 172 128 150 100 150 c 0
400 150 m 0xc6
 372 150 350 172 350 200 c 0
 350 228 372 250 400 250 c 0
 428 250 450 228 450 200 c 0
 450 172 428 150 400 150 c 0xc6
100 0 m 0
 72 0 50 22 50 50 c 0
 50 78 72 100 100 100 c 0
 128 100 150 78 150 50 c 0
 150 22 128 0 100 0 c 0
500 0 m 0x81
 472 0 450 22 450 50 c 0
 450 78 472 100 500 100 c 0
 528 100 550 78 550 50 c 0
 550 22 528 0 500 0 c 0x81
EndSplineSet
EndChar

StartChar: Racute
Encoding: 340 340 75
Width: 600
GlyphClass: 1
Flags: MW
HStem: 0 100<86 114 486 514> 150 100<86 114 386 414> 300 100<86 400 100 400> 450 100<86 114 486 514> 600 100<86 400 100 400> 750 100<286 314> 900 100<386 414>
VStem: 50 100<36 64 186 214 486 514> 250 100<786 814> 350 100<186 214 936 964> 450 100<36 64 486 514>
LayerCount: 2
Fore
SplineSet
400 900 m 0xff40
 372 900 350 922 350 950 c 0
 350 978 372 1000 400 1000 c 0
 428 1000 450 978 450 950 c 0
 450 922 428 900 400 900 c 0xff40
300 750 m 0x0d80
 272 750 250 772 250 800 c 0
 250 828 272 850 300 850 c 0
 328 850 350 828 350 800 c 0
 350 772 328 750 300 750 c 0x0d80
50 650 m 0
 50 678 72 700 100 700 c 2
 400 700 l 2
 428 700 450 678 450 650 c 0
 450 622 428 600 400 600 c 2x0940
 100 600 l 2
 72 600 50 622 50 650 c 0
100 450 m 0x3120
 72 450 50 472 50 500 c 0
 50 528 72 550 100 550 c 0
 128 550 150 528 150 500 c 0
 150 472 128 450 100 450 c 0x3120
500 450 m 0
 472 450 450 472 450 500 c 0
 450 528 472 550 500 550 c 0
 528 550 550 528 550 500 c 0
 550 472 528 450 500 450 c 0
50 350 m 0
 50 378 72 400 100 400 c 2
 400 400 l 2
 428 400 450 378 450 350 c 0
 450 322 428 300 400 300 c 2x2140
 100 300 l 2
 72 300 50 322 50 350 c 0
100 150 m 0xc140
 72 150 50 172 50 200 c 0
 50 228 72 250 100 250 c 0
 128 250 150 228 150 200 c 0
 150 172 128 150 100 150 c 0xc140
400 150 m 0
 372 150 350 172 350 200 c 0
 350 228 372 250 400 250 c 0
 428 250 450 228 450 200 c 0
 450 172 428 150 400 150 c 0
100 0 m 0
 72 0 50 22 50 50 c 0
 50 78 72 100 100 100 c 0
 128 100 150 78 150 50 c 0
 150 22 128 0 100 0 c 0
500 0 m 0x8020
 472 0 450 22 450 50 c 0
 450 78 472 100 500 100 c 0
 528 100 550 78 550 50 c 0
 550 22 528 0 500 0 c 0x8020
EndSplineSet
EndChar

StartChar: Rcaron
Encoding: 344 344 76
Width: 600
GlyphClass: 1
Flags: MW
HStem: 0 100<86 114 486 514> 150 100<86 114 386 414> 300 100<86 400 100 400> 450 100<86 114 486 514> 600 100<86 400 100 400> 750 100<286 314> 900 100<186 214 386 414>
VStem: 50 100<36 64 186 214 486 514> 150 100<936 964> 250 100<786 814 936 964> 350 100<186 214 936 964> 450 100<36 64 486 514>
LayerCount: 2
Fore
SplineSet
200 900 m 0x02a0
 172 900 150 922 150 950 c 0
 150 978 172 1000 200 1000 c 0
 228 1000 250 978 250 950 c 0
 250 922 228 900 200 900 c 0x02a0
400 900 m 0
 372 900 350 922 350 950 c 0
 350 978 372 1000 400 1000 c 0
 428 1000 450 978 450 950 c 0
 450 922 428 900 400 900 c 0
300 750 m 0x0d40
 272 750 250 772 250 800 c 0
 250 828 272 850 300 850 c 0
 328 850 350 828 350 800 c 0
 350 772 328 750 300 750 c 0x0d40
50 650 m 0
 50 678 72 700 100 700 c 2
 400 700 l 2
 428 700 450 678 450 650 c 0
 450 622 428 600 400 600 c 2x0920
 100 600 l 2
 72 600 50 622 50 650 c 0
100 450 m 0x3110
 72 450 50 472 50 500 c 0
 50 528 72 550 100 550 c 0
 128 550 150 528 150 500 c 0
 150 472 128 450 100 450 c 0x3110
500 450 m 0
 472 450 450 472 450 500 c 0
 450 528 472 550 500 550 c 0
 528 550 550 528 550 500 c 0
 550 472 528 450 500 450 c 0
50 350 m 0
 50 378 72 400 100 400 c 2
 400 400 l 2
 428 400 450 378 450 350 c 0
 450 322 428 300 400 300 c 2x2120
 100 300 l 2
 72 300 50 322 50 350 c 0
100 150 m 0xc120
 72 150 50 172 50 200 c 0
 50 228 72 250 100 250 c 0
 128 250 150 228 150 200 c 0
 150 172 128 150 100 150 c 0xc120
400 150 m 0
 372 150 350 172 350 200 c 0
 350 228 372 250 400 250 c 0
 428 250 450 228 450 200 c 0
 450 172 428 150 400 150 c 0
100 0 m 0
 72 0 50 22 50 50 c 0
 50 78 72 100 100 100 c 0
 128 100 150 78 150 50 c 0
 150 22 128 0 100 0 c 0
500 0 m 0x8010
 472 0 450 22 450 50 c 0
 450 78 472 100 500 100 c 0
 528 100 550 78 550 50 c 0
 550 22 528 0 500 0 c 0x8010
EndSplineSet
EndChar

StartChar: uni0156
Encoding: 342 342 77
Width: 600
GlyphClass: 1
Flags: MW
HStem: -300 100<186 214> -150 100<286 314> 0 100<86 114 486 514> 150 100<86 114 386 414> 300 100<86 400 100 400> 450 100<86 114 486 514> 600 100<86 400 100 400>
VStem: 50 100<36 64 186 214 486 514> 150 100<-264 -236> 250 100<-114 -86> 350 100<186 214> 450 100<36 64 486 514>
LayerCount: 2
Fore
SplineSet
50 650 m 0xff50
 50 678 72 700 100 700 c 2
 400 700 l 2
 428 700 450 678 450 650 c 0
 450 622 428 600 400 600 c 2x0320
 100 600 l 2
 72 600 50 622 50 650 c 0xff50
100 450 m 0
 72 450 50 472 50 500 c 0
 50 528 72 550 100 550 c 0
 128 550 150 528 150 500 c 0
 150 472 128 450 100 450 c 0
500 450 m 0
 472 450 450 472 450 500 c 0
 450 528 472 550 500 550 c 0
 528 550 550 528 550 500 c 0
 550 472 528 450 500 450 c 0
50 350 m 0
 50 378 72 400 100 400 c 2
 400 400 l 2
 428 400 450 378 450 350 c 0
 450 322 428 300 400 300 c 2x0920
 100 300 l 2
 72 300 50 322 50 350 c 0
100 150 m 0
 72 150 50 172 50 200 c 0
 50 228 72 250 100 250 c 0
 128 250 150 228 150 200 c 0
 150 172 128 150 100 150 c 0
400 150 m 0x3120
 372 150 350 172 350 200 c 0
 350 228 372 250 400 250 c 0
 428 250 450 228 450 200 c 0
 450 172 428 150 400 150 c 0x3120
100 0 m 0
 72 0 50 22 50 50 c 0
 50 78 72 100 100 100 c 0
 128 100 150 78 150 50 c 0
 150 22 128 0 100 0 c 0
500 0 m 0x6050
 472 0 450 22 450 50 c 0
 450 78 472 100 500 100 c 0
 528 100 550 78 550 50 c 0
 550 22 528 0 500 0 c 0x6050
300 -150 m 0
 272 -150 250 -128 250 -100 c 0
 250 -72 272 -50 300 -50 c 0
 328 -50 350 -72 350 -100 c 0
 350 -128 328 -150 300 -150 c 0
200 -300 m 0x8080
 172 -300 150 -278 150 -250 c 0
 150 -222 172 -200 200 -200 c 0
 228 -200 250 -222 250 -250 c 0
 250 -278 228 -300 200 -300 c 0x8080
EndSplineSet
EndChar

StartChar: S
Encoding: 83 83 78
Width: 600
GlyphClass: 1
Flags: MW
HStem: 0 100<86 400 100 400> 150 100<486 514> 300 100<186 400 200 400> 450 100<86 114> 600 100<186 500 200 500>
VStem: 50 100<486 514> 450 100<186 214>
LayerCount: 2
Fore
SplineSet
150 650 m 0
 150 678 172 700 200 700 c 2
 500 700 l 2
 528 700 550 678 550 650 c 0
 550 622 528 600 500 600 c 2
 200 600 l 2
 172 600 150 622 150 650 c 0
100 450 m 0
 72 450 50 472 50 500 c 0
 50 528 72 550 100 550 c 0
 128 550 150 528 150 500 c 0
 150 472 128 450 100 450 c 0
150 350 m 0
 150 378 172 400 200 400 c 2
 400 400 l 2
 428 400 450 378 450 350 c 0
 450 322 428 300 400 300 c 2
 200 300 l 2
 172 300 150 322 150 350 c 0
500 150 m 0
 472 150 450 172 450 200 c 0
 450 228 472 250 500 250 c 0
 528 250 550 228 550 200 c 0
 550 172 528 150 500 150 c 0
50 50 m 0
 50 78 72 100 100 100 c 2
 400 100 l 2
 428 100 450 78 450 50 c 0
 450 22 428 0 400 0 c 2
 100 0 l 2
 72 0 50 22 50 50 c 0
EndSplineSet
EndChar

StartChar: Sacute
Encoding: 346 346 79
Width: 600
GlyphClass: 1
Flags: MW
HStem: 0 100<86 400 100 400> 150 100<486 514> 300 100<186 400 200 400> 450 100<86 114> 600 100<186 500 200 500> 750 100<286 314> 900 100<386 414>
VStem: 50 100<486 514> 250 100<786 814> 350 100<936 964> 450 100<186 214>
LayerCount: 2
Fore
SplineSet
400 900 m 0xff40
 372 900 350 922 350 950 c 0
 350 978 372 1000 400 1000 c 0
 428 1000 450 978 450 950 c 0
 450 922 428 900 400 900 c 0xff40
300 750 m 0x3da0
 272 750 250 772 250 800 c 0
 250 828 272 850 300 850 c 0
 328 850 350 828 350 800 c 0
 350 772 328 750 300 750 c 0x3da0
150 650 m 0
 150 678 172 700 200 700 c 2
 500 700 l 2
 528 700 550 678 550 650 c 0
 550 622 528 600 500 600 c 2
 200 600 l 2
 172 600 150 622 150 650 c 0
100 450 m 0
 72 450 50 472 50 500 c 0
 50 528 72 550 100 550 c 0
 128 550 150 528 150 500 c 0
 150 472 128 450 100 450 c 0
150 350 m 0
 150 378 172 400 200 400 c 2
 400 400 l 2
 428 400 450 378 450 350 c 0
 450 322 428 300 400 300 c 2x2040
 200 300 l 2
 172 300 150 322 150 350 c 0
500 150 m 0xc120
 472 150 450 172 450 200 c 0
 450 228 472 250 500 250 c 0
 528 250 550 228 550 200 c 0
 550 172 528 150 500 150 c 0xc120
50 50 m 0
 50 78 72 100 100 100 c 2
 400 100 l 2
 428 100 450 78 450 50 c 0
 450 22 428 0 400 0 c 2x8140
 100 0 l 2
 72 0 50 22 50 50 c 0
EndSplineSet
EndChar

StartChar: Scaron
Encoding: 352 352 80
Width: 600
GlyphClass: 1
Flags: MW
HStem: 0 100<86 400 100 400> 150 100<486 514> 300 100<186 400 200 400> 450 100<86 114> 600 100<186 500 200 500> 750 100<286 314> 900 100<186 214 386 414>
VStem: 50 100<486 514> 150 100<936 964> 250 100<786 814 936 964> 350 100<936 964> 450 100<186 214>
LayerCount: 2
Fore
SplineSet
200 900 m 0xfea0
 172 900 150 922 150 950 c 0
 150 978 172 1000 200 1000 c 0
 228 1000 250 978 250 950 c 0
 250 922 228 900 200 900 c 0xfea0
400 900 m 0
 372 900 350 922 350 950 c 0
 350 978 372 1000 400 1000 c 0
 428 1000 450 978 450 950 c 0
 450 922 428 900 400 900 c 0
300 750 m 0x0440
 272 750 250 772 250 800 c 0
 250 828 272 850 300 850 c 0
 328 850 350 828 350 800 c 0
 350 772 328 750 300 750 c 0x0440
150 650 m 0x0890
 150 678 172 700 200 700 c 2
 500 700 l 2
 528 700 550 678 550 650 c 0
 550 622 528 600 500 600 c 2
 200 600 l 2
 172 600 150 622 150 650 c 0x0890
100 450 m 0x11
 72 450 50 472 50 500 c 0
 50 528 72 550 100 550 c 0
 128 550 150 528 150 500 c 0
 150 472 128 450 100 450 c 0x11
150 350 m 0x20a0
 150 378 172 400 200 400 c 2
 400 400 l 2
 428 400 450 378 450 350 c 0
 450 322 428 300 400 300 c 2
 200 300 l 2
 172 300 150 322 150 350 c 0x20a0
500 150 m 0xc110
 472 150 450 172 450 200 c 0
 450 228 472 250 500 250 c 0
 528 250 550 228 550 200 c 0
 550 172 528 150 500 150 c 0xc110
50 50 m 0
 50 78 72 100 100 100 c 2
 400 100 l 2
 428 100 450 78 450 50 c 0
 450 22 428 0 400 0 c 2x8120
 100 0 l 2
 72 0 50 22 50 50 c 0
EndSplineSet
EndChar

StartChar: Scedilla
Encoding: 350 350 81
Width: 600
GlyphClass: 1
Flags: MW
HStem: -300 100<186 300 200 300> -150 100<286 314> 0 100<86 400 100 400> 150 100<486 514> 300 100<186 400 200 400> 450 100<86 114> 600 100<186 500 200 500>
VStem: 50 100<486 514> 250 100<-114 -86> 450 100<186 214>
LayerCount: 2
Fore
SplineSet
150 650 m 0
 150 678 172 700 200 700 c 2
 500 700 l 2
 528 700 550 678 550 650 c 0
 550 622 528 600 500 600 c 2
 200 600 l 2
 172 600 150 622 150 650 c 0
100 450 m 0
 72 450 50 472 50 500 c 0
 50 528 72 550 100 550 c 0
 128 550 150 528 150 500 c 0
 150 472 128 450 100 450 c 0
150 350 m 0
 150 378 172 400 200 400 c 2
 400 400 l 2
 428 400 450 378 450 350 c 0
 450 322 428 300 400 300 c 2
 200 300 l 2
 172 300 150 322 150 350 c 0
500 150 m 0
 472 150 450 172 450 200 c 0
 450 228 472 250 500 250 c 0
 528 250 550 228 550 200 c 0
 550 172 528 150 500 150 c 0
50 50 m 0
 50 78 72 100 100 100 c 2
 400 100 l 2
 428 100 450 78 450 50 c 0
 450 22 428 0 400 0 c 2
 100 0 l 2
 72 0 50 22 50 50 c 0
300 -150 m 0
 272 -150 250 -128 250 -100 c 0
 250 -72 272 -50 300 -50 c 0
 328 -50 350 -72 350 -100 c 0
 350 -128 328 -150 300 -150 c 0
150 -250 m 0
 150 -222 172 -200 200 -200 c 2
 300 -200 l 2
 328 -200 350 -222 350 -250 c 0
 350 -278 328 -300 300 -300 c 2
 200 -300 l 2
 172 -300 150 -278 150 -250 c 0
EndSplineSet
Substitution2: "'locl' Forme localizzate in Latino lookup 2 subtable" uni0218
Substitution2: "'locl' Forme localizzate in Latino lookup 1 subtable" uni0218
Substitution2: "'aalt' Accedi a tutte le alternative lookup 0 subtable" uni0218
EndChar

StartChar: uni0218
Encoding: 536 536 82
Width: 600
GlyphClass: 1
Flags: MW
HStem: -300 100<186 214> -150 100<286 314> 0 100<86 400 100 400> 150 100<486 514> 300 100<186 400 200 400> 450 100<86 114> 600 100<186 500 200 500>
VStem: 50 100<486 514> 150 100<-264 -236> 250 100<-114 -86> 450 100<186 214>
LayerCount: 2
Fore
SplineSet
150 650 m 0xfea0
 150 678 172 700 200 700 c 2
 500 700 l 2
 528 700 550 678 550 650 c 0
 550 622 528 600 500 600 c 2
 200 600 l 2
 172 600 150 622 150 650 c 0xfea0
100 450 m 0x05
 72 450 50 472 50 500 c 0
 50 528 72 550 100 550 c 0
 128 550 150 528 150 500 c 0
 150 472 128 450 100 450 c 0x05
150 350 m 0x18a0
 150 378 172 400 200 400 c 2
 400 400 l 2
 428 400 450 378 450 350 c 0
 450 322 428 300 400 300 c 2
 200 300 l 2
 172 300 150 322 150 350 c 0x18a0
500 150 m 0
 472 150 450 172 450 200 c 0
 450 228 472 250 500 250 c 0
 528 250 550 228 550 200 c 0
 550 172 528 150 500 150 c 0
50 50 m 0x6140
 50 78 72 100 100 100 c 2
 400 100 l 2
 428 100 450 78 450 50 c 0
 450 22 428 0 400 0 c 2
 100 0 l 2
 72 0 50 22 50 50 c 0x6140
300 -150 m 0
 272 -150 250 -128 250 -100 c 0
 250 -72 272 -50 300 -50 c 0
 328 -50 350 -72 350 -100 c 0
 350 -128 328 -150 300 -150 c 0
200 -300 m 0x8080
 172 -300 150 -278 150 -250 c 0
 150 -222 172 -200 200 -200 c 0
 228 -200 250 -222 250 -250 c 0
 250 -278 228 -300 200 -300 c 0x8080
EndSplineSet
EndChar

StartChar: uni1E9E
Encoding: 7838 7838 83
Width: 600
GlyphClass: 1
Flags: MW
HStem: 0 100<86 114 300 400> 150 100<86 114 486 514> 300 100<86 114 300 400> 450 100<86 114 486 514> 600 100<186 400 200 400>
VStem: 50 100<36 64 186 214 336 364 486 514> 250 200<36 64 336 364> 450 100<186 214 486 514>
LayerCount: 2
Fore
SplineSet
150 650 m 0xfd
 150 678 172 700 200 700 c 2
 400 700 l 2
 428 700 450 678 450 650 c 0
 450 622 428 600 400 600 c 2
 200 600 l 2
 172 600 150 622 150 650 c 0xfd
100 450 m 0
 72 450 50 472 50 500 c 0
 50 528 72 550 100 550 c 0
 128 550 150 528 150 500 c 0
 150 472 128 450 100 450 c 0
500 450 m 0
 472 450 450 472 450 500 c 0
 450 528 472 550 500 550 c 0
 528 550 550 528 550 500 c 0
 550 472 528 450 500 450 c 0
100 300 m 0
 72 300 50 322 50 350 c 0
 50 378 72 400 100 400 c 0
 128 400 150 378 150 350 c 0
 150 322 128 300 100 300 c 0
250 350 m 0x66
 250 378 272 400 300 400 c 2
 400 400 l 2
 428 400 450 378 450 350 c 0
 450 322 428 300 400 300 c 2
 300 300 l 2
 272 300 250 322 250 350 c 0x66
100 150 m 0
 72 150 50 172 50 200 c 0
 50 228 72 250 100 250 c 0
 128 250 150 228 150 200 c 0
 150 172 128 150 100 150 c 0
500 150 m 0xc5
 472 150 450 172 450 200 c 0
 450 228 472 250 500 250 c 0
 528 250 550 228 550 200 c 0
 550 172 528 150 500 150 c 0xc5
100 0 m 0
 72 0 50 22 50 50 c 0
 50 78 72 100 100 100 c 0
 128 100 150 78 150 50 c 0
 150 22 128 0 100 0 c 0
250 50 m 0x82
 250 78 272 100 300 100 c 2
 400 100 l 2
 428 100 450 78 450 50 c 0
 450 22 428 0 400 0 c 2
 300 0 l 2
 272 0 250 22 250 50 c 0x82
EndSplineSet
EndChar

StartChar: T
Encoding: 84 84 84
Width: 600
GlyphClass: 1
Flags: MW
HStem: 0 100<286 314> 150 100<286 314> 300 100<286 314> 450 100<286 314> 600 100<86 500 100 500>
VStem: 250 100<36 64 186 214 336 364 486 514>
LayerCount: 2
Fore
SplineSet
50 650 m 0
 50 678 72 700 100 700 c 2
 500 700 l 2
 528 700 550 678 550 650 c 0
 550 622 528 600 500 600 c 2
 100 600 l 2
 72 600 50 622 50 650 c 0
300 450 m 0
 272 450 250 472 250 500 c 0
 250 528 272 550 300 550 c 0
 328 550 350 528 350 500 c 0
 350 472 328 450 300 450 c 0
300 300 m 0
 272 300 250 322 250 350 c 0
 250 378 272 400 300 400 c 0
 328 400 350 378 350 350 c 0
 350 322 328 300 300 300 c 0
300 150 m 0
 272 150 250 172 250 200 c 0
 250 228 272 250 300 250 c 0
 328 250 350 228 350 200 c 0
 350 172 328 150 300 150 c 0
300 0 m 0
 272 0 250 22 250 50 c 0
 250 78 272 100 300 100 c 0
 328 100 350 78 350 50 c 0
 350 22 328 0 300 0 c 0
EndSplineSet
EndChar

StartChar: Tbar
Encoding: 358 358 85
Width: 600
GlyphClass: 1
Flags: MW
HStem: 0 100<286 314> 150 100<286 314> 300 100<186 400 200 400> 450 100<286 314> 600 100<86 500 100 500>
VStem: 250 100<36 64 186 214 486 514>
LayerCount: 2
Fore
SplineSet
50 650 m 0
 50 678 72 700 100 700 c 2
 500 700 l 2
 528 700 550 678 550 650 c 0
 550 622 528 600 500 600 c 2
 100 600 l 2
 72 600 50 622 50 650 c 0
300 450 m 0
 272 450 250 472 250 500 c 0
 250 528 272 550 300 550 c 0
 328 550 350 528 350 500 c 0
 350 472 328 450 300 450 c 0
150 350 m 0
 150 378 172 400 200 400 c 2
 400 400 l 2
 428 400 450 378 450 350 c 0
 450 322 428 300 400 300 c 2
 200 300 l 2
 172 300 150 322 150 350 c 0
300 150 m 0
 272 150 250 172 250 200 c 0
 250 228 272 250 300 250 c 0
 328 250 350 228 350 200 c 0
 350 172 328 150 300 150 c 0
300 0 m 0
 272 0 250 22 250 50 c 0
 250 78 272 100 300 100 c 0
 328 100 350 78 350 50 c 0
 350 22 328 0 300 0 c 0
EndSplineSet
EndChar

StartChar: Tcaron
Encoding: 356 356 86
Width: 600
GlyphClass: 1
Flags: MW
HStem: 0 100<286 314> 150 100<286 314> 300 100<286 314> 450 100<286 314> 600 100<86 500 100 500> 750 100<286 314> 900 100<186 214 386 414>
VStem: 150 100<936 964> 250 100<36 64 186 214 336 364 486 514 786 814 936 964> 350 100<936 964>
LayerCount: 2
Fore
SplineSet
200 900 m 0x0340
 172 900 150 922 150 950 c 0
 150 978 172 1000 200 1000 c 0
 228 1000 250 978 250 950 c 0
 250 922 228 900 200 900 c 0x0340
400 900 m 0
 372 900 350 922 350 950 c 0
 350 978 372 1000 400 1000 c 0
 428 1000 450 978 450 950 c 0
 450 922 428 900 400 900 c 0
300 750 m 0xfc80
 272 750 250 772 250 800 c 0
 250 828 272 850 300 850 c 0
 328 850 350 828 350 800 c 0
 350 772 328 750 300 750 c 0xfc80
50 650 m 0
 50 678 72 700 100 700 c 2
 500 700 l 2
 528 700 550 678 550 650 c 0
 550 622 528 600 500 600 c 2
 100 600 l 2
 72 600 50 622 50 650 c 0
300 450 m 0
 272 450 250 472 250 500 c 0
 250 528 272 550 300 550 c 0
 328 550 350 528 350 500 c 0
 350 472 328 450 300 450 c 0
300 300 m 0
 272 300 250 322 250 350 c 0
 250 378 272 400 300 400 c 0
 328 400 350 378 350 350 c 0
 350 322 328 300 300 300 c 0
300 150 m 0
 272 150 250 172 250 200 c 0
 250 228 272 250 300 250 c 0
 328 250 350 228 350 200 c 0
 350 172 328 150 300 150 c 0
300 0 m 0
 272 0 250 22 250 50 c 0
 250 78 272 100 300 100 c 0
 328 100 350 78 350 50 c 0
 350 22 328 0 300 0 c 0
EndSplineSet
EndChar

StartChar: uni0162
Encoding: 354 354 87
Width: 600
GlyphClass: 1
Flags: MW
HStem: -300 100<186 300 200 300> -150 100<286 314> 0 100<286 314> 150 100<286 314> 300 100<286 314> 450 100<286 314> 600 100<86 500 100 500>
VStem: 250 100<-114 -86 36 64 186 214 336 364 486 514>
LayerCount: 2
Fore
SplineSet
50 650 m 0
 50 678 72 700 100 700 c 2
 500 700 l 2
 528 700 550 678 550 650 c 0
 550 622 528 600 500 600 c 2
 100 600 l 2
 72 600 50 622 50 650 c 0
300 450 m 0
 272 450 250 472 250 500 c 0
 250 528 272 550 300 550 c 0
 328 550 350 528 350 500 c 0
 350 472 328 450 300 450 c 0
300 300 m 0
 272 300 250 322 250 350 c 0
 250 378 272 400 300 400 c 0
 328 400 350 378 350 350 c 0
 350 322 328 300 300 300 c 0
300 150 m 0
 272 150 250 172 250 200 c 0
 250 228 272 250 300 250 c 0
 328 250 350 228 350 200 c 0
 350 172 328 150 300 150 c 0
300 0 m 0
 272 0 250 22 250 50 c 0
 250 78 272 100 300 100 c 0
 328 100 350 78 350 50 c 0
 350 22 328 0 300 0 c 0
300 -150 m 0
 272 -150 250 -128 250 -100 c 0
 250 -72 272 -50 300 -50 c 0
 328 -50 350 -72 350 -100 c 0
 350 -128 328 -150 300 -150 c 0
150 -250 m 0
 150 -222 172 -200 200 -200 c 2
 300 -200 l 2
 328 -200 350 -222 350 -250 c 0
 350 -278 328 -300 300 -300 c 2
 200 -300 l 2
 172 -300 150 -278 150 -250 c 0
EndSplineSet
Substitution2: "'locl' Forme localizzate in Latino lookup 2 subtable" uni021A
Substitution2: "'locl' Forme localizzate in Latino lookup 1 subtable" uni021A
Substitution2: "'aalt' Accedi a tutte le alternative lookup 0 subtable" uni021A
EndChar

StartChar: uni021A
Encoding: 538 538 88
Width: 600
GlyphClass: 1
Flags: MW
HStem: -300 100<186 214> -150 100<286 314> 0 100<286 314> 150 100<286 314> 300 100<286 314> 450 100<286 314> 600 100<86 500 100 500>
VStem: 150 100<-264 -236> 250 100<-114 -86 36 64 186 214 336 364 486 514>
LayerCount: 2
Fore
SplineSet
50 650 m 0xfe80
 50 678 72 700 100 700 c 2
 500 700 l 2
 528 700 550 678 550 650 c 0
 550 622 528 600 500 600 c 2
 100 600 l 2
 72 600 50 622 50 650 c 0xfe80
300 450 m 0
 272 450 250 472 250 500 c 0
 250 528 272 550 300 550 c 0
 328 550 350 528 350 500 c 0
 350 472 328 450 300 450 c 0
300 300 m 0
 272 300 250 322 250 350 c 0
 250 378 272 400 300 400 c 0
 328 400 350 378 350 350 c 0
 350 322 328 300 300 300 c 0
300 150 m 0
 272 150 250 172 250 200 c 0
 250 228 272 250 300 250 c 0
 328 250 350 228 350 200 c 0
 350 172 328 150 300 150 c 0
300 0 m 0
 272 0 250 22 250 50 c 0
 250 78 272 100 300 100 c 0
 328 100 350 78 350 50 c 0
 350 22 328 0 300 0 c 0
300 -150 m 0
 272 -150 250 -128 250 -100 c 0
 250 -72 272 -50 300 -50 c 0
 328 -50 350 -72 350 -100 c 0
 350 -128 328 -150 300 -150 c 0
200 -300 m 0x81
 172 -300 150 -278 150 -250 c 0
 150 -222 172 -200 200 -200 c 0
 228 -200 250 -222 250 -250 c 0
 250 -278 228 -300 200 -300 c 0x81
EndSplineSet
EndChar

StartChar: U
Encoding: 85 85 89
Width: 600
GlyphClass: 1
Flags: MW
HStem: 0 100<186 400 200 400> 150 100<86 114 486 514> 300 100<86 114 486 514> 450 100<86 114 486 514> 600 100<86 114 486 514>
VStem: 50 100<186 214 336 364 486 514 636 664> 450 100<186 214 336 364 486 514 636 664>
LayerCount: 2
Fore
SplineSet
100 600 m 0
 72 600 50 622 50 650 c 0
 50 678 72 700 100 700 c 0
 128 700 150 678 150 650 c 0
 150 622 128 600 100 600 c 0
500 600 m 0
 472 600 450 622 450 650 c 0
 450 678 472 700 500 700 c 0
 528 700 550 678 550 650 c 0
 550 622 528 600 500 600 c 0
100 450 m 0
 72 450 50 472 50 500 c 0
 50 528 72 550 100 550 c 0
 128 550 150 528 150 500 c 0
 150 472 128 450 100 450 c 0
500 450 m 0
 472 450 450 472 450 500 c 0
 450 528 472 550 500 550 c 0
 528 550 550 528 550 500 c 0
 550 472 528 450 500 450 c 0
100 300 m 0
 72 300 50 322 50 350 c 0
 50 378 72 400 100 400 c 0
 128 400 150 378 150 350 c 0
 150 322 128 300 100 300 c 0
500 300 m 0
 472 300 450 322 450 350 c 0
 450 378 472 400 500 400 c 0
 528 400 550 378 550 350 c 0
 550 322 528 300 500 300 c 0
100 150 m 0
 72 150 50 172 50 200 c 0
 50 228 72 250 100 250 c 0
 128 250 150 228 150 200 c 0
 150 172 128 150 100 150 c 0
500 150 m 0
 472 150 450 172 450 200 c 0
 450 228 472 250 500 250 c 0
 528 250 550 228 550 200 c 0
 550 172 528 150 500 150 c 0
150 50 m 0
 150 78 172 100 200 100 c 2
 400 100 l 2
 428 100 450 78 450 50 c 0
 450 22 428 0 400 0 c 2
 200 0 l 2
 172 0 150 22 150 50 c 0
EndSplineSet
EndChar

StartChar: Uacute
Encoding: 218 218 90
Width: 600
GlyphClass: 1
Flags: MW
HStem: 0 100<186 400 200 400> 150 100<86 114 486 514> 300 100<86 114 486 514> 450 100<86 114 486 514> 600 100<86 114 486 514> 750 100<286 314> 900 100<386 414>
VStem: 50 100<186 214 336 364 486 514 636 664> 250 100<786 814> 350 100<936 964> 450 100<186 214 336 364 486 514 636 664>
LayerCount: 2
Fore
SplineSet
400 900 m 0x0240
 372 900 350 922 350 950 c 0
 350 978 372 1000 400 1000 c 0
 428 1000 450 978 450 950 c 0
 450 922 428 900 400 900 c 0x0240
300 750 m 0xfda0
 272 750 250 772 250 800 c 0
 250 828 272 850 300 850 c 0
 328 850 350 828 350 800 c 0
 350 772 328 750 300 750 c 0xfda0
100 600 m 0
 72 600 50 622 50 650 c 0
 50 678 72 700 100 700 c 0
 128 700 150 678 150 650 c 0
 150 622 128 600 100 600 c 0
500 600 m 0
 472 600 450 622 450 650 c 0
 450 678 472 700 500 700 c 0
 528 700 550 678 550 650 c 0
 550 622 528 600 500 600 c 0
100 450 m 0
 72 450 50 472 50 500 c 0
 50 528 72 550 100 550 c 0
 128 550 150 528 150 500 c 0
 150 472 128 450 100 450 c 0
500 450 m 0
 472 450 450 472 450 500 c 0
 450 528 472 550 500 550 c 0
 528 550 550 528 550 500 c 0
 550 472 528 450 500 450 c 0
100 300 m 0
 72 300 50 322 50 350 c 0
 50 378 72 400 100 400 c 0
 128 400 150 378 150 350 c 0
 150 322 128 300 100 300 c 0
500 300 m 0
 472 300 450 322 450 350 c 0
 450 378 472 400 500 400 c 0
 528 400 550 378 550 350 c 0
 550 322 528 300 500 300 c 0
100 150 m 0
 72 150 50 172 50 200 c 0
 50 228 72 250 100 250 c 0
 128 250 150 228 150 200 c 0
 150 172 128 150 100 150 c 0
500 150 m 0
 472 150 450 172 450 200 c 0
 450 228 472 250 500 250 c 0
 528 250 550 228 550 200 c 0
 550 172 528 150 500 150 c 0
150 50 m 0
 150 78 172 100 200 100 c 2
 400 100 l 2
 428 100 450 78 450 50 c 0
 450 22 428 0 400 0 c 2x8040
 200 0 l 2
 172 0 150 22 150 50 c 0
EndSplineSet
EndChar

StartChar: Ucircumflex
Encoding: 219 219 91
Width: 600
GlyphClass: 1
Flags: MW
HStem: 0 100<186 400 200 400> 150 100<86 114 486 514> 300 100<86 114 486 514> 450 100<86 114 486 514> 600 100<86 114 486 514> 750 100<186 214 386 414> 900 100<286 314>
VStem: 50 100<186 214 336 364 486 514 636 664> 150 100<786 814> 250 100<786 814 936 964> 350 100<786 814> 450 100<186 214 336 364 486 514 636 664>
LayerCount: 2
Fore
SplineSet
300 900 m 0xff50
 272 900 250 922 250 950 c 0
 250 978 272 1000 300 1000 c 0
 328 1000 350 978 350 950 c 0
 350 922 328 900 300 900 c 0xff50
200 750 m 0x04a0
 172 750 150 772 150 800 c 0
 150 828 172 850 200 850 c 0
 228 850 250 828 250 800 c 0
 250 772 228 750 200 750 c 0x04a0
400 750 m 0
 372 750 350 772 350 800 c 0
 350 828 372 850 400 850 c 0
 428 850 450 828 450 800 c 0
 450 772 428 750 400 750 c 0
100 600 m 0x7910
 72 600 50 622 50 650 c 0
 50 678 72 700 100 700 c 0
 128 700 150 678 150 650 c 0
 150 622 128 600 100 600 c 0x7910
500 600 m 0
 472 600 450 622 450 650 c 0
 450 678 472 700 500 700 c 0
 528 700 550 678 550 650 c 0
 550 622 528 600 500 600 c 0
100 450 m 0
 72 450 50 472 50 500 c 0
 50 528 72 550 100 550 c 0
 128 550 150 528 150 500 c 0
 150 472 128 450 100 450 c 0
500 450 m 0
 472 450 450 472 450 500 c 0
 450 528 472 550 500 550 c 0
 528 550 550 528 550 500 c 0
 550 472 528 450 500 450 c 0
100 300 m 0
 72 300 50 322 50 350 c 0
 50 378 72 400 100 400 c 0
 128 400 150 378 150 350 c 0
 150 322 128 300 100 300 c 0
500 300 m 0
 472 300 450 322 450 350 c 0
 450 378 472 400 500 400 c 0
 528 400 550 378 550 350 c 0
 550 322 528 300 500 300 c 0
100 150 m 0
 72 150 50 172 50 200 c 0
 50 228 72 250 100 250 c 0
 128 250 150 228 150 200 c 0
 150 172 128 150 100 150 c 0
500 150 m 0
 472 150 450 172 450 200 c 0
 450 228 472 250 500 250 c 0
 528 250 550 228 550 200 c 0
 550 172 528 150 500 150 c 0
150 50 m 0x80a0
 150 78 172 100 200 100 c 2
 400 100 l 2
 428 100 450 78 450 50 c 0
 450 22 428 0 400 0 c 2
 200 0 l 2
 172 0 150 22 150 50 c 0x80a0
EndSplineSet
EndChar

StartChar: Udieresis
Encoding: 220 220 92
Width: 600
GlyphClass: 1
Flags: MW
HStem: 0 100<186 400 200 400> 150 100<86 114 486 514> 300 100<86 114 486 514> 450 100<86 114 486 514> 600 100<86 114 486 514> 900 100<186 214 386 414>
VStem: 50 100<186 214 336 364 486 514 636 664> 150 100<936 964> 350 100<936 964> 450 100<186 214 336 364 486 514 636 664>
LayerCount: 2
Fore
SplineSet
200 900 m 0x0580
 172 900 150 922 150 950 c 0
 150 978 172 1000 200 1000 c 0
 228 1000 250 978 250 950 c 0
 250 922 228 900 200 900 c 0x0580
400 900 m 0
 372 900 350 922 350 950 c 0
 350 978 372 1000 400 1000 c 0
 428 1000 450 978 450 950 c 0
 450 922 428 900 400 900 c 0
100 600 m 0x7a40
 72 600 50 622 50 650 c 0
 50 678 72 700 100 700 c 0
 128 700 150 678 150 650 c 0
 150 622 128 600 100 600 c 0x7a40
500 600 m 0
 472 600 450 622 450 650 c 0
 450 678 472 700 500 700 c 0
 528 700 550 678 550 650 c 0
 550 622 528 600 500 600 c 0
100 450 m 0
 72 450 50 472 50 500 c 0
 50 528 72 550 100 550 c 0
 128 550 150 528 150 500 c 0
 150 472 128 450 100 450 c 0
500 450 m 0
 472 450 450 472 450 500 c 0
 450 528 472 550 500 550 c 0
 528 550 550 528 550 500 c 0
 550 472 528 450 500 450 c 0
100 300 m 0
 72 300 50 322 50 350 c 0
 50 378 72 400 100 400 c 0
 128 400 150 378 150 350 c 0
 150 322 128 300 100 300 c 0
500 300 m 0
 472 300 450 322 450 350 c 0
 450 378 472 400 500 400 c 0
 528 400 550 378 550 350 c 0
 550 322 528 300 500 300 c 0
100 150 m 0
 72 150 50 172 50 200 c 0
 50 228 72 250 100 250 c 0
 128 250 150 228 150 200 c 0
 150 172 128 150 100 150 c 0
500 150 m 0
 472 150 450 172 450 200 c 0
 450 228 472 250 500 250 c 0
 528 250 550 228 550 200 c 0
 550 172 528 150 500 150 c 0
150 50 m 0x8180
 150 78 172 100 200 100 c 2
 400 100 l 2
 428 100 450 78 450 50 c 0
 450 22 428 0 400 0 c 2
 200 0 l 2
 172 0 150 22 150 50 c 0x8180
EndSplineSet
EndChar

StartChar: Ugrave
Encoding: 217 217 93
Width: 600
GlyphClass: 1
Flags: MW
HStem: 0 100<186 400 200 400> 150 100<86 114 486 514> 300 100<86 114 486 514> 450 100<86 114 486 514> 600 100<86 114 486 514> 750 100<286 314> 900 100<186 214>
VStem: 50 100<186 214 336 364 486 514 636 664> 150 100<936 964> 250 100<786 814> 450 100<186 214 336 364 486 514 636 664>
LayerCount: 2
Fore
SplineSet
200 900 m 0x0280
 172 900 150 922 150 950 c 0
 150 978 172 1000 200 1000 c 0
 228 1000 250 978 250 950 c 0
 250 922 228 900 200 900 c 0x0280
300 750 m 0x7d60
 272 750 250 772 250 800 c 0
 250 828 272 850 300 850 c 0
 328 850 350 828 350 800 c 0
 350 772 328 750 300 750 c 0x7d60
100 600 m 0
 72 600 50 622 50 650 c 0
 50 678 72 700 100 700 c 0
 128 700 150 678 150 650 c 0
 150 622 128 600 100 600 c 0
500 600 m 0
 472 600 450 622 450 650 c 0
 450 678 472 700 500 700 c 0
 528 700 550 678 550 650 c 0
 550 622 528 600 500 600 c 0
100 450 m 0
 72 450 50 472 50 500 c 0
 50 528 72 550 100 550 c 0
 128 550 150 528 150 500 c 0
 150 472 128 450 100 450 c 0
500 450 m 0
 472 450 450 472 450 500 c 0
 450 528 472 550 500 550 c 0
 528 550 550 528 550 500 c 0
 550 472 528 450 500 450 c 0
100 300 m 0
 72 300 50 322 50 350 c 0
 50 378 72 400 100 400 c 0
 128 400 150 378 150 350 c 0
 150 322 128 300 100 300 c 0
500 300 m 0
 472 300 450 322 450 350 c 0
 450 378 472 400 500 400 c 0
 528 400 550 378 550 350 c 0
 550 322 528 300 500 300 c 0
100 150 m 0
 72 150 50 172 50 200 c 0
 50 228 72 250 100 250 c 0
 128 250 150 228 150 200 c 0
 150 172 128 150 100 150 c 0
500 150 m 0
 472 150 450 172 450 200 c 0
 450 228 472 250 500 250 c 0
 528 250 550 228 550 200 c 0
 550 172 528 150 500 150 c 0
150 50 m 0x8080
 150 78 172 100 200 100 c 2
 400 100 l 2
 428 100 450 78 450 50 c 0
 450 22 428 0 400 0 c 2
 200 0 l 2
 172 0 150 22 150 50 c 0x8080
EndSplineSet
EndChar

StartChar: Uhungarumlaut
Encoding: 368 368 94
Width: 600
GlyphClass: 1
Flags: MW
HStem: 0 100<186 400 200 400> 150 100<86 114 486 514> 300 100<86 114 486 514> 450 100<86 114 486 514> 600 100<86 114 486 514> 750 100<186 300 200 300> 900 100<286 400 300 400>
VStem: 50 100<186 214 336 364 486 514 636 664> 450 100<186 214 336 364 486 514 636 664>
LayerCount: 2
Fore
SplineSet
250 950 m 0
 250 978 272 1000 300 1000 c 2
 400 1000 l 2
 428 1000 450 978 450 950 c 0
 450 922 428 900 400 900 c 2
 300 900 l 2
 272 900 250 922 250 950 c 0
150 800 m 0
 150 828 172 850 200 850 c 2
 300 850 l 2
 328 850 350 828 350 800 c 0
 350 772 328 750 300 750 c 2
 200 750 l 2
 172 750 150 772 150 800 c 0
100 600 m 0
 72 600 50 622 50 650 c 0
 50 678 72 700 100 700 c 0
 128 700 150 678 150 650 c 0
 150 622 128 600 100 600 c 0
500 600 m 0
 472 600 450 622 450 650 c 0
 450 678 472 700 500 700 c 0
 528 700 550 678 550 650 c 0
 550 622 528 600 500 600 c 0
100 450 m 0
 72 450 50 472 50 500 c 0
 50 528 72 550 100 550 c 0
 128 550 150 528 150 500 c 0
 150 472 128 450 100 450 c 0
500 450 m 0
 472 450 450 472 450 500 c 0
 450 528 472 550 500 550 c 0
 528 550 550 528 550 500 c 0
 550 472 528 450 500 450 c 0
100 300 m 0
 72 300 50 322 50 350 c 0
 50 378 72 400 100 400 c 0
 128 400 150 378 150 350 c 0
 150 322 128 300 100 300 c 0
500 300 m 0
 472 300 450 322 450 350 c 0
 450 378 472 400 500 400 c 0
 528 400 550 378 550 350 c 0
 550 322 528 300 500 300 c 0
100 150 m 0
 72 150 50 172 50 200 c 0
 50 228 72 250 100 250 c 0
 128 250 150 228 150 200 c 0
 150 172 128 150 100 150 c 0
500 150 m 0
 472 150 450 172 450 200 c 0
 450 228 472 250 500 250 c 0
 528 250 550 228 550 200 c 0
 550 172 528 150 500 150 c 0
150 50 m 0
 150 78 172 100 200 100 c 2
 400 100 l 2
 428 100 450 78 450 50 c 0
 450 22 428 0 400 0 c 2
 200 0 l 2
 172 0 150 22 150 50 c 0
EndSplineSet
EndChar

StartChar: Umacron
Encoding: 362 362 95
Width: 600
GlyphClass: 1
Flags: MW
HStem: 0 100<186 400 200 400> 150 100<86 114 486 514> 300 100<86 114 486 514> 450 100<86 114 486 514> 600 100<86 114 486 514> 900 100<186 400 200 400>
VStem: 50 100<186 214 336 364 486 514 636 664> 450 100<186 214 336 364 486 514 636 664>
LayerCount: 2
Fore
SplineSet
150 950 m 0
 150 978 172 1000 200 1000 c 2
 400 1000 l 2
 428 1000 450 978 450 950 c 0
 450 922 428 900 400 900 c 2
 200 900 l 2
 172 900 150 922 150 950 c 0
100 600 m 0
 72 600 50 622 50 650 c 0
 50 678 72 700 100 700 c 0
 128 700 150 678 150 650 c 0
 150 622 128 600 100 600 c 0
500 600 m 0
 472 600 450 622 450 650 c 0
 450 678 472 700 500 700 c 0
 528 700 550 678 550 650 c 0
 550 622 528 600 500 600 c 0
100 450 m 0
 72 450 50 472 50 500 c 0
 50 528 72 550 100 550 c 0
 128 550 150 528 150 500 c 0
 150 472 128 450 100 450 c 0
500 450 m 0
 472 450 450 472 450 500 c 0
 450 528 472 550 500 550 c 0
 528 550 550 528 550 500 c 0
 550 472 528 450 500 450 c 0
100 300 m 0
 72 300 50 322 50 350 c 0
 50 378 72 400 100 400 c 0
 128 400 150 378 150 350 c 0
 150 322 128 300 100 300 c 0
500 300 m 0
 472 300 450 322 450 350 c 0
 450 378 472 400 500 400 c 0
 528 400 550 378 550 350 c 0
 550 322 528 300 500 300 c 0
100 150 m 0
 72 150 50 172 50 200 c 0
 50 228 72 250 100 250 c 0
 128 250 150 228 150 200 c 0
 150 172 128 150 100 150 c 0
500 150 m 0
 472 150 450 172 450 200 c 0
 450 228 472 250 500 250 c 0
 528 250 550 228 550 200 c 0
 550 172 528 150 500 150 c 0
150 50 m 0
 150 78 172 100 200 100 c 2
 400 100 l 2
 428 100 450 78 450 50 c 0
 450 22 428 0 400 0 c 2
 200 0 l 2
 172 0 150 22 150 50 c 0
EndSplineSet
EndChar

StartChar: Uogonek
Encoding: 370 370 96
Width: 600
GlyphClass: 1
Flags: MW
HStem: -300 100<386 500 400 500> -150 100<386 414> 0 100<186 400 200 400> 150 100<86 114 486 514> 300 100<86 114 486 514> 450 100<86 114 486 514> 600 100<86 114 486 514>
VStem: 50 100<186 214 336 364 486 514 636 664> 350 100<-114 -86> 450 100<186 214 336 364 486 514 636 664>
LayerCount: 2
Fore
SplineSet
100 600 m 0xff40
 72 600 50 622 50 650 c 0
 50 678 72 700 100 700 c 0
 128 700 150 678 150 650 c 0
 150 622 128 600 100 600 c 0xff40
500 600 m 0
 472 600 450 622 450 650 c 0
 450 678 472 700 500 700 c 0
 528 700 550 678 550 650 c 0
 550 622 528 600 500 600 c 0
100 450 m 0
 72 450 50 472 50 500 c 0
 50 528 72 550 100 550 c 0
 128 550 150 528 150 500 c 0
 150 472 128 450 100 450 c 0
500 450 m 0
 472 450 450 472 450 500 c 0
 450 528 472 550 500 550 c 0
 528 550 550 528 550 500 c 0
 550 472 528 450 500 450 c 0
100 300 m 0
 72 300 50 322 50 350 c 0
 50 378 72 400 100 400 c 0
 128 400 150 378 150 350 c 0
 150 322 128 300 100 300 c 0
500 300 m 0
 472 300 450 322 450 350 c 0
 450 378 472 400 500 400 c 0
 528 400 550 378 550 350 c 0
 550 322 528 300 500 300 c 0
100 150 m 0
 72 150 50 172 50 200 c 0
 50 228 72 250 100 250 c 0
 128 250 150 228 150 200 c 0
 150 172 128 150 100 150 c 0
500 150 m 0
 472 150 450 172 450 200 c 0
 450 228 472 250 500 250 c 0
 528 250 550 228 550 200 c 0
 550 172 528 150 500 150 c 0
150 50 m 0
 150 78 172 100 200 100 c 2
 400 100 l 2
 428 100 450 78 450 50 c 0
 450 22 428 0 400 0 c 2x2080
 200 0 l 2
 172 0 150 22 150 50 c 0
400 -150 m 0xc080
 372 -150 350 -128 350 -100 c 0
 350 -72 372 -50 400 -50 c 0
 428 -50 450 -72 450 -100 c 0
 450 -128 428 -150 400 -150 c 0xc080
350 -250 m 0
 350 -222 372 -200 400 -200 c 2x8080
 500 -200 l 2
 528 -200 550 -222 550 -250 c 0
 550 -278 528 -300 500 -300 c 2x8040
 400 -300 l 2
 372 -300 350 -278 350 -250 c 0
EndSplineSet
EndChar

StartChar: Uring
Encoding: 366 366 97
Width: 600
GlyphClass: 1
Flags: MW
HStem: 0 100<186 400 200 400> 150 100<86 114 486 514> 300 100<86 114 486 514> 450 100<86 114 486 514> 600 100<86 114 486 514> 750 100<186 300 200 300> 900 100<186 300 200 300>
VStem: 50 100<186 214 336 364 486 514 636 664> 150 200<636 814 786 814 936 964> 450 100<186 214 336 364 486 514 636 664>
LayerCount: 2
Fore
SplineSet
150 950 m 0x0680
 150 978 172 1000 200 1000 c 2
 300 1000 l 2
 328 1000 350 978 350 950 c 0
 350 922 328 900 300 900 c 2
 200 900 l 2
 172 900 150 922 150 950 c 0x0680
150 800 m 0
 150 828 172 850 200 850 c 2
 300 850 l 2
 328 850 350 828 350 800 c 0
 350 772 328 750 300 750 c 2
 200 750 l 2
 172 750 150 772 150 800 c 0
100 600 m 0xf940
 72 600 50 622 50 650 c 0
 50 678 72 700 100 700 c 0
 128 700 150 678 150 650 c 0
 150 622 128 600 100 600 c 0xf940
500 600 m 0
 472 600 450 622 450 650 c 0
 450 678 472 700 500 700 c 0
 528 700 550 678 550 650 c 0
 550 622 528 600 500 600 c 0
100 450 m 0
 72 450 50 472 50 500 c 0
 50 528 72 550 100 550 c 0
 128 550 150 528 150 500 c 0
 150 472 128 450 100 450 c 0
500 450 m 0
 472 450 450 472 450 500 c 0
 450 528 472 550 500 550 c 0
 528 550 550 528 550 500 c 0
 550 472 528 450 500 450 c 0
100 300 m 0
 72 300 50 322 50 350 c 0
 50 378 72 400 100 400 c 0
 128 400 150 378 150 350 c 0
 150 322 128 300 100 300 c 0
500 300 m 0
 472 300 450 322 450 350 c 0
 450 378 472 400 500 400 c 0
 528 400 550 378 550 350 c 0
 550 322 528 300 500 300 c 0
100 150 m 0
 72 150 50 172 50 200 c 0
 50 228 72 250 100 250 c 0
 128 250 150 228 150 200 c 0
 150 172 128 150 100 150 c 0
500 150 m 0
 472 150 450 172 450 200 c 0
 450 228 472 250 500 250 c 0
 528 250 550 228 550 200 c 0
 550 172 528 150 500 150 c 0
150 50 m 0
 150 78 172 100 200 100 c 2
 400 100 l 2
 428 100 450 78 450 50 c 0
 450 22 428 0 400 0 c 2
 200 0 l 2
 172 0 150 22 150 50 c 0
EndSplineSet
EndChar

StartChar: V
Encoding: 86 86 98
Width: 600
GlyphClass: 1
Flags: MW
HStem: 0 100<286 314> 150 100<186 214 386 414> 300 100<86 114 486 514> 450 100<86 114 486 514> 600 100<86 114 486 514>
VStem: 50 100<336 364 486 514 636 664> 150 100<186 214> 250 100<36 64 186 214> 350 100<186 214> 450 100<336 364 486 514 636 664>
LayerCount: 2
Fore
SplineSet
100 600 m 0xfd40
 72 600 50 622 50 650 c 0
 50 678 72 700 100 700 c 0
 128 700 150 678 150 650 c 0
 150 622 128 600 100 600 c 0xfd40
500 600 m 0
 472 600 450 622 450 650 c 0
 450 678 472 700 500 700 c 0
 528 700 550 678 550 650 c 0
 550 622 528 600 500 600 c 0
100 450 m 0
 72 450 50 472 50 500 c 0
 50 528 72 550 100 550 c 0
 128 550 150 528 150 500 c 0
 150 472 128 450 100 450 c 0
500 450 m 0
 472 450 450 472 450 500 c 0
 450 528 472 550 500 550 c 0
 528 550 550 528 550 500 c 0
 550 472 528 450 500 450 c 0
100 300 m 0
 72 300 50 322 50 350 c 0
 50 378 72 400 100 400 c 0
 128 400 150 378 150 350 c 0
 150 322 128 300 100 300 c 0
500 300 m 0
 472 300 450 322 450 350 c 0
 450 378 472 400 500 400 c 0
 528 400 550 378 550 350 c 0
 550 322 528 300 500 300 c 0
200 150 m 0x4280
 172 150 150 172 150 200 c 0
 150 228 172 250 200 250 c 0
 228 250 250 228 250 200 c 0
 250 172 228 150 200 150 c 0x4280
400 150 m 0
 372 150 350 172 350 200 c 0
 350 228 372 250 400 250 c 0
 428 250 450 228 450 200 c 0
 450 172 428 150 400 150 c 0
300 0 m 0x81
 272 0 250 22 250 50 c 0
 250 78 272 100 300 100 c 0
 328 100 350 78 350 50 c 0
 350 22 328 0 300 0 c 0x81
EndSplineSet
EndChar

StartChar: W
Encoding: 87 87 99
Width: 600
GlyphClass: 1
Flags: MW
HStem: 0 100<186 214 386 414> 150 100<86 114 286 314 486 514> 300 100<86 114 286 314 486 514> 450 100<86 114 486 514> 600 100<86 114 486 514>
VStem: 50 100<186 214 336 364 486 514 636 664> 150 100<36 64 186 214 336 364> 250 100<36 64 186 214 336 364> 350 100<36 64 186 214 336 364> 450 100<186 214 336 364 486 514 636 664>
LayerCount: 2
Fore
SplineSet
100 600 m 0xfd40
 72 600 50 622 50 650 c 0
 50 678 72 700 100 700 c 0
 128 700 150 678 150 650 c 0
 150 622 128 600 100 600 c 0xfd40
500 600 m 0
 472 600 450 622 450 650 c 0
 450 678 472 700 500 700 c 0
 528 700 550 678 550 650 c 0
 550 622 528 600 500 600 c 0
100 450 m 0
 72 450 50 472 50 500 c 0
 50 528 72 550 100 550 c 0
 128 550 150 528 150 500 c 0
 150 472 128 450 100 450 c 0
500 450 m 0
 472 450 450 472 450 500 c 0
 450 528 472 550 500 550 c 0
 528 550 550 528 550 500 c 0
 550 472 528 450 500 450 c 0
100 300 m 0
 72 300 50 322 50 350 c 0
 50 378 72 400 100 400 c 0
 128 400 150 378 150 350 c 0
 150 322 128 300 100 300 c 0
300 300 m 0
 272 300 250 322 250 350 c 0
 250 378 272 400 300 400 c 0
 328 400 350 378 350 350 c 0
 350 322 328 300 300 300 c 0
500 300 m 0
 472 300 450 322 450 350 c 0
 450 378 472 400 500 400 c 0
 528 400 550 378 550 350 c 0
 550 322 528 300 500 300 c 0
100 150 m 0
 72 150 50 172 50 200 c 0
 50 228 72 250 100 250 c 0
 128 250 150 228 150 200 c 0
 150 172 128 150 100 150 c 0
300 150 m 0
 272 150 250 172 250 200 c 0
 250 228 272 250 300 250 c 0
 328 250 350 228 350 200 c 0
 350 172 328 150 300 150 c 0
500 150 m 0
 472 150 450 172 450 200 c 0
 450 228 472 250 500 250 c 0
 528 250 550 228 550 200 c 0
 550 172 528 150 500 150 c 0
200 0 m 0x8280
 172 0 150 22 150 50 c 0
 150 78 172 100 200 100 c 0
 228 100 250 78 250 50 c 0
 250 22 228 0 200 0 c 0x8280
400 0 m 0
 372 0 350 22 350 50 c 0
 350 78 372 100 400 100 c 0
 428 100 450 78 450 50 c 0
 450 22 428 0 400 0 c 0
EndSplineSet
EndChar

StartChar: Wacute
Encoding: 7810 7810 100
Width: 600
GlyphClass: 1
Flags: MW
HStem: 0 100<186 214 386 414> 150 100<86 114 286 314 486 514> 300 100<86 114 286 314 486 514> 450 100<86 114 486 514> 600 100<86 114 486 514> 750 100<286 314> 900 100<386 414>
VStem: 50 100<186 214 336 364 486 514 636 664> 150 100<36 64 186 214 336 364> 250 100<36 64 186 214 336 364 786 814> 350 100<36 64 186 214 336 364 936 964> 450 100<186 214 336 364 486 514 636 664>
LayerCount: 2
Fore
SplineSet
400 900 m 0x0220
 372 900 350 922 350 950 c 0
 350 978 372 1000 400 1000 c 0
 428 1000 450 978 450 950 c 0
 450 922 428 900 400 900 c 0x0220
300 750 m 0x7d50
 272 750 250 772 250 800 c 0
 250 828 272 850 300 850 c 0
 328 850 350 828 350 800 c 0
 350 772 328 750 300 750 c 0x7d50
100 600 m 0
 72 600 50 622 50 650 c 0
 50 678 72 700 100 700 c 0
 128 700 150 678 150 650 c 0
 150 622 128 600 100 600 c 0
500 600 m 0
 472 600 450 622 450 650 c 0
 450 678 472 700 500 700 c 0
 528 700 550 678 550 650 c 0
 550 622 528 600 500 600 c 0
100 450 m 0
 72 450 50 472 50 500 c 0
 50 528 72 550 100 550 c 0
 128 550 150 528 150 500 c 0
 150 472 128 450 100 450 c 0
500 450 m 0
 472 450 450 472 450 500 c 0
 450 528 472 550 500 550 c 0
 528 550 550 528 550 500 c 0
 550 472 528 450 500 450 c 0
100 300 m 0
 72 300 50 322 50 350 c 0
 50 378 72 400 100 400 c 0
 128 400 150 378 150 350 c 0
 150 322 128 300 100 300 c 0
300 300 m 0
 272 300 250 322 250 350 c 0
 250 378 272 400 300 400 c 0
 328 400 350 378 350 350 c 0
 350 322 328 300 300 300 c 0
500 300 m 0
 472 300 450 322 450 350 c 0
 450 378 472 400 500 400 c 0
 528 400 550 378 550 350 c 0
 550 322 528 300 500 300 c 0
100 150 m 0
 72 150 50 172 50 200 c 0
 50 228 72 250 100 250 c 0
 128 250 150 228 150 200 c 0
 150 172 128 150 100 150 c 0
300 150 m 0
 272 150 250 172 250 200 c 0
 250 228 272 250 300 250 c 0
 328 250 350 228 350 200 c 0
 350 172 328 150 300 150 c 0
500 150 m 0
 472 150 450 172 450 200 c 0
 450 228 472 250 500 250 c 0
 528 250 550 228 550 200 c 0
 550 172 528 150 500 150 c 0
200 0 m 0x80a0
 172 0 150 22 150 50 c 0
 150 78 172 100 200 100 c 0
 228 100 250 78 250 50 c 0
 250 22 228 0 200 0 c 0x80a0
400 0 m 0
 372 0 350 22 350 50 c 0
 350 78 372 100 400 100 c 0
 428 100 450 78 450 50 c 0
 450 22 428 0 400 0 c 0
EndSplineSet
EndChar

StartChar: Wcircumflex
Encoding: 372 372 101
Width: 600
GlyphClass: 1
Flags: MW
HStem: 0 100<186 214 386 414> 150 100<86 114 286 314 486 514> 300 100<86 114 286 314 486 514> 450 100<86 114 486 514> 600 100<86 114 486 514> 750 100<186 214 386 414> 900 100<286 314>
VStem: 50 100<186 214 336 364 486 514 636 664> 150 100<36 64 186 214 336 364 786 814> 250 100<36 64 186 214 336 364 786 814 936 964> 350 100<36 64 186 214 336 364 786 814> 450 100<186 214 336 364 486 514 636 664>
LayerCount: 2
Fore
SplineSet
300 900 m 0xff50
 272 900 250 922 250 950 c 0
 250 978 272 1000 300 1000 c 0
 328 1000 350 978 350 950 c 0
 350 922 328 900 300 900 c 0xff50
200 750 m 0x04a0
 172 750 150 772 150 800 c 0
 150 828 172 850 200 850 c 0
 228 850 250 828 250 800 c 0
 250 772 228 750 200 750 c 0x04a0
400 750 m 0
 372 750 350 772 350 800 c 0
 350 828 372 850 400 850 c 0
 428 850 450 828 450 800 c 0
 450 772 428 750 400 750 c 0
100 600 m 0x7950
 72 600 50 622 50 650 c 0
 50 678 72 700 100 700 c 0
 128 700 150 678 150 650 c 0
 150 622 128 600 100 600 c 0x7950
500 600 m 0
 472 600 450 622 450 650 c 0
 450 678 472 700 500 700 c 0
 528 700 550 678 550 650 c 0
 550 622 528 600 500 600 c 0
100 450 m 0
 72 450 50 472 50 500 c 0
 50 528 72 550 100 550 c 0
 128 550 150 528 150 500 c 0
 150 472 128 450 100 450 c 0
500 450 m 0
 472 450 450 472 450 500 c 0
 450 528 472 550 500 550 c 0
 528 550 550 528 550 500 c 0
 550 472 528 450 500 450 c 0
100 300 m 0
 72 300 50 322 50 350 c 0
 50 378 72 400 100 400 c 0
 128 400 150 378 150 350 c 0
 150 322 128 300 100 300 c 0
300 300 m 0
 272 300 250 322 250 350 c 0
 250 378 272 400 300 400 c 0
 328 400 350 378 350 350 c 0
 350 322 328 300 300 300 c 0
500 300 m 0
 472 300 450 322 450 350 c 0
 450 378 472 400 500 400 c 0
 528 400 550 378 550 350 c 0
 550 322 528 300 500 300 c 0
100 150 m 0
 72 150 50 172 50 200 c 0
 50 228 72 250 100 250 c 0
 128 250 150 228 150 200 c 0
 150 172 128 150 100 150 c 0
300 150 m 0
 272 150 250 172 250 200 c 0
 250 228 272 250 300 250 c 0
 328 250 350 228 350 200 c 0
 350 172 328 150 300 150 c 0
500 150 m 0
 472 150 450 172 450 200 c 0
 450 228 472 250 500 250 c 0
 528 250 550 228 550 200 c 0
 550 172 528 150 500 150 c 0
200 0 m 0x80a0
 172 0 150 22 150 50 c 0
 150 78 172 100 200 100 c 0
 228 100 250 78 250 50 c 0
 250 22 228 0 200 0 c 0x80a0
400 0 m 0
 372 0 350 22 350 50 c 0
 350 78 372 100 400 100 c 0
 428 100 450 78 450 50 c 0
 450 22 428 0 400 0 c 0
EndSplineSet
EndChar

StartChar: Wdieresis
Encoding: 7812 7812 102
Width: 600
GlyphClass: 1
Flags: MW
HStem: 0 100<186 214 386 414> 150 100<86 114 286 314 486 514> 300 100<86 114 286 314 486 514> 450 100<86 114 486 514> 600 100<86 114 486 514> 900 100<186 214 386 414>
VStem: 50 100<186 214 336 364 486 514 636 664> 150 100<36 64 186 214 336 364 936 964> 250 100<36 64 186 214 336 364 936 964> 350 100<36 64 186 214 336 364 936 964> 450 100<186 214 336 364 486 514 636 664>
LayerCount: 2
Fore
SplineSet
200 900 m 0x0540
 172 900 150 922 150 950 c 0
 150 978 172 1000 200 1000 c 0
 228 1000 250 978 250 950 c 0
 250 922 228 900 200 900 c 0x0540
400 900 m 0
 372 900 350 922 350 950 c 0
 350 978 372 1000 400 1000 c 0
 428 1000 450 978 450 950 c 0
 450 922 428 900 400 900 c 0
100 600 m 0x7aa0
 72 600 50 622 50 650 c 0
 50 678 72 700 100 700 c 0
 128 700 150 678 150 650 c 0
 150 622 128 600 100 600 c 0x7aa0
500 600 m 0
 472 600 450 622 450 650 c 0
 450 678 472 700 500 700 c 0
 528 700 550 678 550 650 c 0
 550 622 528 600 500 600 c 0
100 450 m 0
 72 450 50 472 50 500 c 0
 50 528 72 550 100 550 c 0
 128 550 150 528 150 500 c 0
 150 472 128 450 100 450 c 0
500 450 m 0
 472 450 450 472 450 500 c 0
 450 528 472 550 500 550 c 0
 528 550 550 528 550 500 c 0
 550 472 528 450 500 450 c 0
100 300 m 0
 72 300 50 322 50 350 c 0
 50 378 72 400 100 400 c 0
 128 400 150 378 150 350 c 0
 150 322 128 300 100 300 c 0
300 300 m 0
 272 300 250 322 250 350 c 0
 250 378 272 400 300 400 c 0
 328 400 350 378 350 350 c 0
 350 322 328 300 300 300 c 0
500 300 m 0
 472 300 450 322 450 350 c 0
 450 378 472 400 500 400 c 0
 528 400 550 378 550 350 c 0
 550 322 528 300 500 300 c 0
100 150 m 0
 72 150 50 172 50 200 c 0
 50 228 72 250 100 250 c 0
 128 250 150 228 150 200 c 0
 150 172 128 150 100 150 c 0
300 150 m 0
 272 150 250 172 250 200 c 0
 250 228 272 250 300 250 c 0
 328 250 350 228 350 200 c 0
 350 172 328 150 300 150 c 0
500 150 m 0
 472 150 450 172 450 200 c 0
 450 228 472 250 500 250 c 0
 528 250 550 228 550 200 c 0
 550 172 528 150 500 150 c 0
200 0 m 0x8140
 172 0 150 22 150 50 c 0
 150 78 172 100 200 100 c 0
 228 100 250 78 250 50 c 0
 250 22 228 0 200 0 c 0x8140
400 0 m 0
 372 0 350 22 350 50 c 0
 350 78 372 100 400 100 c 0
 428 100 450 78 450 50 c 0
 450 22 428 0 400 0 c 0
EndSplineSet
EndChar

StartChar: Wgrave
Encoding: 7808 7808 103
Width: 600
GlyphClass: 1
Flags: MW
HStem: 0 100<186 214 386 414> 150 100<86 114 286 314 486 514> 300 100<86 114 286 314 486 514> 450 100<86 114 486 514> 600 100<86 114 486 514> 750 100<286 314> 900 100<186 214>
VStem: 50 100<186 214 336 364 486 514 636 664> 150 100<36 64 186 214 336 364 936 964> 250 100<36 64 186 214 336 364 786 814> 350 100<36 64 186 214 336 364> 450 100<186 214 336 364 486 514 636 664>
LayerCount: 2
Fore
SplineSet
200 900 m 0x0280
 172 900 150 922 150 950 c 0
 150 978 172 1000 200 1000 c 0
 228 1000 250 978 250 950 c 0
 250 922 228 900 200 900 c 0x0280
300 750 m 0x7d50
 272 750 250 772 250 800 c 0
 250 828 272 850 300 850 c 0
 328 850 350 828 350 800 c 0
 350 772 328 750 300 750 c 0x7d50
100 600 m 0
 72 600 50 622 50 650 c 0
 50 678 72 700 100 700 c 0
 128 700 150 678 150 650 c 0
 150 622 128 600 100 600 c 0
500 600 m 0
 472 600 450 622 450 650 c 0
 450 678 472 700 500 700 c 0
 528 700 550 678 550 650 c 0
 550 622 528 600 500 600 c 0
100 450 m 0
 72 450 50 472 50 500 c 0
 50 528 72 550 100 550 c 0
 128 550 150 528 150 500 c 0
 150 472 128 450 100 450 c 0
500 450 m 0
 472 450 450 472 450 500 c 0
 450 528 472 550 500 550 c 0
 528 550 550 528 550 500 c 0
 550 472 528 450 500 450 c 0
100 300 m 0
 72 300 50 322 50 350 c 0
 50 378 72 400 100 400 c 0
 128 400 150 378 150 350 c 0
 150 322 128 300 100 300 c 0
300 300 m 0
 272 300 250 322 250 350 c 0
 250 378 272 400 300 400 c 0
 328 400 350 378 350 350 c 0
 350 322 328 300 300 300 c 0
500 300 m 0
 472 300 450 322 450 350 c 0
 450 378 472 400 500 400 c 0
 528 400 550 378 550 350 c 0
 550 322 528 300 500 300 c 0
100 150 m 0
 72 150 50 172 50 200 c 0
 50 228 72 250 100 250 c 0
 128 250 150 228 150 200 c 0
 150 172 128 150 100 150 c 0
300 150 m 0
 272 150 250 172 250 200 c 0
 250 228 272 250 300 250 c 0
 328 250 350 228 350 200 c 0
 350 172 328 150 300 150 c 0
500 150 m 0
 472 150 450 172 450 200 c 0
 450 228 472 250 500 250 c 0
 528 250 550 228 550 200 c 0
 550 172 528 150 500 150 c 0
200 0 m 0x80a0
 172 0 150 22 150 50 c 0
 150 78 172 100 200 100 c 0
 228 100 250 78 250 50 c 0
 250 22 228 0 200 0 c 0x80a0
400 0 m 0
 372 0 350 22 350 50 c 0
 350 78 372 100 400 100 c 0
 428 100 450 78 450 50 c 0
 450 22 428 0 400 0 c 0
EndSplineSet
EndChar

StartChar: X
Encoding: 88 88 104
Width: 600
GlyphClass: 1
Flags: MW
HStem: 0 100<86 114 486 514> 150 100<186 214 386 414> 300 100<286 314> 450 100<186 214 386 414> 600 100<86 114 486 514>
VStem: 50 100<36 64 636 664> 150 100<186 214 486 514> 250 100<186 214 336 364 486 514> 350 100<186 214 486 514> 450 100<36 64 636 664>
LayerCount: 2
Fore
SplineSet
100 600 m 0xfc80
 72 600 50 622 50 650 c 0
 50 678 72 700 100 700 c 0
 128 700 150 678 150 650 c 0
 150 622 128 600 100 600 c 0xfc80
500 600 m 0x1a40
 472 600 450 622 450 650 c 0
 450 678 472 700 500 700 c 0
 528 700 550 678 550 650 c 0
 550 622 528 600 500 600 c 0x1a40
200 450 m 0
 172 450 150 472 150 500 c 0
 150 528 172 550 200 550 c 0
 228 550 250 528 250 500 c 0
 250 472 228 450 200 450 c 0
400 450 m 0x1080
 372 450 350 472 350 500 c 0
 350 528 372 550 400 550 c 0
 428 550 450 528 450 500 c 0
 450 472 428 450 400 450 c 0x1080
300 300 m 0x21
 272 300 250 322 250 350 c 0
 250 378 272 400 300 400 c 0
 328 400 350 378 350 350 c 0
 350 322 328 300 300 300 c 0x21
200 150 m 0x4280
 172 150 150 172 150 200 c 0
 150 228 172 250 200 250 c 0
 228 250 250 228 250 200 c 0
 250 172 228 150 200 150 c 0x4280
400 150 m 0
 372 150 350 172 350 200 c 0
 350 228 372 250 400 250 c 0
 428 250 450 228 450 200 c 0
 450 172 428 150 400 150 c 0
100 0 m 0x8440
 72 0 50 22 50 50 c 0
 50 78 72 100 100 100 c 0
 128 100 150 78 150 50 c 0
 150 22 128 0 100 0 c 0x8440
500 0 m 0
 472 0 450 22 450 50 c 0
 450 78 472 100 500 100 c 0
 528 100 550 78 550 50 c 0
 550 22 528 0 500 0 c 0
EndSplineSet
EndChar

StartChar: Y
Encoding: 89 89 105
Width: 600
GlyphClass: 1
Flags: MW
HStem: 0 100<286 314> 150 100<286 314> 300 100<286 314> 450 100<186 214 386 414> 600 100<86 114 486 514>
VStem: 50 100<636 664> 150 100<486 514> 250 100<36 64 186 214 336 364 486 514> 350 100<486 514> 450 100<636 664>
LayerCount: 2
Fore
SplineSet
100 600 m 0xfd40
 72 600 50 622 50 650 c 0
 50 678 72 700 100 700 c 0
 128 700 150 678 150 650 c 0
 150 622 128 600 100 600 c 0xfd40
500 600 m 0
 472 600 450 622 450 650 c 0
 450 678 472 700 500 700 c 0
 528 700 550 678 550 650 c 0
 550 622 528 600 500 600 c 0
200 450 m 0x1280
 172 450 150 472 150 500 c 0
 150 528 172 550 200 550 c 0
 228 550 250 528 250 500 c 0
 250 472 228 450 200 450 c 0x1280
400 450 m 0
 372 450 350 472 350 500 c 0
 350 528 372 550 400 550 c 0
 428 550 450 528 450 500 c 0
 450 472 428 450 400 450 c 0
300 300 m 0xe1
 272 300 250 322 250 350 c 0
 250 378 272 400 300 400 c 0
 328 400 350 378 350 350 c 0
 350 322 328 300 300 300 c 0xe1
300 150 m 0
 272 150 250 172 250 200 c 0
 250 228 272 250 300 250 c 0
 328 250 350 228 350 200 c 0
 350 172 328 150 300 150 c 0
300 0 m 0
 272 0 250 22 250 50 c 0
 250 78 272 100 300 100 c 0
 328 100 350 78 350 50 c 0
 350 22 328 0 300 0 c 0
EndSplineSet
EndChar

StartChar: Yacute
Encoding: 221 221 106
Width: 600
GlyphClass: 1
Flags: MW
HStem: 0 100<286 314> 150 100<286 314> 300 100<286 314> 450 100<186 214 386 414> 600 100<86 114 486 514> 750 100<286 314> 900 100<386 414>
VStem: 50 100<636 664> 150 100<486 514> 250 100<36 64 186 214 336 364 486 514 786 814> 350 100<486 514 936 964> 450 100<636 664>
LayerCount: 2
Fore
SplineSet
400 900 m 0x0220
 372 900 350 922 350 950 c 0
 350 978 372 1000 400 1000 c 0
 428 1000 450 978 450 950 c 0
 450 922 428 900 400 900 c 0x0220
300 750 m 0x0d50
 272 750 250 772 250 800 c 0
 250 828 272 850 300 850 c 0
 328 850 350 828 350 800 c 0
 350 772 328 750 300 750 c 0x0d50
100 600 m 0
 72 600 50 622 50 650 c 0
 50 678 72 700 100 700 c 0
 128 700 150 678 150 650 c 0
 150 622 128 600 100 600 c 0
500 600 m 0
 472 600 450 622 450 650 c 0
 450 678 472 700 500 700 c 0
 528 700 550 678 550 650 c 0
 550 622 528 600 500 600 c 0
200 450 m 0x10a0
 172 450 150 472 150 500 c 0
 150 528 172 550 200 550 c 0
 228 550 250 528 250 500 c 0
 250 472 228 450 200 450 c 0x10a0
400 450 m 0
 372 450 350 472 350 500 c 0
 350 528 372 550 400 550 c 0
 428 550 450 528 450 500 c 0
 450 472 428 450 400 450 c 0
300 300 m 0xe040
 272 300 250 322 250 350 c 0
 250 378 272 400 300 400 c 0
 328 400 350 378 350 350 c 0
 350 322 328 300 300 300 c 0xe040
300 150 m 0
 272 150 250 172 250 200 c 0
 250 228 272 250 300 250 c 0
 328 250 350 228 350 200 c 0
 350 172 328 150 300 150 c 0
300 0 m 0
 272 0 250 22 250 50 c 0
 250 78 272 100 300 100 c 0
 328 100 350 78 350 50 c 0
 350 22 328 0 300 0 c 0
EndSplineSet
EndChar

StartChar: Ycircumflex
Encoding: 374 374 107
Width: 600
GlyphClass: 1
Flags: MW
HStem: 0 100<286 314> 150 100<286 314> 300 100<286 314> 450 100<186 214 386 414> 600 100<86 114 486 514> 750 100<186 214 386 414> 900 100<286 314>
VStem: 50 100<636 664> 150 100<486 514 786 814> 250 100<36 64 186 214 336 364 486 514 786 814 936 964> 350 100<486 514 786 814> 450 100<636 664>
LayerCount: 2
Fore
SplineSet
300 900 m 0xff50
 272 900 250 922 250 950 c 0
 250 978 272 1000 300 1000 c 0
 328 1000 350 978 350 950 c 0
 350 922 328 900 300 900 c 0xff50
200 750 m 0x04a0
 172 750 150 772 150 800 c 0
 150 828 172 850 200 850 c 0
 228 850 250 828 250 800 c 0
 250 772 228 750 200 750 c 0x04a0
400 750 m 0
 372 750 350 772 350 800 c 0
 350 828 372 850 400 850 c 0
 428 850 450 828 450 800 c 0
 450 772 428 750 400 750 c 0
100 600 m 0x0910
 72 600 50 622 50 650 c 0
 50 678 72 700 100 700 c 0
 128 700 150 678 150 650 c 0
 150 622 128 600 100 600 c 0x0910
500 600 m 0
 472 600 450 622 450 650 c 0
 450 678 472 700 500 700 c 0
 528 700 550 678 550 650 c 0
 550 622 528 600 500 600 c 0
200 450 m 0x10a0
 172 450 150 472 150 500 c 0
 150 528 172 550 200 550 c 0
 228 550 250 528 250 500 c 0
 250 472 228 450 200 450 c 0x10a0
400 450 m 0
 372 450 350 472 350 500 c 0
 350 528 372 550 400 550 c 0
 428 550 450 528 450 500 c 0
 450 472 428 450 400 450 c 0
300 300 m 0xe040
 272 300 250 322 250 350 c 0
 250 378 272 400 300 400 c 0
 328 400 350 378 350 350 c 0
 350 322 328 300 300 300 c 0xe040
300 150 m 0
 272 150 250 172 250 200 c 0
 250 228 272 250 300 250 c 0
 328 250 350 228 350 200 c 0
 350 172 328 150 300 150 c 0
300 0 m 0
 272 0 250 22 250 50 c 0
 250 78 272 100 300 100 c 0
 328 100 350 78 350 50 c 0
 350 22 328 0 300 0 c 0
EndSplineSet
EndChar

StartChar: Ydieresis
Encoding: 376 376 108
Width: 600
GlyphClass: 1
Flags: MW
HStem: 0 100<286 314> 150 100<286 314> 300 100<286 314> 450 100<186 214 386 414> 600 100<86 114 486 514> 900 100<186 214 386 414>
VStem: 50 100<636 664> 150 100<486 514 936 964> 250 100<36 64 186 214 336 364 486 514 936 964> 350 100<486 514 936 964> 450 100<636 664>
LayerCount: 2
Fore
SplineSet
200 900 m 0x0540
 172 900 150 922 150 950 c 0
 150 978 172 1000 200 1000 c 0
 228 1000 250 978 250 950 c 0
 250 922 228 900 200 900 c 0x0540
400 900 m 0
 372 900 350 922 350 950 c 0
 350 978 372 1000 400 1000 c 0
 428 1000 450 978 450 950 c 0
 450 922 428 900 400 900 c 0
100 600 m 0x0a20
 72 600 50 622 50 650 c 0
 50 678 72 700 100 700 c 0
 128 700 150 678 150 650 c 0
 150 622 128 600 100 600 c 0x0a20
500 600 m 0
 472 600 450 622 450 650 c 0
 450 678 472 700 500 700 c 0
 528 700 550 678 550 650 c 0
 550 622 528 600 500 600 c 0
200 450 m 0x1140
 172 450 150 472 150 500 c 0
 150 528 172 550 200 550 c 0
 228 550 250 528 250 500 c 0
 250 472 228 450 200 450 c 0x1140
400 450 m 0
 372 450 350 472 350 500 c 0
 350 528 372 550 400 550 c 0
 428 550 450 528 450 500 c 0
 450 472 428 450 400 450 c 0
300 300 m 0xe080
 272 300 250 322 250 350 c 0
 250 378 272 400 300 400 c 0
 328 400 350 378 350 350 c 0
 350 322 328 300 300 300 c 0xe080
300 150 m 0
 272 150 250 172 250 200 c 0
 250 228 272 250 300 250 c 0
 328 250 350 228 350 200 c 0
 350 172 328 150 300 150 c 0
300 0 m 0
 272 0 250 22 250 50 c 0
 250 78 272 100 300 100 c 0
 328 100 350 78 350 50 c 0
 350 22 328 0 300 0 c 0
EndSplineSet
EndChar

StartChar: Ygrave
Encoding: 7922 7922 109
Width: 600
GlyphClass: 1
Flags: MW
HStem: 0 100<286 314> 150 100<286 314> 300 100<286 314> 450 100<186 214 386 414> 600 100<86 114 486 514> 750 100<286 314> 900 100<186 214>
VStem: 50 100<636 664> 150 100<486 514 936 964> 250 100<36 64 186 214 336 364 486 514 786 814> 350 100<486 514> 450 100<636 664>
LayerCount: 2
Fore
SplineSet
200 900 m 0x0280
 172 900 150 922 150 950 c 0
 150 978 172 1000 200 1000 c 0
 228 1000 250 978 250 950 c 0
 250 922 228 900 200 900 c 0x0280
300 750 m 0x0d50
 272 750 250 772 250 800 c 0
 250 828 272 850 300 850 c 0
 328 850 350 828 350 800 c 0
 350 772 328 750 300 750 c 0x0d50
100 600 m 0
 72 600 50 622 50 650 c 0
 50 678 72 700 100 700 c 0
 128 700 150 678 150 650 c 0
 150 622 128 600 100 600 c 0
500 600 m 0
 472 600 450 622 450 650 c 0
 450 678 472 700 500 700 c 0
 528 700 550 678 550 650 c 0
 550 622 528 600 500 600 c 0
200 450 m 0x10a0
 172 450 150 472 150 500 c 0
 150 528 172 550 200 550 c 0
 228 550 250 528 250 500 c 0
 250 472 228 450 200 450 c 0x10a0
400 450 m 0
 372 450 350 472 350 500 c 0
 350 528 372 550 400 550 c 0
 428 550 450 528 450 500 c 0
 450 472 428 450 400 450 c 0
300 300 m 0xe040
 272 300 250 322 250 350 c 0
 250 378 272 400 300 400 c 0
 328 400 350 378 350 350 c 0
 350 322 328 300 300 300 c 0xe040
300 150 m 0
 272 150 250 172 250 200 c 0
 250 228 272 250 300 250 c 0
 328 250 350 228 350 200 c 0
 350 172 328 150 300 150 c 0
300 0 m 0
 272 0 250 22 250 50 c 0
 250 78 272 100 300 100 c 0
 328 100 350 78 350 50 c 0
 350 22 328 0 300 0 c 0
EndSplineSet
EndChar

StartChar: Z
Encoding: 90 90 110
Width: 600
GlyphClass: 1
Flags: MW
HStem: 0 100<86 500 100 500> 150 100<186 214> 300 100<286 314> 450 100<386 414> 600 100<86 500 100 500>
VStem: 150 100<186 214> 250 100<336 364> 350 100<486 514>
LayerCount: 2
Fore
SplineSet
50 650 m 0xfd
 50 678 72 700 100 700 c 2
 500 700 l 2
 528 700 550 678 550 650 c 0
 550 622 528 600 500 600 c 2
 100 600 l 2
 72 600 50 622 50 650 c 0xfd
400 450 m 0
 372 450 350 472 350 500 c 0
 350 528 372 550 400 550 c 0
 428 550 450 528 450 500 c 0
 450 472 428 450 400 450 c 0
300 300 m 0xfa
 272 300 250 322 250 350 c 0
 250 378 272 400 300 400 c 0
 328 400 350 378 350 350 c 0
 350 322 328 300 300 300 c 0xfa
200 150 m 0xfd
 172 150 150 172 150 200 c 0
 150 228 172 250 200 250 c 0
 228 250 250 228 250 200 c 0
 250 172 228 150 200 150 c 0xfd
50 50 m 0
 50 78 72 100 100 100 c 2
 500 100 l 2
 528 100 550 78 550 50 c 0
 550 22 528 0 500 0 c 2
 100 0 l 2
 72 0 50 22 50 50 c 0
EndSplineSet
EndChar

StartChar: Zacute
Encoding: 377 377 111
Width: 600
GlyphClass: 1
Flags: MW
HStem: 0 100<86 500 100 500> 150 100<186 214> 300 100<286 314> 450 100<386 414> 600 100<86 500 100 500> 750 100<286 314> 900 100<386 414>
VStem: 150 100<186 214> 250 100<336 364 786 814> 350 100<486 514 936 964>
LayerCount: 2
Fore
SplineSet
400 900 m 0x0240
 372 900 350 922 350 950 c 0
 350 978 372 1000 400 1000 c 0
 428 1000 450 978 450 950 c 0
 450 922 428 900 400 900 c 0x0240
300 750 m 0x0c80
 272 750 250 772 250 800 c 0
 250 828 272 850 300 850 c 0
 328 850 350 828 350 800 c 0
 350 772 328 750 300 750 c 0x0c80
50 650 m 0
 50 678 72 700 100 700 c 2
 500 700 l 2
 528 700 550 678 550 650 c 0
 550 622 528 600 500 600 c 2
 100 600 l 2
 72 600 50 622 50 650 c 0
400 450 m 0x1040
 372 450 350 472 350 500 c 0
 350 528 372 550 400 550 c 0
 428 550 450 528 450 500 c 0
 450 472 428 450 400 450 c 0x1040
300 300 m 0x2080
 272 300 250 322 250 350 c 0
 250 378 272 400 300 400 c 0
 328 400 350 378 350 350 c 0
 350 322 328 300 300 300 c 0x2080
200 150 m 0xc1
 172 150 150 172 150 200 c 0
 150 228 172 250 200 250 c 0
 228 250 250 228 250 200 c 0
 250 172 228 150 200 150 c 0xc1
50 50 m 0
 50 78 72 100 100 100 c 2
 500 100 l 2
 528 100 550 78 550 50 c 0
 550 22 528 0 500 0 c 2
 100 0 l 2
 72 0 50 22 50 50 c 0
EndSplineSet
EndChar

StartChar: Zcaron
Encoding: 381 381 112
Width: 600
GlyphClass: 1
Flags: MW
HStem: 0 100<86 500 100 500> 150 100<186 214> 300 100<286 314> 450 100<386 414> 600 100<86 500 100 500> 750 100<286 314> 900 100<186 214 386 414>
VStem: 150 100<186 214 936 964> 250 100<336 364 786 814 936 964> 350 100<486 514 936 964>
LayerCount: 2
Fore
SplineSet
200 900 m 0xff40
 172 900 150 922 150 950 c 0
 150 978 172 1000 200 1000 c 0
 228 1000 250 978 250 950 c 0
 250 922 228 900 200 900 c 0xff40
400 900 m 0
 372 900 350 922 350 950 c 0
 350 978 372 1000 400 1000 c 0
 428 1000 450 978 450 950 c 0
 450 922 428 900 400 900 c 0
300 750 m 0x0c80
 272 750 250 772 250 800 c 0
 250 828 272 850 300 850 c 0
 328 850 350 828 350 800 c 0
 350 772 328 750 300 750 c 0x0c80
50 650 m 0
 50 678 72 700 100 700 c 2
 500 700 l 2
 528 700 550 678 550 650 c 0
 550 622 528 600 500 600 c 2
 100 600 l 2
 72 600 50 622 50 650 c 0
400 450 m 0x1040
 372 450 350 472 350 500 c 0
 350 528 372 550 400 550 c 0
 428 550 450 528 450 500 c 0
 450 472 428 450 400 450 c 0x1040
300 300 m 0x2080
 272 300 250 322 250 350 c 0
 250 378 272 400 300 400 c 0
 328 400 350 378 350 350 c 0
 350 322 328 300 300 300 c 0x2080
200 150 m 0xc1
 172 150 150 172 150 200 c 0
 150 228 172 250 200 250 c 0
 228 250 250 228 250 200 c 0
 250 172 228 150 200 150 c 0xc1
50 50 m 0
 50 78 72 100 100 100 c 2
 500 100 l 2
 528 100 550 78 550 50 c 0
 550 22 528 0 500 0 c 2
 100 0 l 2
 72 0 50 22 50 50 c 0
EndSplineSet
EndChar

StartChar: Zdotaccent
Encoding: 379 379 113
Width: 600
GlyphClass: 1
Flags: MW
HStem: 0 100<86 500 100 500> 150 100<186 214> 300 100<286 314> 450 100<386 414> 600 100<86 500 100 500> 900 100<286 314>
VStem: 150 100<186 214> 250 100<336 364 936 964> 350 100<486 514>
LayerCount: 2
Fore
SplineSet
300 900 m 0xfd
 272 900 250 922 250 950 c 0
 250 978 272 1000 300 1000 c 0
 328 1000 350 978 350 950 c 0
 350 922 328 900 300 900 c 0xfd
50 650 m 0
 50 678 72 700 100 700 c 2
 500 700 l 2
 528 700 550 678 550 650 c 0
 550 622 528 600 500 600 c 2
 100 600 l 2
 72 600 50 622 50 650 c 0
400 450 m 0x1080
 372 450 350 472 350 500 c 0
 350 528 372 550 400 550 c 0
 428 550 450 528 450 500 c 0
 450 472 428 450 400 450 c 0x1080
300 300 m 0x21
 272 300 250 322 250 350 c 0
 250 378 272 400 300 400 c 0
 328 400 350 378 350 350 c 0
 350 322 328 300 300 300 c 0x21
200 150 m 0xc2
 172 150 150 172 150 200 c 0
 150 228 172 250 200 250 c 0
 228 250 250 228 250 200 c 0
 250 172 228 150 200 150 c 0xc2
50 50 m 0
 50 78 72 100 100 100 c 2
 500 100 l 2
 528 100 550 78 550 50 c 0
 550 22 528 0 500 0 c 2
 100 0 l 2
 72 0 50 22 50 50 c 0
EndSplineSet
EndChar

StartChar: a
Encoding: 97 97 114
Width: 500
GlyphClass: 1
Flags: MW
HStem: 0 100<186 400 200 400> 150 100<86 114 386 414> 300 100<86 114 386 414> 450 100<186 400 200 400>
VStem: 50 100<186 214 336 364> 350 100<186 214 336 364>
LayerCount: 2
Fore
SplineSet
150 500 m 0
 150 528 172 550 200 550 c 2
 400 550 l 2
 428 550 450 528 450 500 c 0
 450 472 428 450 400 450 c 2
 200 450 l 2
 172 450 150 472 150 500 c 0
100 300 m 0
 72 300 50 322 50 350 c 0
 50 378 72 400 100 400 c 0
 128 400 150 378 150 350 c 0
 150 322 128 300 100 300 c 0
400 300 m 0
 372 300 350 322 350 350 c 0
 350 378 372 400 400 400 c 0
 428 400 450 378 450 350 c 0
 450 322 428 300 400 300 c 0
100 150 m 0
 72 150 50 172 50 200 c 0
 50 228 72 250 100 250 c 0
 128 250 150 228 150 200 c 0
 150 172 128 150 100 150 c 0
400 150 m 0
 372 150 350 172 350 200 c 0
 350 228 372 250 400 250 c 0
 428 250 450 228 450 200 c 0
 450 172 428 150 400 150 c 0
150 50 m 0
 150 78 172 100 200 100 c 2
 400 100 l 2
 428 100 450 78 450 50 c 0
 450 22 428 0 400 0 c 2
 200 0 l 2
 172 0 150 22 150 50 c 0
EndSplineSet
EndChar

StartChar: aacute
Encoding: 225 225 115
Width: 500
GlyphClass: 1
Flags: MW
HStem: 0 100<186 400 200 400> 150 100<86 114 386 414> 300 100<86 114 386 414> 450 100<186 400 200 400> 600 100<286 314> 750 100<386 414>
VStem: 50 100<186 214 336 364> 250 100<636 664> 350 100<186 214 336 364 786 814>
LayerCount: 2
Fore
SplineSet
400 750 m 0xfe80
 372 750 350 772 350 800 c 0
 350 828 372 850 400 850 c 0
 428 850 450 828 450 800 c 0
 450 772 428 750 400 750 c 0xfe80
300 600 m 0x19
 272 600 250 622 250 650 c 0
 250 678 272 700 300 700 c 0
 328 700 350 678 350 650 c 0
 350 622 328 600 300 600 c 0x19
150 500 m 0
 150 528 172 550 200 550 c 2
 400 550 l 2
 428 550 450 528 450 500 c 0
 450 472 428 450 400 450 c 2x1080
 200 450 l 2
 172 450 150 472 150 500 c 0
100 300 m 0xe280
 72 300 50 322 50 350 c 0
 50 378 72 400 100 400 c 0
 128 400 150 378 150 350 c 0
 150 322 128 300 100 300 c 0xe280
400 300 m 0
 372 300 350 322 350 350 c 0
 350 378 372 400 400 400 c 0
 428 400 450 378 450 350 c 0
 450 322 428 300 400 300 c 0
100 150 m 0
 72 150 50 172 50 200 c 0
 50 228 72 250 100 250 c 0
 128 250 150 228 150 200 c 0
 150 172 128 150 100 150 c 0
400 150 m 0
 372 150 350 172 350 200 c 0
 350 228 372 250 400 250 c 0
 428 250 450 228 450 200 c 0
 450 172 428 150 400 150 c 0
150 50 m 0
 150 78 172 100 200 100 c 2
 400 100 l 2
 428 100 450 78 450 50 c 0
 450 22 428 0 400 0 c 2
 200 0 l 2
 172 0 150 22 150 50 c 0
EndSplineSet
EndChar

StartChar: abreve
Encoding: 259 259 116
Width: 500
GlyphClass: 1
Flags: MW
HStem: 0 100<186 400 200 400> 150 100<86 114 386 414> 300 100<86 114 386 414> 450 100<186 400 200 400> 600 100<186 400 200 400> 750 100<186 214 386 414>
VStem: 50 100<186 214 336 364> 150 100<786 814> 350 100<186 214 336 364 786 814>
LayerCount: 2
Fore
SplineSet
200 750 m 0x1d80
 172 750 150 772 150 800 c 0
 150 828 172 850 200 850 c 0
 228 850 250 828 250 800 c 0
 250 772 228 750 200 750 c 0x1d80
400 750 m 0
 372 750 350 772 350 800 c 0
 350 828 372 850 400 850 c 0
 428 850 450 828 450 800 c 0
 450 772 428 750 400 750 c 0
150 650 m 0
 150 678 172 700 200 700 c 2
 400 700 l 2
 428 700 450 678 450 650 c 0
 450 622 428 600 400 600 c 2
 200 600 l 2
 172 600 150 622 150 650 c 0
150 500 m 0
 150 528 172 550 200 550 c 2
 400 550 l 2
 428 550 450 528 450 500 c 0
 450 472 428 450 400 450 c 2
 200 450 l 2
 172 450 150 472 150 500 c 0
100 300 m 0x6280
 72 300 50 322 50 350 c 0
 50 378 72 400 100 400 c 0
 128 400 150 378 150 350 c 0
 150 322 128 300 100 300 c 0x6280
400 300 m 0
 372 300 350 322 350 350 c 0
 350 378 372 400 400 400 c 0
 428 400 450 378 450 350 c 0
 450 322 428 300 400 300 c 0
100 150 m 0
 72 150 50 172 50 200 c 0
 50 228 72 250 100 250 c 0
 128 250 150 228 150 200 c 0
 150 172 128 150 100 150 c 0
400 150 m 0
 372 150 350 172 350 200 c 0
 350 228 372 250 400 250 c 0
 428 250 450 228 450 200 c 0
 450 172 428 150 400 150 c 0
150 50 m 0x8180
 150 78 172 100 200 100 c 2
 400 100 l 2
 428 100 450 78 450 50 c 0
 450 22 428 0 400 0 c 2
 200 0 l 2
 172 0 150 22 150 50 c 0x8180
EndSplineSet
EndChar

StartChar: acircumflex
Encoding: 226 226 117
Width: 500
GlyphClass: 1
Flags: MW
HStem: 0 100<186 400 200 400> 150 100<86 114 386 414> 300 100<86 114 386 414> 450 100<186 400 200 400> 600 100<186 214 386 414> 750 100<286 314>
VStem: 50 100<186 214 336 364> 150 100<636 664> 250 100<636 664 786 814> 350 100<186 214 336 364 636 664>
LayerCount: 2
Fore
SplineSet
300 750 m 0x0480
 272 750 250 772 250 800 c 0
 250 828 272 850 300 850 c 0
 328 850 350 828 350 800 c 0
 350 772 328 750 300 750 c 0x0480
200 600 m 0x1940
 172 600 150 622 150 650 c 0
 150 678 172 700 200 700 c 0
 228 700 250 678 250 650 c 0
 250 622 228 600 200 600 c 0x1940
400 600 m 0
 372 600 350 622 350 650 c 0
 350 678 372 700 400 700 c 0
 428 700 450 678 450 650 c 0
 450 622 428 600 400 600 c 0
150 500 m 0
 150 528 172 550 200 550 c 2
 400 550 l 2
 428 550 450 528 450 500 c 0
 450 472 428 450 400 450 c 2
 200 450 l 2
 172 450 150 472 150 500 c 0
100 300 m 0x6240
 72 300 50 322 50 350 c 0
 50 378 72 400 100 400 c 0
 128 400 150 378 150 350 c 0
 150 322 128 300 100 300 c 0x6240
400 300 m 0
 372 300 350 322 350 350 c 0
 350 378 372 400 400 400 c 0
 428 400 450 378 450 350 c 0
 450 322 428 300 400 300 c 0
100 150 m 0
 72 150 50 172 50 200 c 0
 50 228 72 250 100 250 c 0
 128 250 150 228 150 200 c 0
 150 172 128 150 100 150 c 0
400 150 m 0
 372 150 350 172 350 200 c 0
 350 228 372 250 400 250 c 0
 428 250 450 228 450 200 c 0
 450 172 428 150 400 150 c 0
150 50 m 0x8140
 150 78 172 100 200 100 c 2
 400 100 l 2
 428 100 450 78 450 50 c 0
 450 22 428 0 400 0 c 2
 200 0 l 2
 172 0 150 22 150 50 c 0x8140
EndSplineSet
EndChar

StartChar: adieresis
Encoding: 228 228 118
Width: 500
GlyphClass: 1
Flags: MW
HStem: 0 100<186 400 200 400> 150 100<86 114 386 414> 300 100<86 114 386 414> 450 100<186 400 200 400> 750 100<186 214 386 414>
VStem: 50 100<186 214 336 364> 150 100<786 814> 350 100<186 214 336 364 786 814>
LayerCount: 2
Fore
SplineSet
200 750 m 0x1b
 172 750 150 772 150 800 c 0
 150 828 172 850 200 850 c 0
 228 850 250 828 250 800 c 0
 250 772 228 750 200 750 c 0x1b
400 750 m 0
 372 750 350 772 350 800 c 0
 350 828 372 850 400 850 c 0
 428 850 450 828 450 800 c 0
 450 772 428 750 400 750 c 0
150 500 m 0
 150 528 172 550 200 550 c 2
 400 550 l 2
 428 550 450 528 450 500 c 0
 450 472 428 450 400 450 c 2
 200 450 l 2
 172 450 150 472 150 500 c 0
100 300 m 0x65
 72 300 50 322 50 350 c 0
 50 378 72 400 100 400 c 0
 128 400 150 378 150 350 c 0
 150 322 128 300 100 300 c 0x65
400 300 m 0
 372 300 350 322 350 350 c 0
 350 378 372 400 400 400 c 0
 428 400 450 378 450 350 c 0
 450 322 428 300 400 300 c 0
100 150 m 0
 72 150 50 172 50 200 c 0
 50 228 72 250 100 250 c 0
 128 250 150 228 150 200 c 0
 150 172 128 150 100 150 c 0
400 150 m 0
 372 150 350 172 350 200 c 0
 350 228 372 250 400 250 c 0
 428 250 450 228 450 200 c 0
 450 172 428 150 400 150 c 0
150 50 m 0x83
 150 78 172 100 200 100 c 2
 400 100 l 2
 428 100 450 78 450 50 c 0
 450 22 428 0 400 0 c 2
 200 0 l 2
 172 0 150 22 150 50 c 0x83
EndSplineSet
EndChar

StartChar: agrave
Encoding: 224 224 119
Width: 500
GlyphClass: 1
Flags: MW
HStem: 0 100<186 400 200 400> 150 100<86 114 386 414> 300 100<86 114 386 414> 450 100<186 400 200 400> 600 100<286 314> 750 100<186 214>
VStem: 50 100<186 214 336 364> 150 100<786 814> 250 100<636 664> 350 100<186 214 336 364>
LayerCount: 2
Fore
SplineSet
200 750 m 0x05
 172 750 150 772 150 800 c 0
 150 828 172 850 200 850 c 0
 228 850 250 828 250 800 c 0
 250 772 228 750 200 750 c 0x05
300 600 m 0x0880
 272 600 250 622 250 650 c 0
 250 678 272 700 300 700 c 0
 328 700 350 678 350 650 c 0
 350 622 328 600 300 600 c 0x0880
150 500 m 0x1140
 150 528 172 550 200 550 c 2
 400 550 l 2
 428 550 450 528 450 500 c 0
 450 472 428 450 400 450 c 2
 200 450 l 2
 172 450 150 472 150 500 c 0x1140
100 300 m 0x6240
 72 300 50 322 50 350 c 0
 50 378 72 400 100 400 c 0
 128 400 150 378 150 350 c 0
 150 322 128 300 100 300 c 0x6240
400 300 m 0
 372 300 350 322 350 350 c 0
 350 378 372 400 400 400 c 0
 428 400 450 378 450 350 c 0
 450 322 428 300 400 300 c 0
100 150 m 0
 72 150 50 172 50 200 c 0
 50 228 72 250 100 250 c 0
 128 250 150 228 150 200 c 0
 150 172 128 150 100 150 c 0
400 150 m 0
 372 150 350 172 350 200 c 0
 350 228 372 250 400 250 c 0
 428 250 450 228 450 200 c 0
 450 172 428 150 400 150 c 0
150 50 m 0x8140
 150 78 172 100 200 100 c 2
 400 100 l 2
 428 100 450 78 450 50 c 0
 450 22 428 0 400 0 c 2
 200 0 l 2
 172 0 150 22 150 50 c 0x8140
EndSplineSet
EndChar

StartChar: amacron
Encoding: 257 257 120
Width: 500
GlyphClass: 1
Flags: MW
HStem: 0 100<186 400 200 400> 150 100<86 114 386 414> 300 100<86 114 386 414> 450 100<186 400 200 400> 750 100<186 400 200 400>
VStem: 50 100<186 214 336 364> 350 100<186 214 336 364>
LayerCount: 2
Fore
SplineSet
150 800 m 0
 150 828 172 850 200 850 c 2
 400 850 l 2
 428 850 450 828 450 800 c 0
 450 772 428 750 400 750 c 2
 200 750 l 2
 172 750 150 772 150 800 c 0
150 500 m 0
 150 528 172 550 200 550 c 2
 400 550 l 2
 428 550 450 528 450 500 c 0
 450 472 428 450 400 450 c 2
 200 450 l 2
 172 450 150 472 150 500 c 0
100 300 m 0
 72 300 50 322 50 350 c 0
 50 378 72 400 100 400 c 0
 128 400 150 378 150 350 c 0
 150 322 128 300 100 300 c 0
400 300 m 0
 372 300 350 322 350 350 c 0
 350 378 372 400 400 400 c 0
 428 400 450 378 450 350 c 0
 450 322 428 300 400 300 c 0
100 150 m 0
 72 150 50 172 50 200 c 0
 50 228 72 250 100 250 c 0
 128 250 150 228 150 200 c 0
 150 172 128 150 100 150 c 0
400 150 m 0
 372 150 350 172 350 200 c 0
 350 228 372 250 400 250 c 0
 428 250 450 228 450 200 c 0
 450 172 428 150 400 150 c 0
150 50 m 0
 150 78 172 100 200 100 c 2
 400 100 l 2
 428 100 450 78 450 50 c 0
 450 22 428 0 400 0 c 2
 200 0 l 2
 172 0 150 22 150 50 c 0
EndSplineSet
EndChar

StartChar: aogonek
Encoding: 261 261 121
Width: 500
GlyphClass: 1
Flags: MW
HStem: -300 100<286 400 300 400> -150 100<286 314> 0 100<186 400 200 400> 150 100<86 114 386 414> 300 100<86 114 386 414> 450 100<186 400 200 400>
VStem: 50 100<186 214 336 364> 250 100<-114 -86> 350 100<186 214 336 364>
LayerCount: 2
Fore
SplineSet
150 500 m 0xfe80
 150 528 172 550 200 550 c 2
 400 550 l 2
 428 550 450 528 450 500 c 0
 450 472 428 450 400 450 c 2
 200 450 l 2
 172 450 150 472 150 500 c 0xfe80
100 300 m 0
 72 300 50 322 50 350 c 0
 50 378 72 400 100 400 c 0
 128 400 150 378 150 350 c 0
 150 322 128 300 100 300 c 0
400 300 m 0
 372 300 350 322 350 350 c 0
 350 378 372 400 400 400 c 0
 428 400 450 378 450 350 c 0
 450 322 428 300 400 300 c 0
100 150 m 0
 72 150 50 172 50 200 c 0
 50 228 72 250 100 250 c 0
 128 250 150 228 150 200 c 0
 150 172 128 150 100 150 c 0
400 150 m 0
 372 150 350 172 350 200 c 0
 350 228 372 250 400 250 c 0
 428 250 450 228 450 200 c 0
 450 172 428 150 400 150 c 0
150 50 m 0
 150 78 172 100 200 100 c 2
 400 100 l 2
 428 100 450 78 450 50 c 0
 450 22 428 0 400 0 c 2
 200 0 l 2
 172 0 150 22 150 50 c 0
300 -150 m 0xc1
 272 -150 250 -128 250 -100 c 0
 250 -72 272 -50 300 -50 c 0
 328 -50 350 -72 350 -100 c 0
 350 -128 328 -150 300 -150 c 0xc1
250 -250 m 0
 250 -222 272 -200 300 -200 c 2x81
 400 -200 l 2
 428 -200 450 -222 450 -250 c 0
 450 -278 428 -300 400 -300 c 2x8080
 300 -300 l 2
 272 -300 250 -278 250 -250 c 0
EndSplineSet
EndChar

StartChar: aring
Encoding: 229 229 122
Width: 500
GlyphClass: 1
Flags: MW
HStem: 0 100<186 400 200 400> 150 100<86 114 386 414> 300 100<86 114 386 414> 450 100<186 400 200 400> 600 100<186 300 200 300> 750 100<186 300 200 300>
VStem: 50 100<186 214 336 364> 150 200<36 214 186 214 336 364 636 664 786 814> 350 100<186 214 336 364>
LayerCount: 2
Fore
SplineSet
150 800 m 0x1d
 150 828 172 850 200 850 c 2
 300 850 l 2
 328 850 350 828 350 800 c 0
 350 772 328 750 300 750 c 2
 200 750 l 2
 172 750 150 772 150 800 c 0x1d
150 650 m 0
 150 678 172 700 200 700 c 2
 300 700 l 2
 328 700 350 678 350 650 c 0
 350 622 328 600 300 600 c 2
 200 600 l 2
 172 600 150 622 150 650 c 0
150 500 m 0
 150 528 172 550 200 550 c 2
 400 550 l 2
 428 550 450 528 450 500 c 0
 450 472 428 450 400 450 c 2x1080
 200 450 l 2
 172 450 150 472 150 500 c 0
100 300 m 0xe280
 72 300 50 322 50 350 c 0
 50 378 72 400 100 400 c 0
 128 400 150 378 150 350 c 0
 150 322 128 300 100 300 c 0xe280
400 300 m 0
 372 300 350 322 350 350 c 0
 350 378 372 400 400 400 c 0
 428 400 450 378 450 350 c 0
 450 322 428 300 400 300 c 0
100 150 m 0
 72 150 50 172 50 200 c 0
 50 228 72 250 100 250 c 0
 128 250 150 228 150 200 c 0
 150 172 128 150 100 150 c 0
400 150 m 0
 372 150 350 172 350 200 c 0
 350 228 372 250 400 250 c 0
 428 250 450 228 450 200 c 0
 450 172 428 150 400 150 c 0
150 50 m 0
 150 78 172 100 200 100 c 2
 400 100 l 2
 428 100 450 78 450 50 c 0
 450 22 428 0 400 0 c 2
 200 0 l 2
 172 0 150 22 150 50 c 0
EndSplineSet
EndChar

StartChar: atilde
Encoding: 227 227 123
Width: 500
GlyphClass: 1
Flags: MW
HStem: 0 100<186 400 200 400> 150 100<86 114 386 414> 300 100<86 114 386 414> 450 100<186 400 200 400> 600 100<286 400 300 400> 750 100<186 300 200 300>
VStem: 50 100<186 214 336 364> 350 100<186 214 336 364>
LayerCount: 2
Fore
SplineSet
150 800 m 0
 150 828 172 850 200 850 c 2
 300 850 l 2
 328 850 350 828 350 800 c 0
 350 772 328 750 300 750 c 2
 200 750 l 2
 172 750 150 772 150 800 c 0
250 650 m 0
 250 678 272 700 300 700 c 2
 400 700 l 2
 428 700 450 678 450 650 c 0
 450 622 428 600 400 600 c 2
 300 600 l 2
 272 600 250 622 250 650 c 0
150 500 m 0
 150 528 172 550 200 550 c 2
 400 550 l 2
 428 550 450 528 450 500 c 0
 450 472 428 450 400 450 c 2
 200 450 l 2
 172 450 150 472 150 500 c 0
100 300 m 0
 72 300 50 322 50 350 c 0
 50 378 72 400 100 400 c 0
 128 400 150 378 150 350 c 0
 150 322 128 300 100 300 c 0
400 300 m 0
 372 300 350 322 350 350 c 0
 350 378 372 400 400 400 c 0
 428 400 450 378 450 350 c 0
 450 322 428 300 400 300 c 0
100 150 m 0
 72 150 50 172 50 200 c 0
 50 228 72 250 100 250 c 0
 128 250 150 228 150 200 c 0
 150 172 128 150 100 150 c 0
400 150 m 0
 372 150 350 172 350 200 c 0
 350 228 372 250 400 250 c 0
 428 250 450 228 450 200 c 0
 450 172 428 150 400 150 c 0
150 50 m 0
 150 78 172 100 200 100 c 2
 400 100 l 2
 428 100 450 78 450 50 c 0
 450 22 428 0 400 0 c 2
 200 0 l 2
 172 0 150 22 150 50 c 0
EndSplineSet
EndChar

StartChar: ae
Encoding: 230 230 124
Width: 600
GlyphClass: 1
Flags: MW
HStem: 0 100<186 500 200 500> 150 100<86 114 286 314> 300 100<86 114 300 500> 450 100<186 400 200 400>
VStem: 50 100<186 214 336 364> 250 100<186 214>
LayerCount: 2
Fore
SplineSet
150 500 m 0
 150 528 172 550 200 550 c 2
 400 550 l 2
 428 550 450 528 450 500 c 0
 450 472 428 450 400 450 c 2
 200 450 l 2
 172 450 150 472 150 500 c 0
100 300 m 0
 72 300 50 322 50 350 c 0
 50 378 72 400 100 400 c 0
 128 400 150 378 150 350 c 0
 150 322 128 300 100 300 c 0
250 350 m 0
 250 378 272 400 300 400 c 2
 500 400 l 2
 528 400 550 378 550 350 c 0
 550 322 528 300 500 300 c 2
 300 300 l 2
 272 300 250 322 250 350 c 0
100 150 m 0
 72 150 50 172 50 200 c 0
 50 228 72 250 100 250 c 0
 128 250 150 228 150 200 c 0
 150 172 128 150 100 150 c 0
300 150 m 0
 272 150 250 172 250 200 c 0
 250 228 272 250 300 250 c 0
 328 250 350 228 350 200 c 0
 350 172 328 150 300 150 c 0
150 50 m 0
 150 78 172 100 200 100 c 2
 500 100 l 2
 528 100 550 78 550 50 c 0
 550 22 528 0 500 0 c 2
 200 0 l 2
 172 0 150 22 150 50 c 0
EndSplineSet
EndChar

StartChar: b
Encoding: 98 98 125
Width: 500
GlyphClass: 1
Flags: MW
HStem: 0 100<86 300 100 300> 150 100<86 114 386 414> 300 100<86 114 386 414> 450 100<86 300 100 300> 600 100<86 114>
VStem: 50 100<186 214 336 364 636 664> 350 100<186 214 336 364>
LayerCount: 2
Fore
SplineSet
100 600 m 0
 72 600 50 622 50 650 c 0
 50 678 72 700 100 700 c 0
 128 700 150 678 150 650 c 0
 150 622 128 600 100 600 c 0
50 500 m 0
 50 528 72 550 100 550 c 2
 300 550 l 2
 328 550 350 528 350 500 c 0
 350 472 328 450 300 450 c 2
 100 450 l 2
 72 450 50 472 50 500 c 0
100 300 m 0
 72 300 50 322 50 350 c 0
 50 378 72 400 100 400 c 0
 128 400 150 378 150 350 c 0
 150 322 128 300 100 300 c 0
400 300 m 0
 372 300 350 322 350 350 c 0
 350 378 372 400 400 400 c 0
 428 400 450 378 450 350 c 0
 450 322 428 300 400 300 c 0
100 150 m 0
 72 150 50 172 50 200 c 0
 50 228 72 250 100 250 c 0
 128 250 150 228 150 200 c 0
 150 172 128 150 100 150 c 0
400 150 m 0
 372 150 350 172 350 200 c 0
 350 228 372 250 400 250 c 0
 428 250 450 228 450 200 c 0
 450 172 428 150 400 150 c 0
50 50 m 0
 50 78 72 100 100 100 c 2
 300 100 l 2
 328 100 350 78 350 50 c 0
 350 22 328 0 300 0 c 2
 100 0 l 2
 72 0 50 22 50 50 c 0
EndSplineSet
EndChar

StartChar: c
Encoding: 99 99 126
Width: 500
GlyphClass: 1
Flags: MW
HStem: 0 100<186 400 200 400> 150 100<86 114> 300 100<86 114 386 414> 450 100<186 300 200 300>
VStem: 50 100<186 214 336 364> 350 100<336 364>
LayerCount: 2
Fore
SplineSet
150 500 m 0
 150 528 172 550 200 550 c 2
 300 550 l 2
 328 550 350 528 350 500 c 0
 350 472 328 450 300 450 c 2
 200 450 l 2
 172 450 150 472 150 500 c 0
100 300 m 0
 72 300 50 322 50 350 c 0
 50 378 72 400 100 400 c 0
 128 400 150 378 150 350 c 0
 150 322 128 300 100 300 c 0
400 300 m 0
 372 300 350 322 350 350 c 0
 350 378 372 400 400 400 c 0
 428 400 450 378 450 350 c 0
 450 322 428 300 400 300 c 0
100 150 m 0
 72 150 50 172 50 200 c 0
 50 228 72 250 100 250 c 0
 128 250 150 228 150 200 c 0
 150 172 128 150 100 150 c 0
150 50 m 0
 150 78 172 100 200 100 c 2
 400 100 l 2
 428 100 450 78 450 50 c 0
 450 22 428 0 400 0 c 2
 200 0 l 2
 172 0 150 22 150 50 c 0
EndSplineSet
EndChar

StartChar: cacute
Encoding: 263 263 127
Width: 500
GlyphClass: 1
Flags: MW
HStem: 0 100<186 400 200 400> 150 100<86 114> 300 100<86 114 386 414> 450 100<186 300 200 300> 600 100<286 314> 750 100<386 414>
VStem: 50 100<186 214 336 364> 250 100<636 664> 350 100<336 364 786 814>
LayerCount: 2
Fore
SplineSet
400 750 m 0xfe80
 372 750 350 772 350 800 c 0
 350 828 372 850 400 850 c 0
 428 850 450 828 450 800 c 0
 450 772 428 750 400 750 c 0xfe80
300 600 m 0x3b
 272 600 250 622 250 650 c 0
 250 678 272 700 300 700 c 0
 328 700 350 678 350 650 c 0
 350 622 328 600 300 600 c 0x3b
150 500 m 0
 150 528 172 550 200 550 c 2
 300 550 l 2
 328 550 350 528 350 500 c 0
 350 472 328 450 300 450 c 2
 200 450 l 2
 172 450 150 472 150 500 c 0
100 300 m 0
 72 300 50 322 50 350 c 0
 50 378 72 400 100 400 c 0
 128 400 150 378 150 350 c 0
 150 322 128 300 100 300 c 0
400 300 m 0xe280
 372 300 350 322 350 350 c 0
 350 378 372 400 400 400 c 0
 428 400 450 378 450 350 c 0
 450 322 428 300 400 300 c 0xe280
100 150 m 0
 72 150 50 172 50 200 c 0
 50 228 72 250 100 250 c 0
 128 250 150 228 150 200 c 0
 150 172 128 150 100 150 c 0
150 50 m 0
 150 78 172 100 200 100 c 2
 400 100 l 2
 428 100 450 78 450 50 c 0
 450 22 428 0 400 0 c 2
 200 0 l 2
 172 0 150 22 150 50 c 0
EndSplineSet
EndChar

StartChar: ccaron
Encoding: 269 269 128
Width: 500
GlyphClass: 1
Flags: MW
HStem: 0 100<186 400 200 400> 150 100<86 114> 300 100<86 114 386 414> 450 100<186 300 200 300> 600 100<286 314> 750 100<186 214 386 414>
VStem: 50 100<186 214 336 364> 150 100<786 814> 250 100<636 664 786 814> 350 100<336 364 786 814>
LayerCount: 2
Fore
SplineSet
200 750 m 0x0540
 172 750 150 772 150 800 c 0
 150 828 172 850 200 850 c 0
 228 850 250 828 250 800 c 0
 250 772 228 750 200 750 c 0x0540
400 750 m 0
 372 750 350 772 350 800 c 0
 350 828 372 850 400 850 c 0
 428 850 450 828 450 800 c 0
 450 772 428 750 400 750 c 0
300 600 m 0x0880
 272 600 250 622 250 650 c 0
 250 678 272 700 300 700 c 0
 328 700 350 678 350 650 c 0
 350 622 328 600 300 600 c 0x0880
150 500 m 0x11
 150 528 172 550 200 550 c 2x11
 300 550 l 2
 328 550 350 528 350 500 c 0
 350 472 328 450 300 450 c 2x1080
 200 450 l 2
 172 450 150 472 150 500 c 0x11
100 300 m 0x6240
 72 300 50 322 50 350 c 0
 50 378 72 400 100 400 c 0
 128 400 150 378 150 350 c 0
 150 322 128 300 100 300 c 0x6240
400 300 m 0
 372 300 350 322 350 350 c 0
 350 378 372 400 400 400 c 0
 428 400 450 378 450 350 c 0
 450 322 428 300 400 300 c 0
100 150 m 0
 72 150 50 172 50 200 c 0
 50 228 72 250 100 250 c 0
 128 250 150 228 150 200 c 0
 150 172 128 150 100 150 c 0
150 50 m 0x8140
 150 78 172 100 200 100 c 2
 400 100 l 2
 428 100 450 78 450 50 c 0
 450 22 428 0 400 0 c 2
 200 0 l 2
 172 0 150 22 150 50 c 0x8140
EndSplineSet
EndChar

StartChar: ccedilla
Encoding: 231 231 129
Width: 500
GlyphClass: 1
Flags: MW
HStem: -300 100<186 300 200 300> -150 100<286 314> 0 100<186 400 200 400> 150 100<86 114> 300 100<86 114 386 414> 450 100<186 300 200 300>
VStem: 50 100<186 214 336 364> 150 200<-264 -236 336 364 486 514> 250 100<-114 -86> 350 100<336 364>
LayerCount: 2
Fore
SplineSet
150 500 m 0x05
 150 528 172 550 200 550 c 2x05
 300 550 l 2
 328 550 350 528 350 500 c 0
 350 472 328 450 300 450 c 2x0480
 200 450 l 2
 172 450 150 472 150 500 c 0x05
100 300 m 0x3a40
 72 300 50 322 50 350 c 0
 50 378 72 400 100 400 c 0
 128 400 150 378 150 350 c 0
 150 322 128 300 100 300 c 0x3a40
400 300 m 0
 372 300 350 322 350 350 c 0
 350 378 372 400 400 400 c 0
 428 400 450 378 450 350 c 0
 450 322 428 300 400 300 c 0
100 150 m 0
 72 150 50 172 50 200 c 0
 50 228 72 250 100 250 c 0
 128 250 150 228 150 200 c 0
 150 172 128 150 100 150 c 0
150 50 m 0
 150 78 172 100 200 100 c 2
 400 100 l 2
 428 100 450 78 450 50 c 0
 450 22 428 0 400 0 c 2
 200 0 l 2
 172 0 150 22 150 50 c 0
300 -150 m 0x4080
 272 -150 250 -128 250 -100 c 0
 250 -72 272 -50 300 -50 c 0
 328 -50 350 -72 350 -100 c 0
 350 -128 328 -150 300 -150 c 0x4080
150 -250 m 0x81
 150 -222 172 -200 200 -200 c 2x81
 300 -200 l 2
 328 -200 350 -222 350 -250 c 0
 350 -278 328 -300 300 -300 c 2x8080
 200 -300 l 2
 172 -300 150 -278 150 -250 c 0x81
EndSplineSet
EndChar

StartChar: cdotaccent
Encoding: 267 267 130
Width: 500
GlyphClass: 1
Flags: MW
HStem: 0 100<186 400 200 400> 150 100<86 114> 300 100<86 114 386 414> 450 100<186 300 200 300> 750 100<286 314>
VStem: 50 100<186 214 336 364> 250 100<786 814> 350 100<336 364>
LayerCount: 2
Fore
SplineSet
300 750 m 0xfe
 272 750 250 772 250 800 c 0
 250 828 272 850 300 850 c 0
 328 850 350 828 350 800 c 0
 350 772 328 750 300 750 c 0xfe
150 500 m 0
 150 528 172 550 200 550 c 2
 300 550 l 2
 328 550 350 528 350 500 c 0
 350 472 328 450 300 450 c 2
 200 450 l 2
 172 450 150 472 150 500 c 0
100 300 m 0
 72 300 50 322 50 350 c 0
 50 378 72 400 100 400 c 0
 128 400 150 378 150 350 c 0
 150 322 128 300 100 300 c 0
400 300 m 0xe5
 372 300 350 322 350 350 c 0
 350 378 372 400 400 400 c 0
 428 400 450 378 450 350 c 0
 450 322 428 300 400 300 c 0xe5
100 150 m 0
 72 150 50 172 50 200 c 0
 50 228 72 250 100 250 c 0
 128 250 150 228 150 200 c 0
 150 172 128 150 100 150 c 0
150 50 m 0
 150 78 172 100 200 100 c 2
 400 100 l 2
 428 100 450 78 450 50 c 0
 450 22 428 0 400 0 c 2
 200 0 l 2
 172 0 150 22 150 50 c 0
EndSplineSet
EndChar

